<?xml version="1.0" encoding="UTF-8" standalone="no"?>
<!-- Created with Inkscape (http://www.inkscape.org/) -->

<svg
   width="100mm"
   height="100mm"
   viewBox="0 0 100 100"
   version="1.1"
   id="svg1"
   inkscape:version="1.3.2 (091e20ef0f, 2023-11-25, custom)"
   sodipodi:docname="062319.svg"
   inkscape:export-xdpi="16.256001"
   inkscape:export-ydpi="16.256001"
   xmlns:inkscape="http://www.inkscape.org/namespaces/inkscape"
   xmlns:sodipodi="http://sodipodi.sourceforge.net/DTD/sodipodi-0.dtd"
   xmlns="http://www.w3.org/2000/svg"
   xmlns:svg="http://www.w3.org/2000/svg">
  <sodipodi:namedview
     id="namedview1"
     pagecolor="#000000"
     bordercolor="#000000"
     borderopacity="0.25"
     inkscape:showpageshadow="2"
     inkscape:pageopacity="0.0"
     inkscape:pagecheckerboard="0"
     inkscape:deskcolor="#d1d1d1"
     inkscape:document-units="mm"
     showguides="true"
     inkscape:zoom="2.2621875"
     inkscape:cx="188.97638"
     inkscape:cy="188.97638"
     inkscape:window-width="1920"
     inkscape:window-height="1022"
     inkscape:window-x="0"
     inkscape:window-y="0"
     inkscape:window-maximized="1"
     inkscape:current-layer="layer1">
    <sodipodi:guide
       position="0,99.999999"
       orientation="0,377.95276"
       id="guide4"
       inkscape:locked="false" />
    <sodipodi:guide
       position="99.999999,99.999999"
       orientation="377.95276,0"
       id="guide5"
       inkscape:locked="false" />
    <sodipodi:guide
       position="99.999999,0"
       orientation="0,-377.95276"
       id="guide6"
       inkscape:locked="false" />
    <sodipodi:guide
       position="0,0"
       orientation="-377.95276,0"
       id="guide7"
       inkscape:locked="false" />
    <sodipodi:guide
       position="0,0"
       orientation="0.70710678,-0.70710678"
       id="guide8"
       inkscape:locked="false" />
    <sodipodi:guide
       position="0,99.999999"
       orientation="0.70710678,0.70710678"
       id="guide9"
       inkscape:locked="false"
       inkscape:label=""
       inkscape:color="rgb(0,134,229)" />
    <sodipodi:guide
       position="0,87.499999"
       orientation="0,1"
       id="guide10"
       inkscape:locked="false"
       inkscape:label=""
       inkscape:color="rgb(0,134,229)" />
    <sodipodi:guide
       position="0,12.5"
       orientation="0,1"
       id="guide11"
       inkscape:locked="false"
       inkscape:label=""
       inkscape:color="rgb(0,134,229)" />
    <sodipodi:guide
       position="12.5,99.999999"
       orientation="-1,0"
       id="guide12"
       inkscape:locked="false"
       inkscape:label=""
       inkscape:color="rgb(0,134,229)" />
    <sodipodi:guide
       position="87.499999,99.999999"
       orientation="-1,0"
       id="guide13"
       inkscape:locked="false"
       inkscape:label=""
       inkscape:color="rgb(0,134,229)" />
  </sodipodi:namedview>
  <defs
     id="defs1">
    <filter
       style="color-interpolation-filters:sRGB"
       inkscape:label="Drop Shadow"
       id="filter17"
       x="-0.28001481"
       y="-0.2630897"
       width="1.5600129"
       height="1.5261794">
      <feFlood
         result="flood"
         in="SourceGraphic"
         flood-opacity="0.75"
         flood-color="rgb(134,161,193)"
         id="feFlood16" />
      <feGaussianBlur
         result="blur"
         stdDeviation="7.500000"
         id="feGaussianBlur16"
         in="SourceGraphic" />
      <feOffset
         result="offset"
         in="blur"
         dx="0.000000"
         dy="0.000000"
         id="feOffset16" />
      <feComposite
         result="comp1"
         operator="in"
         in="flood"
         in2="offset"
         id="feComposite16" />
      <feComposite
         result="comp2"
         operator="over"
         in="SourceGraphic"
         in2="comp1"
         id="feComposite17" />
    </filter>
  </defs>
  <g
     inkscape:label="Layer 1"
     inkscape:groupmode="layer"
     id="layer1">
    <path
       d="m 87.500002,86.717517 q -0.53214,0 -1.064275,-0.106427 -1.383561,-0.212856 -3.192827,-0.744995 -2.447837,-0.744992 -5.321381,-1.809266 -3.724967,-1.596415 -7.02422,-4.150677 0.106426,-1.064278 -0.957849,-2.767118 -0.744992,-1.277131 -2.128553,-2.660688 l -0.851418,-0.851422 q -0.638566,-0.744992 -1.170705,-2.022123 -0.532139,-1.277131 -0.638565,-2.07534 -0.106427,-0.798204 0.212856,-1.43677 l 0.106426,-0.319283 q 0.212857,-0.638566 -0.05321,-0.638566 -0.266069,0 -0.638565,0.957849 -0.372496,0.957848 -0.372496,2.234979 0,1.489984 0.851418,4.257102 0.212856,0.851422 0.319283,2.660688 L 61.850955,74.584772 Q 60.25454,73.307641 58.87098,71.817654 59.403118,71.498371 59.882045,70.859805 60.360967,70.22124 60.573823,67.986261 60.786676,65.751283 60.360967,63.303449 59.935258,60.536331 58.87098,58.83349 58.125988,57.343504 57.168139,56.1728 L 56.423146,55.32138 53.230319,48.829298 Q 52.485326,47.232884 51.154981,45.21076 49.824637,43.188636 49.292499,42.762926 v -0.106428 q -1.489986,-1.489986 -1.649628,-1.277131 -0.159641,0.212856 0.904635,1.383559 0.42571,0.42571 1.383558,2.128551 1.170703,2.022124 2.022124,3.831393 1.064276,2.873545 1.702841,6.279227 l -0.212855,1.064276 -0.106427,1.702841 -1.489986,-2.554262 Q 50.99534,53.724966 49.824637,52.447835 49.079644,48.084305 48.015368,45.955753 46.951092,43.827202 45.141823,42.230788 44.822541,40.84723 44.396831,39.570099 43.54541,37.335119 41.842569,34.355146 l -0.425711,-0.85142 Q 41.204003,32.86516 40.618651,32.173381 40.0333,31.481602 39.980086,31.534816 q -0.05321,0.05321 0.478924,1.011062 l 0.212855,0.42571 q 0.106428,0.212855 0.744993,2.022124 l 0.744993,1.915696 q 0.744993,2.128552 1.064276,4.469959 -0.106427,0.319283 -0.212855,0.532138 l -0.638566,1.170704 q -0.319282,-0.532138 -0.85142,-1.064276 -0.532138,-0.532138 -1.064276,-1.277131 -0.532138,-3.405683 -1.543201,-6.704938 -1.011062,-3.299255 -2.713903,-6.172799 -0.638566,-1.170704 -1.436772,-2.288194 -0.798207,-1.117489 -0.904635,-1.011062 -0.106427,0.106428 0.532138,1.596414 l 0.532138,1.064276 q 1.596414,3.51211 1.489986,5.640661 -0.212855,1.170704 -0.638565,2.341407 L 34.28621,33.823009 q -0.744993,-0.532138 -2.341407,-1.702841 0.744993,-3.405683 -0.319283,-6.1728 -0.638565,-1.489986 -1.596413,-2.873544 -1.383559,-3.405683 -3.299255,-5.534235 -1.170704,-1.383559 -1.383559,-1.064276 l 0.532138,0.851421 q 0.744993,1.064276 1.489986,2.234979 0.319283,0.532138 0.957848,2.23498 l 0.532138,1.596413 q -0.212855,0.532138 -0.372496,1.064276 -0.159642,0.532138 -0.372497,1.489986 -1.702841,-2.554262 -3.724965,-4.310317 -2.022124,-1.756055 -2.767117,-1.649627 -0.106428,0 0.42571,0.42571 2.447835,2.341407 3.93782,4.789241 2.447835,3.93782 1.915697,6.066372 -0.212855,0.42571 -0.957848,0.638565 -0.319283,-3.0864 -1.809269,-5.214951 -1.064276,-1.596414 -2.767117,-3.0864 -1.170703,-1.064276 -2.554262,-2.022124 l -1.064275,-0.638565 q -1.915698,-2.234979 -3.299256,-4.89567 -0.744994,-1.489986 -1.809269,-4.257103 -0.744993,-1.702841 -0.904634,-1.702841 -0.159642,0 0.372496,2.288193 0.532138,2.288193 1.383559,3.991034 l 2.234979,5.32138 q 0,2.660689 0.957849,5.108523 0.106427,1.170704 0.42571,2.713904 0.319283,1.5432 0.638566,2.288193 0.638565,1.596413 1.596413,2.979972 l -0.42571,-0.106428 q -0.532138,-0.106428 -0.851421,-0.319283 -0.319282,-0.212855 -1.543199,-1.436772 -1.223919,-1.223917 -2.075339,-2.181765 l -1.277131,-1.702841 q -1.489986,-2.022124 -1.649628,-1.915697 -0.159641,0.106428 0.851421,1.862483 1.011062,1.756055 2.075338,3.352468 l 2.554263,3.405683 0.319282,1.277131 q 0.638565,1.596414 1.649628,2.447835 1.011062,0.851421 2.075337,1.489986 0.851421,0.319283 1.596414,0.532138 l 0.532138,0.106428 1.702841,2.341406 h -2.128552 q -1.064275,0 -2.022123,0.106428 -1.809269,-1.064276 -3.192828,-2.66069 -0.957848,-1.170703 -2.23498,-2.979973 l -0.638565,-0.744993 q -1.064276,-1.277131 -1.223917,-1.170703 -0.159642,0.106427 0.159641,0.744993 0.319283,0.638565 0.638566,1.064276 l 0.638565,0.744993 q 3.618538,5.108524 5.214952,6.492083 4.469958,4.150675 7.237075,5.427806 1.170704,0.42571 2.341407,0.744993 l 2.447834,3.724965 -3.831392,-0.319282 q -0.212856,0 -1.383559,-0.585352 -1.170703,-0.585352 -2.128551,-1.330345 -1.702842,-1.489986 -4.150676,-4.150675 l -0.851421,-1.064276 q -0.532138,-0.744993 -0.585351,-0.691779 -0.05321,0.05321 0.159641,0.585351 0.212855,0.532138 0.42571,0.851421 1.915697,2.660689 4.150676,4.895668 0.957848,1.064277 4.044248,3.512111 l 0.638565,0.638565 q 1.596414,1.809269 3.0864,2.979972 1.170703,0.744994 3.299255,0.957849 l 1.809269,1.702842 1.596414,1.702841 0.42571,1.170703 q 0.212856,0.638565 0.532138,1.170705 l -0.85142,-0.212857 q -1.170704,-0.319283 -2.554263,-1.277131 -0.744993,-0.532137 -2.181765,-1.702841 -1.436773,-1.170703 -1.756055,-1.489986 -1.489986,-1.596413 -1.649628,-1.436772 -0.159641,0.159641 0.798207,1.330344 0.532138,0.744994 2.022124,2.341407 1.809269,1.915696 2.660689,2.554262 l 1.489987,1.064274 q 2.128552,1.489988 2.554262,2.022127 0.957849,1.277131 2.447834,2.341405 2.554262,1.915697 5.800304,2.394623 3.24604,0.478922 6.119585,-0.26607 1.383558,-0.425713 2.128552,-0.957848 1.383558,1.277131 2.128551,1.809266 0.957847,0.851422 1.80927,1.702844 -0.744993,0.106426 -2.022125,0.106426 -1.277131,0 -3.51211,0.425709 -2.554262,0.532139 -4.203889,1.223918 -1.649628,0.691779 -3.033186,1.862483 -0.532138,0.425709 -0.638566,1.064275 0.425711,0 0.798207,-0.26607 0.372497,-0.266065 1.649628,-0.744992 1.27713,-0.478922 2.022123,-0.478922 1.596414,0 3.937821,0.744992 1.064276,0.425709 2.873544,0.638565 2.234979,0.425709 4.150676,0.425709 1.915696,0 4.150675,-0.638565 l 0.638565,-0.212852 q 0.106431,0 2.554263,1.596414 2.767118,1.809266 4.044249,2.447832 1.915697,1.170704 5.108524,2.607475 3.192828,1.436774 3.618537,1.436774 0.957849,-0.106426 2.660693,-1.489987 l 1.1707,-1.170701 z M 23.749879,35.312994 q -0.319282,0 -0.744992,-0.212855 l -0.425711,-0.212855 q -1.170703,-0.85142 -1.862483,-1.96891 -0.691779,-1.117489 -0.798206,-2.39462 1.277131,1.702841 2.075337,2.288193 0.798207,0.585351 1.756055,0.691779 l 0.212856,0.85142 v 0.532138 q 0,0.42571 -0.212856,0.42571 z m 4.576386,9.259201 q -0.957848,-0.532138 -1.915696,-1.596414 l -0.638565,-0.957848 q 0.85142,0.212855 1.702841,0.319282 0.532138,0.106428 1.170703,0 l 1.277131,1.383559 1.277131,1.489986 h -0.851421 q -0.957848,-0.106427 -2.022124,-0.638565 z m 4.789241,-9.472056 0.532138,0.532138 q 0.744993,0.744993 1.596414,1.809269 0.638565,0.851421 0.851421,2.022125 0.212854,0.851421 0.05321,1.436772 -0.159641,0.585352 -0.585352,0.585352 l -0.42571,-0.106428 Q 34.605492,40.84723 34.179782,40.315092 l -0.957848,-1.170704 v -1.596415 z m 5.853517,22.03051 q -0.106428,0.212855 -0.638565,0.05321 -0.532138,-0.159641 -1.170704,-0.478924 -0.957848,-0.532138 -2.341406,-2.022123 l -1.277131,-1.489987 q 0.85142,0.212856 1.543199,0.319283 0.69178,0.106427 1.330345,-0.106427 l 1.596414,1.809268 q 0.638565,0.638566 0.85142,1.170704 0.212856,0.532137 0.106428,0.744993 z m 3.086401,-11.600606 q 0.319282,0.212855 0.85142,0.319282 l 0.319283,2.23498 q 0.106427,0.744993 0.42571,1.809269 l 0.212855,1.064275 -0.85142,-0.106427 q -0.212855,-0.319283 -0.532138,-0.744994 l -0.532138,-0.532137 -0.106427,-1.915697 q -0.212856,-1.383558 -0.532138,-2.660689 0.319282,0.319282 0.744993,0.532138 z m 3.405682,22.136935 q -0.42571,-0.106426 -1.011062,-0.425709 -0.585352,-0.319283 -1.11749,-0.532138 -1.27713,-0.532138 -2.128551,-1.702841 0.851421,-0.106427 1.702841,-0.106427 0.851421,0 1.489987,0.212855 l 2.554261,2.234979 q -0.744993,0.319281 -1.489986,0.319281 z m 7.343503,-3.724964 -0.638565,-0.85142 q -0.638566,-0.957848 -0.957849,-1.277131 l -1.064276,-1.277132 q 0.106428,-0.957848 0.212856,-1.809269 0.106427,-0.532138 0.212855,-1.489986 v -0.85142 q 0.106427,0 0.798207,0.904634 0.691779,0.904634 1.223917,1.862482 0.744993,1.277131 0.744993,2.128553 0.212855,1.383558 -0.532138,2.660689 z"
       id="path1"
       style="fill:#ffffff;fill-opacity:1;stroke-width:6;font-variation-settings:normal;opacity:1;vector-effect:none;stroke:#86a1c1;stroke-linecap:butt;stroke-linejoin:round;stroke-miterlimit:15;stroke-dasharray:none;stroke-dashoffset:0;stroke-opacity:1;-inkscape-stroke:none;paint-order:stroke markers fill;filter:url(#filter17);stop-color:#000000;stop-opacity:1" />
  </g>
</svg>
