<?xml version="1.0" encoding="UTF-8" standalone="no"?>
<!-- Created with Inkscape (http://www.inkscape.org/) -->

<svg
   width="100mm"
   height="100mm"
   viewBox="0 0 100 100"
   version="1.1"
   id="svg1"
   inkscape:version="1.3.2 (091e20ef0f, 2023-11-25, custom)"
   sodipodi:docname="062316.svg"
   inkscape:export-xdpi="16.256001"
   inkscape:export-ydpi="16.256001"
   xmlns:inkscape="http://www.inkscape.org/namespaces/inkscape"
   xmlns:sodipodi="http://sodipodi.sourceforge.net/DTD/sodipodi-0.dtd"
   xmlns="http://www.w3.org/2000/svg"
   xmlns:svg="http://www.w3.org/2000/svg">
  <sodipodi:namedview
     id="namedview1"
     pagecolor="#000000"
     bordercolor="#000000"
     borderopacity="0.25"
     inkscape:showpageshadow="2"
     inkscape:pageopacity="0.0"
     inkscape:pagecheckerboard="0"
     inkscape:deskcolor="#d1d1d1"
     inkscape:document-units="mm"
     showguides="true"
     inkscape:zoom="2.2621875"
     inkscape:cx="188.97638"
     inkscape:cy="188.97638"
     inkscape:window-width="1920"
     inkscape:window-height="1022"
     inkscape:window-x="0"
     inkscape:window-y="0"
     inkscape:window-maximized="1"
     inkscape:current-layer="layer1">
    <sodipodi:guide
       position="0,99.999999"
       orientation="0,377.95276"
       id="guide4"
       inkscape:locked="false" />
    <sodipodi:guide
       position="99.999999,99.999999"
       orientation="377.95276,0"
       id="guide5"
       inkscape:locked="false" />
    <sodipodi:guide
       position="99.999999,0"
       orientation="0,-377.95276"
       id="guide6"
       inkscape:locked="false" />
    <sodipodi:guide
       position="0,0"
       orientation="-377.95276,0"
       id="guide7"
       inkscape:locked="false" />
    <sodipodi:guide
       position="0,0"
       orientation="0.70710678,-0.70710678"
       id="guide8"
       inkscape:locked="false" />
    <sodipodi:guide
       position="0,99.999999"
       orientation="0.70710678,0.70710678"
       id="guide9"
       inkscape:locked="false"
       inkscape:label=""
       inkscape:color="rgb(0,134,229)" />
    <sodipodi:guide
       position="0,87.499999"
       orientation="0,1"
       id="guide10"
       inkscape:locked="false"
       inkscape:label=""
       inkscape:color="rgb(0,134,229)" />
    <sodipodi:guide
       position="0,12.5"
       orientation="0,1"
       id="guide11"
       inkscape:locked="false"
       inkscape:label=""
       inkscape:color="rgb(0,134,229)" />
    <sodipodi:guide
       position="12.5,99.999999"
       orientation="-1,0"
       id="guide12"
       inkscape:locked="false"
       inkscape:label=""
       inkscape:color="rgb(0,134,229)" />
    <sodipodi:guide
       position="87.499999,99.999999"
       orientation="-1,0"
       id="guide13"
       inkscape:locked="false"
       inkscape:label=""
       inkscape:color="rgb(0,134,229)" />
  </sodipodi:namedview>
  <defs
     id="defs1">
    <filter
       style="color-interpolation-filters:sRGB"
       inkscape:label="Drop Shadow"
       id="filter17"
       x="-0.30152492"
       y="-0.27999537"
       width="1.6029121"
       height="1.5600028">
      <feFlood
         result="flood"
         in="SourceGraphic"
         flood-opacity="0.75"
         flood-color="rgb(134,161,193)"
         id="feFlood16" />
      <feGaussianBlur
         result="blur"
         stdDeviation="7.500000"
         id="feGaussianBlur16"
         in="SourceGraphic" />
      <feOffset
         result="offset"
         in="blur"
         dx="0.000000"
         dy="0.000000"
         id="feOffset16" />
      <feComposite
         result="comp1"
         operator="in"
         in="flood"
         in2="offset"
         id="feComposite16" />
      <feComposite
         result="comp2"
         operator="over"
         in="SourceGraphic"
         in2="comp1"
         id="feComposite17" />
    </filter>
  </defs>
  <g
     inkscape:label="Layer 1"
     inkscape:groupmode="layer"
     id="layer1">
    <path
       d="m 73.053685,31.191412 q 0,0.299755 0.399672,0.64947 0.399673,0.349714 0.699428,0.449633 0.299755,0.09992 0.74939,-0.249796 0.449632,-0.349715 0.64947,-0.249796 0.499593,0.299755 2.697798,2.098287 3.996737,3.19739 4.49633,3.19739 0.499594,0 1.39886,-1.149062 0.899266,-1.149062 0.59951,-1.648654 -0.399676,-0.899266 -1.84849,-2.248165 -1.448818,-1.3489 -2.448005,-1.848492 -0.399673,-0.199837 -0.999184,0.199837 -0.59951,0.399674 -1.099104,0.299755 -0.09992,0 -0.349714,-0.399673 -0.249797,-0.399674 -0.04996,-0.599511 0.59951,-0.899266 0.649469,-1.798532 0.04996,-0.899266 -0.549552,-1.29894 -0.899266,-0.699429 -1.698611,0 l -0.09992,0.09992 Q 76.051238,26.795 75.351807,26.395326 L 64.26086,17.10291 q -2.897635,-2.497961 -4.49633,-3.297308 -2.497961,-1.398859 -5.19576,-1.29894 -1.798532,0 -4.096656,1.398858 -1.998369,1.199021 -3.19739,2.597879 -1.898451,2.198207 -2.59788,3.397228 -0.899266,1.498777 -0.899266,2.997554 0,0.699429 1.248981,1.448817 1.24898,0.749388 2.448002,0.849307 0.699429,0.09992 1.598695,0 0.699429,0 0.799347,0.09992 0.09992,0.399674 -1.149062,0.699429 -1.24898,0.299756 -2.747757,0.299756 -0.699429,0 -2.148247,-0.599511 -1.448817,-0.599511 -2.048328,-0.599511 -0.599511,0 -1.099103,0.699429 -0.499592,0.699429 -0.09992,1.29894 l 0.199837,0.499593 q 0.59951,0.799347 0.399673,1.298939 -0.09992,0.299756 -0.799347,1.798532 l -1.29894,2.697799 q -1.798532,3.796901 -2.897635,5.195759 -1.798532,2.497961 -3.297309,1.29894 -0.599511,-0.199837 -0.499592,0.299755 0.299755,1.898451 -1.199022,4.196575 -1.099103,1.798532 -2.897635,3.497146 -1.598695,1.498776 -2.298124,1.798532 -0.699429,0.299755 -1.498777,0.299755 -0.499592,0.09992 -1.598695,0 H 22.7947 q -0.299755,0.399674 -0.09992,0.799348 l 0.399674,0.899266 q 0.399674,0.799347 0.299755,1.099103 -0.09992,0.699429 -0.999184,1.29894 -0.599511,0.399673 -0.799348,0.699429 -0.499592,0.599511 -0.399674,1.598695 0.799348,2.398043 12.589725,3.297307 6.894373,0.599511 14.78793,0.599511 10.191682,-0.09992 14.388257,-0.199834 4.995924,-0.09992 8.193312,-0.599511 2.597881,-0.299755 6.994294,-1.298941 0.299755,-0.09992 0.499589,0.04996 0.199839,0.149878 -0.09992,0.449633 -2.198204,1.39886 -7.294045,2.198205 -3.696986,0.499593 -9.991847,0.799349 l -2.697798,0.09992 q -5.995106,0.299755 -8.393149,0.299755 -10.191682,-0.09992 -16.286708,-0.49959 -9.991844,-0.59951 -13.988582,-2.298125 -1.29894,-0.499592 -2.398043,-1.149062 -1.099103,-0.64947 -1.29894,-0.999185 -0.199837,-0.349714 -0.599511,-0.399673 -0.399674,-0.04996 -0.399674,0.349714 -0.199836,1.498777 1.598695,2.997555 1.598696,1.298938 4.046698,2.198204 2.448002,0.899266 4.446371,1.099104 0.299755,0 0.299755,0.299756 0,0.299755 -0.249796,0.549552 -0.249796,0.249793 -0.849307,0.549548 -0.299755,0.199838 -0.399674,0.349718 -0.09992,0.149876 0,0.349714 0.499593,0.599511 1.099103,2.098287 0.999185,2.49796 2.198206,4.196575 0.999185,1.298939 3.497146,2.897633 1.698614,0.999187 2.298124,1.698615 0.899266,0.999183 0.799348,2.398043 0,0.499593 -0.599511,0.899266 -0.299755,0.299755 -1.29894,0.699428 -1.099103,0.499593 -1.598695,0.899266 -0.699429,0.699431 -0.699429,1.598697 -0.09992,1.698612 2.298124,2.797716 1.898451,0.899266 4.896004,1.398859 2.697799,0.399673 5.095841,0.399673 2.398043,0 3.097472,-0.399673 0.499593,-0.399676 0.499593,-1.298942 0,-0.599511 0.09992,-0.999183 0.09992,-0.499594 0.799348,-0.899266 1.298939,-0.899266 3.047512,-0.849308 1.748573,0.04996 2.847676,1.149063 0.399674,0.399673 0.399674,1.39886 0,0.999183 0.549551,1.498776 0.549552,0.49959 3.397228,0.449631 2.847675,-0.04996 5.745311,-0.549552 3.397226,-0.699428 5.095841,-1.898449 1.398856,-0.899266 1.199022,-2.49796 -0.09992,-0.799349 -0.699432,-1.298942 -0.399672,-0.299756 -1.398856,-0.699428 -0.999187,-0.399673 -1.398859,-0.699428 -0.699429,-0.499594 -0.849307,-1.39886 -0.149877,-0.899266 0.849307,-1.99837 0.699428,-0.699428 2.49796,-1.898449 2.098287,-1.39886 2.797719,-2.198205 0.999183,-1.199021 2.398043,-4.49633 1.199021,-2.497964 1.798532,-3.297309 0.699428,-0.899266 1.898449,-1.698615 l 2.398043,-1.199021 q 1.99837,-0.999184 2.697798,-1.598694 1.199022,-0.999186 1.199022,-2.298126 0,-0.699429 -0.499594,-1.29894 -1.398856,-1.298939 -3.297309,-2.098287 -1.0991,-0.399674 -2.797715,-0.799348 -0.999183,-0.299755 -1.099104,-0.549551 -0.09992,-0.249796 -0.149876,-0.549552 -0.04996,-0.299755 0.04996,-0.699429 0.499594,-2.398043 -1.398859,-5.295678 -1.398856,-2.298124 -3.89682,-4.296493 -2.098287,-1.798532 -2.797715,-1.798532 H 66.459063 Q 65.26004,40.483835 64.66053,40.184078 63.36159,39.484649 62.162569,37.885954 61.363221,36.786851 60.663792,35.387993 L 59.46477,32.98995 q -1.498776,-2.697798 -2.098287,-3.996738 -0.09992,-0.599511 0.149878,-1.049144 0.249796,-0.449633 0.149877,-1.049144 -0.199836,-1.398858 -1.998368,-2.597879 l -0.199838,-0.09992 q -1.598695,-1.199021 -1.598695,-3.297309 0,-2.398042 2.59788,-2.797716 1.099103,-0.09992 3.097472,1.199021 1.199021,0.799348 3.796901,2.897636 l 10.091763,7.993475 q -0.499593,0.499592 -0.399672,0.999185 z m -7.29405,10.691274 h 0.299756 l 0.299755,0.199837 q 0.399676,1.998369 2.497964,3.996738 1.398856,1.298939 4.096654,3.097471 0.899266,0.69943 0.59951,0.849308 -0.299755,0.149877 -0.999183,-0.04996 h -0.09992 q -0.899266,-0.299755 -2.148246,-0.899266 -1.248984,-0.599511 -2.048329,-1.099103 -1.199021,-0.899266 -1.798532,-1.698613 -0.699432,-1.099103 -0.699432,-2.697799 l -0.09992,-0.299755 q 0,-1.398858 0.09992,-1.398858 z m -13.488989,9.792008 q -0.59951,0.499592 -1.598695,0.799347 -0.799348,0.299756 -1.29894,0.299756 -1.398858,0 -2.398043,-0.799348 -0.999184,-0.799347 -1.099103,-2.298124 1.398859,1.498777 3.097472,1.498777 1.698614,0 2.547921,-1.348899 0.849307,-1.3489 -0.04996,-3.347269 1.498776,1.29894 1.548736,2.897635 0.04996,1.598696 -0.749388,2.298125 z m 2.398043,-5.79527 q -0.199837,-0.09992 -0.399674,-0.299756 -1.398858,-0.999184 -2.098287,-1.398858 -0.999185,-0.399673 -2.697799,-0.499592 -2.597879,-0.199837 -4.546289,1.548736 -1.94841,1.748573 -1.848491,4.046697 0,2.59788 2.697798,4.396412 -1.698614,0.199837 -2.947594,-0.549552 -1.248981,-0.749388 -1.848492,-2.148246 -0.59951,-1.398858 -0.299755,-2.797717 0.399674,-2.497961 2.298124,-4.096656 1.798532,-1.498777 4.246534,-1.848492 2.448002,-0.349714 4.54629,0.599511 2.098287,0.949226 2.897635,3.047513 z m -27.577492,0.59951 q 0.499592,0 1.798532,-1.798531 1.199021,-1.498777 1.348899,-2.098288 0.149878,-0.599511 -0.09992,-0.749388 -0.249797,-0.149878 -0.64947,0.04996 L 27.690706,43.5813 q -0.499593,0.499593 -0.69943,0.799348 -0.299755,0.499592 -0.349714,0.999185 -0.04996,0.499592 0.09992,0.849306 0.149878,0.349715 0.349715,0.249795 z"
       id="path1"
       style="fill:#ffffff;fill-opacity:1;stroke-width:6;font-variation-settings:normal;opacity:1;vector-effect:none;stroke:#86a1c1;stroke-linecap:butt;stroke-linejoin:round;stroke-miterlimit:15;stroke-dasharray:none;stroke-dashoffset:0;stroke-opacity:1;-inkscape-stroke:none;paint-order:stroke markers fill;filter:url(#filter17);stop-color:#000000;stop-opacity:1" />
  </g>
</svg>
