<?xml version="1.0" encoding="UTF-8" standalone="no"?>
<!-- Created with Inkscape (http://www.inkscape.org/) -->

<svg
   width="100mm"
   height="100mm"
   viewBox="0 0 100 100"
   version="1.1"
   id="svg1"
   inkscape:version="1.3.2 (091e20ef0f, 2023-11-25, custom)"
   sodipodi:docname="062320.svg"
   inkscape:export-xdpi="16.256001"
   inkscape:export-ydpi="16.256001"
   xmlns:inkscape="http://www.inkscape.org/namespaces/inkscape"
   xmlns:sodipodi="http://sodipodi.sourceforge.net/DTD/sodipodi-0.dtd"
   xmlns="http://www.w3.org/2000/svg"
   xmlns:svg="http://www.w3.org/2000/svg">
  <sodipodi:namedview
     id="namedview1"
     pagecolor="#000000"
     bordercolor="#000000"
     borderopacity="0.25"
     inkscape:showpageshadow="2"
     inkscape:pageopacity="0.0"
     inkscape:pagecheckerboard="0"
     inkscape:deskcolor="#d1d1d1"
     inkscape:document-units="mm"
     showguides="true"
     inkscape:zoom="2.2621875"
     inkscape:cx="188.97638"
     inkscape:cy="188.97638"
     inkscape:window-width="1920"
     inkscape:window-height="1022"
     inkscape:window-x="0"
     inkscape:window-y="0"
     inkscape:window-maximized="1"
     inkscape:current-layer="layer1">
    <sodipodi:guide
       position="0,99.999999"
       orientation="0,377.95276"
       id="guide4"
       inkscape:locked="false" />
    <sodipodi:guide
       position="99.999999,99.999999"
       orientation="377.95276,0"
       id="guide5"
       inkscape:locked="false" />
    <sodipodi:guide
       position="99.999999,0"
       orientation="0,-377.95276"
       id="guide6"
       inkscape:locked="false" />
    <sodipodi:guide
       position="0,0"
       orientation="-377.95276,0"
       id="guide7"
       inkscape:locked="false" />
    <sodipodi:guide
       position="0,0"
       orientation="0.70710678,-0.70710678"
       id="guide8"
       inkscape:locked="false" />
    <sodipodi:guide
       position="0,99.999999"
       orientation="0.70710678,0.70710678"
       id="guide9"
       inkscape:locked="false"
       inkscape:label=""
       inkscape:color="rgb(0,134,229)" />
    <sodipodi:guide
       position="0,87.499999"
       orientation="0,1"
       id="guide10"
       inkscape:locked="false"
       inkscape:label=""
       inkscape:color="rgb(0,134,229)" />
    <sodipodi:guide
       position="0,12.5"
       orientation="0,1"
       id="guide11"
       inkscape:locked="false"
       inkscape:label=""
       inkscape:color="rgb(0,134,229)" />
    <sodipodi:guide
       position="12.5,99.999999"
       orientation="-1,0"
       id="guide12"
       inkscape:locked="false"
       inkscape:label=""
       inkscape:color="rgb(0,134,229)" />
    <sodipodi:guide
       position="87.499999,99.999999"
       orientation="-1,0"
       id="guide13"
       inkscape:locked="false"
       inkscape:label=""
       inkscape:color="rgb(0,134,229)" />
  </sodipodi:namedview>
  <defs
     id="defs1">
    <filter
       style="color-interpolation-filters:sRGB"
       inkscape:label="Drop Shadow"
       id="filter17"
       x="-0.28000001"
       y="-0.27717919"
       width="1.5599946"
       height="1.5543578">
      <feFlood
         result="flood"
         in="SourceGraphic"
         flood-opacity="0.75"
         flood-color="rgb(134,161,193)"
         id="feFlood16" />
      <feGaussianBlur
         result="blur"
         stdDeviation="7.500000"
         id="feGaussianBlur16"
         in="SourceGraphic" />
      <feOffset
         result="offset"
         in="blur"
         dx="0.000000"
         dy="0.000000"
         id="feOffset16" />
      <feComposite
         result="comp1"
         operator="in"
         in="flood"
         in2="offset"
         id="feComposite16" />
      <feComposite
         result="comp2"
         operator="over"
         in="SourceGraphic"
         in2="comp1"
         id="feComposite17" />
    </filter>
  </defs>
  <g
     inkscape:label="Layer 1"
     inkscape:groupmode="layer"
     id="layer1">
    <path
       d="m 79.542151,68.477473 q -0.87209,-0.436046 -2.507265,-1.090116 -2.725293,-0.981105 -3.815408,-1.853198 l -0.872094,-0.65407 Q 69.186048,62.91788 68.204943,62.045787 66.896804,60.846659 65.861194,59.484014 64.82558,58.121369 64.44404,57.303781 64.0625,56.486194 62.318314,53.433869 L 61.33721,51.689683 q -1.526163,-2.398256 -1.744186,-3.379361 1.526163,1.526163 2.72529,3.052326 0.109012,0.218023 0.545059,0.872093 0.654067,1.308139 1.308137,1.744186 0,0.109011 0.16352,0 l 0.163515,-0.109012 q -0.327035,-1.744186 -0.0545,-3.706395 0.27253,-1.96221 0.926599,-3.270349 0.109011,-0.218024 -0.10901,-0.436047 -2.071221,-0.872093 -3.597384,-1.962209 -0.981105,-0.545058 -2.507268,-1.744186 L 57.739831,41.660613 56.97675,41.115555 q -2.071221,-1.30814 -2.943314,-2.725291 0.545058,0.436047 2.398255,1.417151 l 1.090117,0.65407 0.872093,0.545058 q 0.763081,0.65407 1.308139,0.981105 0.109012,0 0.218024,-0.163518 0.109011,-0.163517 0.109011,-0.272529 L 59.593024,40.352473 Q 58.720931,37.845206 58.829942,35.992008 58.502908,35.337938 58.175873,34.79288 56.758721,33.593752 55.886628,32.503636 55.34157,31.849566 54.796512,30.75945 54.251454,29.887357 54.033431,29.45131 l -0.65407,-0.872093 q -1.199128,-1.635174 -1.853198,-2.834302 -1.199128,-2.071221 -1.744186,-4.469477 -3.161337,0.327035 -5.559593,0.218023 -2.398256,-0.109011 -5.34157,-0.763081 -0.327035,-0.109011 -2.180232,-1.199128 -3.052326,-1.853197 -4.578489,-2.507267 -1.526163,-0.65407 -3.815407,-1.30814 L 27.107559,15.279798 Q 25.908431,14.952764 24.273256,14.625729 L 23.074128,14.407706 Q 18.49564,13.535613 14.026163,12.118461 12.718023,13.971659 12.5,16.587938 q 0,1.526163 0.327035,4.469477 l 0.218023,1.635174 q 0.218024,1.96221 0.327035,2.725291 0.327035,1.199128 1.417151,3.379361 0.872093,1.635174 1.199128,2.616279 0.218024,0.654069 0.545059,2.180232 0.327035,1.199128 0.545058,1.744186 l 0.545058,1.417151 q 0.545058,1.526163 0.65407,2.289244 0.654069,0.109012 0.981104,-0.109011 0.327035,-0.218023 0.65407,-0.763081 0.65407,-0.981105 1.30814,-0.981105 h 0.109011 q 3.161338,0.218023 4.469477,0.109012 2.180232,-0.218024 3.433866,-1.144623 1.253634,-0.926598 2.670785,-2.997819 1.090117,-1.526163 1.853198,-3.161337 0.109011,0.545058 -0.109012,1.308139 -0.109011,0.436047 -0.599564,1.526163 -0.490552,1.090116 -0.708575,1.744186 -0.218024,0.65407 -0.436047,1.853197 -0.218023,1.199128 -0.327035,1.635175 -0.218023,0.65407 -0.708575,0.872093 -0.490553,0.218023 -2.34375,0 l -3.161338,-0.436046 q -2.180232,-0.436047 -2.943314,-0.381541 -0.763081,0.05451 -1.090116,0.381541 -0.872093,0.763081 -1.635174,1.744186 -0.218024,0.218023 -0.218024,0.599563 0,0.381541 0.545059,1.035611 l 0.218023,0.436046 q 0.436046,0.545059 1.526162,2.016716 1.090117,1.471657 1.199129,1.798692 0.218023,0.763081 0.272528,2.398255 0.05451,1.635175 0.381541,2.398256 0.109012,0.327035 0.872094,1.090117 l 0.545057,0.763081 q 0.436047,0.545058 1.199128,1.853197 1.30814,2.398256 2.180233,3.161338 0.218023,0 0.490552,-0.05451 0.272529,-0.05451 0.163518,-0.163518 -0.872093,-2.398255 -0.763082,-5.777616 v -0.65407 q 0.109012,-2.834302 -0.109011,-4.03343 0,-0.545058 -0.490553,-1.580669 -0.490552,-1.03561 -0.38154,-1.580668 1.417151,1.635174 1.853197,3.597384 0.545059,2.180232 0.109012,4.905523 0.109012,0.109011 1.090116,0.763081 l 1.417152,1.090116 1.744186,1.090117 q 1.526162,0.981105 1.853197,1.30814 0.872093,0.763081 1.853198,2.72529 0.65407,1.090116 0.981104,1.526163 1.635175,2.180232 2.507268,3.052326 2.507268,2.507267 3.37936,4.142441 0.109012,0.109012 0.27253,0.163518 0.163517,0.05451 0.272529,-0.05451 0.981104,-1.526163 2.616279,-2.289244 2.071221,-0.981105 2.834302,-0.872093 0.545058,0 1.090117,0.436046 l 0.654069,0.327035 0.65407,0.109012 q 0.109012,-0.109012 0,-0.327035 -0.436047,-1.199128 -4.6875,-3.597384 -0.545058,-0.218023 -1.635175,-0.545058 -1.744186,-0.436046 -2.289244,-0.981105 2.943314,0.218024 6.758721,1.96221 2.289244,0.981104 6.431686,3.488372 l 0.65407,0.327035 q 0.436047,0.327035 2.725291,1.962209 l 1.090116,0.872093 q 0.872093,0.327035 2.343752,0.436047 1.471654,0.109011 2.343749,-0.109012 0.327035,0 0.87209,-0.327035 0.763084,-0.545058 1.417154,-0.545058 l 0.76308,0.545058 q 0.65407,0.436047 0.981105,0.763082 0.436046,0.436047 0.545061,1.090119 -1.308141,-0.872097 -2.289246,-0.872097 -0.65407,-0.10901 -1.744189,0.327035 -2.071219,0.545062 -3.924416,0.327037 0.218023,0.872094 1.526162,2.289244 0.872094,1.19913 1.308139,1.744185 0.436045,0.981105 0.981105,2.507269 l 0.436045,0.981104 0.436049,1.635175 1.199126,2.398254 1.199129,2.289245 q 0.763081,1.417154 1.308141,2.071223 0.872094,0.981105 1.962209,1.199126 -0.65407,-1.96221 -0.327035,-3.706395 0.218025,-1.090114 1.090115,-2.834303 0.65407,-1.52616 0.817589,-2.234735 0.163516,-0.708579 0.109011,-1.798694 -0.05451,-1.090115 0.0545,-1.635175 0.65407,0 1.744189,0.38154 1.090114,0.38154 1.52616,0.490555 0.654069,-0.327035 1.962209,-1.090119 2.071224,-1.30814 3.379363,-1.41715 0.76308,0 2.72529,0.327035 l 1.199129,0.218024 q -2.834299,-3.70639 -7.957847,-6.104646 z M 24.818314,22.256543 q -0.327034,0.327035 -1.362645,0.436046 -1.035611,0.109012 -1.362646,-0.218023 -0.872092,-0.545058 -1.144622,-1.68968 -0.272529,-1.144622 0.381541,-1.580669 0.327035,-0.218023 0.65407,-0.218023 0.327035,0 0.872093,0.109012 0.218023,0 0.65407,0.218023 l 0.981105,0.545058 q 0.436046,0.218023 0.654069,1.035611 0.218023,0.817587 -0.327035,1.362645 z"
       id="path1"
       style="fill:#ffffff;fill-opacity:1;stroke-width:6;font-variation-settings:normal;opacity:1;vector-effect:none;stroke:#86a1c1;stroke-linecap:butt;stroke-linejoin:round;stroke-miterlimit:15;stroke-dasharray:none;stroke-dashoffset:0;stroke-opacity:1;-inkscape-stroke:none;paint-order:stroke markers fill;filter:url(#filter17);stop-color:#000000;stop-opacity:1" />
  </g>
</svg>
