<?xml version="1.0" encoding="UTF-8" standalone="no"?>
<!-- Created with Inkscape (http://www.inkscape.org/) -->

<svg
   width="100mm"
   height="100mm"
   viewBox="0 0 100 100"
   version="1.1"
   id="svg1"
   inkscape:version="1.3.2 (091e20ef0f, 2023-11-25, custom)"
   sodipodi:docname="062314.svg"
   xmlns:inkscape="http://www.inkscape.org/namespaces/inkscape"
   xmlns:sodipodi="http://sodipodi.sourceforge.net/DTD/sodipodi-0.dtd"
   xmlns="http://www.w3.org/2000/svg"
   xmlns:svg="http://www.w3.org/2000/svg">
  <sodipodi:namedview
     id="namedview1"
     pagecolor="#000000"
     bordercolor="#000000"
     borderopacity="0.25"
     inkscape:showpageshadow="2"
     inkscape:pageopacity="0.0"
     inkscape:pagecheckerboard="0"
     inkscape:deskcolor="#d1d1d1"
     inkscape:document-units="mm"
     showguides="true"
     inkscape:zoom="2.2621875"
     inkscape:cx="188.97638"
     inkscape:cy="188.97638"
     inkscape:window-width="1920"
     inkscape:window-height="1022"
     inkscape:window-x="0"
     inkscape:window-y="0"
     inkscape:window-maximized="1"
     inkscape:current-layer="layer1">
    <sodipodi:guide
       position="0,99.999999"
       orientation="0,377.95276"
       id="guide4"
       inkscape:locked="false" />
    <sodipodi:guide
       position="99.999999,99.999999"
       orientation="377.95276,0"
       id="guide5"
       inkscape:locked="false" />
    <sodipodi:guide
       position="99.999999,0"
       orientation="0,-377.95276"
       id="guide6"
       inkscape:locked="false" />
    <sodipodi:guide
       position="0,0"
       orientation="-377.95276,0"
       id="guide7"
       inkscape:locked="false" />
    <sodipodi:guide
       position="0,0"
       orientation="0.70710678,-0.70710678"
       id="guide8"
       inkscape:locked="false" />
    <sodipodi:guide
       position="0,99.999999"
       orientation="0.70710678,0.70710678"
       id="guide9"
       inkscape:locked="false"
       inkscape:label=""
       inkscape:color="rgb(0,134,229)" />
    <sodipodi:guide
       position="0,87.499999"
       orientation="0,1"
       id="guide10"
       inkscape:locked="false"
       inkscape:label=""
       inkscape:color="rgb(0,134,229)" />
    <sodipodi:guide
       position="0,12.5"
       orientation="0,1"
       id="guide11"
       inkscape:locked="false"
       inkscape:label=""
       inkscape:color="rgb(0,134,229)" />
    <sodipodi:guide
       position="12.5,99.999999"
       orientation="-1,0"
       id="guide12"
       inkscape:locked="false"
       inkscape:label=""
       inkscape:color="rgb(0,134,229)" />
    <sodipodi:guide
       position="87.499999,99.999999"
       orientation="-1,0"
       id="guide13"
       inkscape:locked="false"
       inkscape:label=""
       inkscape:color="rgb(0,134,229)" />
  </sodipodi:namedview>
  <defs
     id="defs1">
    <filter
       style="color-interpolation-filters:sRGB"
       inkscape:label="Drop Shadow"
       id="filter17"
       x="-0.27999143"
       y="-0.28641474"
       width="1.5599751"
       height="1.572816">
      <feFlood
         result="flood"
         in="SourceGraphic"
         flood-opacity="0.75"
         flood-color="rgb(134,161,193)"
         id="feFlood16" />
      <feGaussianBlur
         result="blur"
         stdDeviation="7.500000"
         id="feGaussianBlur16"
         in="SourceGraphic" />
      <feOffset
         result="offset"
         in="blur"
         dx="0.000000"
         dy="0.000000"
         id="feOffset16" />
      <feComposite
         result="comp1"
         operator="in"
         in="flood"
         in2="offset"
         id="feComposite16" />
      <feComposite
         result="comp2"
         operator="over"
         in="SourceGraphic"
         in2="comp1"
         id="feComposite17" />
    </filter>
    <filter
       style="color-interpolation-filters:sRGB;"
       inkscape:label="Drop Shadow"
       id="filter5"
       x="-0.27999143"
       y="-0.28641474"
       width="1.5599751"
       height="1.572816">
      <feFlood
         result="flood"
         in="SourceGraphic"
         flood-opacity="0.75"
         flood-color="rgb(134,161,193)"
         id="feFlood4" />
      <feGaussianBlur
         result="blur"
         in="SourceGraphic"
         stdDeviation="7.500000"
         id="feGaussianBlur4" />
      <feOffset
         result="offset"
         in="blur"
         dx="0.000000"
         dy="0.000000"
         id="feOffset4" />
      <feComposite
         result="comp1"
         operator="in"
         in="flood"
         in2="offset"
         id="feComposite4" />
      <feComposite
         result="comp2"
         operator="over"
         in="SourceGraphic"
         in2="comp1"
         id="feComposite5" />
    </filter>
  </defs>
  <g
     inkscape:label="Layer 1"
     inkscape:groupmode="layer"
     id="layer1">
    <path
       d="m 57.396278,19.235392 q -0.199836,0 -0.799342,0.09992 -1.099094,0.09992 -1.598679,0.39967 -0.799341,0.299753 -1.049136,1.199011 -0.249794,0.899258 0.349711,1.448804 0.599505,0.549546 1.698599,0.449629 0.799342,-0.199835 1.099094,-0.799341 0.199833,-0.299752 0.299753,-1.099092 0.09992,-0.799341 0.299753,-1.049134 0.199832,-0.249794 0.549543,-0.449629 0.349714,-0.199836 0.649467,0 l 0.299753,0.499587 q 0.799337,1.199011 1.698595,1.598681 0.899258,0.39967 2.597857,0.699423 1.998352,0.299752 3.696948,0.09992 2.098267,0.899258 4.496288,0.949217 2.398021,0.04996 4.696126,-0.649464 l 0.499585,0.499587 q 0.699425,0.699423 1.099094,0.999176 0.699421,0.39967 1.448805,0.499587 0.749379,0.09992 1.548721,-0.599505 0.499589,-0.39967 0.999174,-0.599505 0.799342,0.299753 1.698599,0.199835 0.499589,0 1.298927,-0.249794 0.799342,-0.249794 1.099094,-0.249794 0.799342,0.499588 1.199011,1.498763 0.399669,0.999176 0.09992,2.398021 -0.09992,0.599505 -0.699421,1.398846 -0.399669,0.499587 -1.398847,1.498763 -1.298927,1.19901 -1.898432,1.99835 -0.999174,1.199011 -1.398847,2.398021 0,0.599505 0.249795,0.699423 0.249794,0.09992 0.649463,-0.04996 0.399673,-0.149876 0.599505,-0.04996 0.199836,0.09992 0.199836,0.699423 -1.598679,1.298928 -2.697773,2.797691 -1.099094,1.698598 -1.798516,3.896784 -0.399668,1.199011 -1.898432,2.398021 0.199833,1.19901 0,3.097443 l -0.09992,1.199011 q -1.19901,1.59868 -1.798515,5.095794 -0.399669,2.298103 -0.699422,7.29398 -0.09992,0.899258 0.399669,2.098268 l 0.299753,0.999174 q 0.399672,5.395548 2.89761,8.093322 0,0.699425 -0.499589,0.899257 -0.199833,0 -0.349711,0.199837 -0.149875,0.199836 -0.149875,0.899258 0,0.999174 0.499586,1.598679 0.299752,0.299752 0.999178,0.699425 h 0.09992 l 0.299752,0.799338 q 0.199837,0.799341 0.499589,1.19901 2.597854,1.998352 4.895958,4.396373 -0.399669,1.998352 -1.998352,3.297279 -0.999174,0.199836 -1.798515,-0.199837 -0.499585,-0.199832 -1.248969,-0.899257 -0.749379,-0.699422 -1.09909,-0.799338 -0.349715,-0.09992 -0.399673,0.149874 -0.04996,0.249795 0.04996,0.749384 0.09992,0.899258 -0.199832,0.999174 -0.799342,0 -1.848474,-0.649464 -1.049136,-0.649463 -1.848478,-0.649463 -0.399669,-1.29893 -1.598679,-2.298104 -0.799341,-0.499589 -2.497937,-1.348885 -1.698599,-0.8493 -2.597856,-1.348889 -0.499586,0.199836 -0.449628,0.349711 0.04996,0.149878 0.349711,0.349711 0.299753,0.199836 0.349711,0.399672 0.04996,0.199833 -0.249794,0.399669 -4.296453,-1.099094 -6.994227,-1.19901 -4.196536,-0.299753 -6.694473,1.099094 -0.699426,0.199832 -1.199011,0.699421 -0.299752,0.299753 -0.699425,0.999174 -0.399669,0.699426 -0.699421,0.899258 -0.399669,0.399673 -0.999175,0.499589 -0.899257,-0.09992 -1.498763,-0.699421 -0.299752,-0.299753 -0.799341,-1.199011 l -0.599505,-0.899258 q -0.699423,-0.09992 -1.24897,-0.499588 -0.549546,-0.399669 -1.149052,-0.499589 -0.999175,-0.299753 -3.097443,-0.499586 -3.397196,-0.09992 -6.694475,0.599506 -0.699422,0 -1.698598,-0.499589 l -0.699423,-0.299753 -2.098268,0.999174 q -2.098268,0.999178 -2.897608,1.598683 -1.199011,0.999174 -1.798516,2.497937 -0.79934,-0.09992 -1.798515,0.449631 -0.999176,0.549543 -1.498763,0.599505 -0.499588,0.04996 -0.599506,-0.149878 -0.09992,-0.199836 0,-0.599505 0.09992,-0.699421 -0.09992,-0.799342 -0.699423,0.09992 -1.598681,0.799342 -0.699423,0.599505 -1.19901,0.799342 -0.699423,0.299752 -1.698599,0.09992 -1.298927,-0.999174 -1.798515,-3.297279 l 0.79934,-0.799341 q 2.597856,-2.597854 4.196537,-3.597032 0.09992,-1.09909 0.599505,-2.098268 0.199835,-0.199832 0.549546,-0.349711 0.349712,-0.149874 0.549547,-0.449627 0.39967,-0.399672 0.599505,-1.29893 0.09992,-0.399669 0,-0.549543 -0.09992,-0.149879 -0.349711,-0.299753 -0.249794,-0.149878 -0.449629,-0.399673 -0.199835,-0.249794 -0.149877,-0.849299 0.04996,-0.599506 0.799341,-1.798516 0.749381,-1.19901 1.049134,-2.09827 0.599505,-1.598679 0.79934,-3.597031 0.09992,-7.393896 -0.299753,-12.689525 L 24.02382,51.508756 q -0.499588,-1.59868 -0.999175,-2.198186 0,-0.699422 -0.199836,-1.798515 -0.199834,-1.498763 -0.09992,-2.497938 -0.699423,-1.398846 -1.998351,-2.398021 -1.398845,-5.095795 -4.096619,-6.49464 -0.09992,-0.39967 0.04996,-0.549546 0.149876,-0.149877 0.499588,-0.249795 0.349711,-0.09992 0.499588,-0.299752 0.149876,-0.199835 0.04996,-0.699423 -0.199835,-1.398845 -1.099093,-2.597856 -0.599505,-0.79934 -1.798515,-1.99835 -1.698598,-1.698598 -2.298103,-2.797691 -0.09992,-0.899258 0.09992,-1.698598 0.199835,-0.499588 0.699423,-1.398846 l 0.39967,-0.699423 q 0.499588,-0.199835 1.898433,0.09992 1.398845,0.299752 2.198186,0.249794 0.79934,-0.04996 1.498763,0.649464 0.699422,0.699423 1.398845,0.699423 0.899258,-0.199836 1.798516,-1.298929 0.599505,-0.699422 0.999175,-0.999175 3.896784,0.799341 8.043362,0.449629 4.146577,-0.349711 7.144103,-1.748557 0.999176,-0.39967 1.798516,-1.19901 0.39967,-0.39967 0.749382,-0.549546 0.349711,-0.149877 1.149051,-0.04996 -0.699422,0.899258 -0.549546,1.648639 0.149876,0.749382 0.999175,0.949216 0.849299,0.199836 1.648639,-0.299752 0.499588,-0.299753 -0.04996,-1.448804 -0.549546,-1.149052 -1.348886,-1.748557 l 0.199835,-0.199835 q 1.398846,-1.498763 2.198186,-2.098269 1.298927,-0.999175 2.89761,-1.298927 0,-0.199835 0.699421,-0.749382 0.699422,-0.549546 0.699422,-0.849299 2.098268,1.199011 2.89761,3.197361 2.997526,-0.299753 4.696125,2.697773 z m -20.583014,11.790269 -0.499587,0.499588 q -0.799341,0.999175 -0.999176,1.798516 0.299753,0.79934 0.899258,1.59868 0.39967,0.39967 1.298928,1.149052 0.899258,0.749381 1.19901,1.149052 0.499588,0.699422 0.599506,1.398845 0.09992,0.39967 -0.599506,0.39967 -0.39967,-0.09992 -0.499587,0 -0.09992,0.09992 0.09992,0.599506 0.599505,0.79934 1.498763,0.79934 0.699423,0 2.098268,-0.39967 0.499588,0.599505 1.149052,1.149051 0.649464,0.549547 1.049134,0.599505 0.39967,0.04996 0.699423,0.549547 0.39967,0.599505 0.999175,0.699423 0.599505,-0.899258 0.299753,-1.798516 -0.09992,-0.499588 -0.749382,-1.298928 -0.649463,-0.79934 -0.849299,-1.19901 0,-0.699423 -0.39967,-1.798516 -0.39967,-1.298928 -0.299752,-2.398021 -0.599505,0 -0.8493,-0.149876 -0.249793,-0.149876 -0.449628,-0.549546 L 42.208811,33.5236 q 0.09992,-0.699423 -0.199835,-1.19901 -0.199835,-0.199836 -0.599505,-0.699423 -0.79934,-0.699423 -0.899258,-1.298928 -0.899258,0.09992 -1.598681,-0.39967 -0.39967,-0.299753 -0.899258,-1.049134 -0.499587,-0.749382 -0.79934,-0.849299 -0.699423,1.19901 -0.39967,2.997525 z m 25.478972,-1.498763 q -0.199836,0.299753 -0.399669,0.299753 -0.199836,0 -0.499589,-0.249794 -0.299752,-0.249793 -0.599505,-0.249793 -0.399669,0.299752 -1.698599,0.599505 -1.298927,0.299752 -1.798516,0.699422 v 0.09992 q -0.999174,0.899258 -1.398843,1.398845 -0.799342,1.099093 -0.899258,2.098269 0.09992,1.298928 -0.299752,2.597855 -0.299753,0.799341 -0.399673,1.398846 -0.09992,0.999175 0,2.398021 1.798515,-1.798516 2.697773,-2.198186 0.399673,-0.199835 1.049136,-0.249794 0.649464,-0.04996 0.949216,-0.199835 0.299753,-0.149876 0.699422,-0.599505 0.399672,-0.449629 0.399672,-1.049134 0.09992,-0.39967 0,-1.298928 l -0.09992,-0.39967 q 1.598683,0 2.597858,-1.498763 0.799341,-1.298928 0.899257,-3.397196 v -0.39967 q -0.09992,-0.799341 -0.299752,-0.899258 -0.09992,0.299752 -0.349711,0.699422 -0.249794,0.39967 -0.549547,0.39967 z m -35.470725,9.991754 q 0.299752,0.199835 1.248969,0.249794 0.949217,0.04996 1.648639,0.249794 0.499588,0.199835 1.64864,0.749381 1.149051,0.549547 1.748557,0.649464 0.899257,0.299753 1.498763,0 -0.09992,-0.699423 -1.099093,-1.59868 -0.999176,-0.899258 -1.199011,-1.598681 0.09992,-0.299753 -0.149876,-0.699423 -0.249794,-0.39967 -0.04996,-0.899257 -0.599505,-0.199836 -0.999175,-0.699423 -0.199835,-0.39967 -0.499588,-1.099093 -0.499588,-1.199011 -0.999175,-1.598681 -0.899258,-0.09992 -2.497939,-0.699423 -1.099092,-0.499587 -1.698598,-0.599505 -0.09992,2.497939 0.299753,4.596207 0.299753,2.398021 1.099093,2.997526 z M 75.081677,32.32459 q -0.199832,-0.499588 -0.699421,-0.399671 -0.399669,0.299753 -2.04831,0.699423 -1.648638,0.39967 -2.098269,0.79934 -0.449627,0.399671 -0.649463,1.099093 -0.199833,1.199011 -1.09909,1.998351 -0.699425,0.499588 -0.999177,1.998351 -0.299753,1.498763 0.299752,1.798515 0.599505,0.299753 1.19901,0.09992 0.399672,-0.09992 0.999178,-0.499588 0.599501,-0.39967 0.899254,-0.299752 0.999178,0.09992 1.698599,-0.09992 0.399669,-0.09992 0.8493,-0.449629 0.449627,-0.349711 0.499589,-0.749382 0.04996,-0.39967 0.04996,-1.298927 -0.09992,-1.298928 0.09992,-2.098269 0.199836,-1.398845 0.999174,-2.597855 z M 29.819037,48.9109 q -0.199835,1.798516 0.04996,2.497939 0.249793,0.699422 0.849299,0.79934 1.59868,3.597031 3.896784,4.396371 0.09992,-0.499587 0,-0.79934 -0.09992,-0.299753 -0.39967,-0.599505 -0.39967,-0.599505 -0.39967,-0.999175 1.298927,0.499587 1.898432,-0.299753 0.09992,-0.299753 0.149877,-1.149052 0.04996,-0.849299 0.249793,-0.949216 l 0.39967,-0.199835 q 0.599506,-0.199835 0.699423,-0.499588 -0.39967,-0.79934 -1.099093,-1.248969 Q 35.41442,49.410488 35.01475,48.9109 34.015574,47.71189 33.416069,47.212302 32.316976,46.512879 31.217883,46.512879 30.918131,46.013292 29.918956,45.66358 q -0.999176,-0.349711 -1.24897,0.09992 -0.249793,0.449629 -0.09992,0.849299 0.149876,0.39967 0.549546,0.899258 0.699423,0.79934 0.699423,1.398845 z m 39.267592,-2.398021 q -0.499588,-0.09992 -0.749383,-0.04996 -0.249794,0.04996 -0.649463,0.149876 l -0.699422,0.299753 q -0.799341,0.299752 -1.149052,0.79934 -0.349711,0.499587 -0.349711,1.398845 -0.599505,0.199835 -1.29893,0.749382 -0.699422,0.549546 -0.799338,1.149051 0.499585,0.199836 0.599505,0.549547 0.09992,0.349711 0.09992,0.999175 0,0.649464 0.149874,0.999176 0.149878,0.349711 0.649467,0.449628 0.699422,0.299753 1.498763,-0.09992 0.399669,-0.199835 1.298927,-0.899258 1.598678,-1.099093 2.597852,-1.19901 -0.399668,-2.198186 0,-3.297279 0.199837,-0.599505 0.799342,-1.19901 0.399669,-0.299753 0.499589,-0.549547 0.09992,-0.249794 -0.09992,-0.849299 -0.499585,-0.699423 -1.199011,-0.39967 -0.399668,0.199835 -0.999174,0.79934 z m -16.28656,1.398846 q 1.29893,2.597856 1.29893,4.596206 0,1.199011 -0.599505,2.897609 -0.399673,0.999175 -0.399673,1.498763 -0.199832,0.899258 0.09992,1.698598 0.499586,-0.09992 0.849296,-0.39967 0.349715,-0.299753 0.749384,-0.899258 0.799341,-1.099093 1.598679,-1.698598 0.09992,-1.099093 0.499589,-1.698598 0.299753,-0.39967 0.899258,-0.899258 0.899258,-0.599505 1.099094,-1.298928 -0.199836,-0.199835 -0.699425,-0.649464 -0.499585,-0.449629 -0.699422,-0.749381 -0.299752,-0.499588 -0.299752,-1.099093 -0.299753,-0.199835 -0.899258,-0.249794 -0.599505,-0.04996 -0.799342,-0.249794 -0.09992,-0.39967 -0.549547,-0.749381 -0.449627,-0.349712 -0.449627,-0.649464 -0.299752,-0.09992 -0.449631,-0.549547 -0.149874,-0.449629 -0.34971,-0.649464 -0.199833,-0.199835 -0.899258,-0.199835 z m -10.990928,4.596206 q 0.09992,0.499588 0.899258,0.999176 0.499588,0.39967 0.699422,0.699423 0.299753,0.499587 0.199836,1.298927 1.798515,2.797691 3.497112,2.997526 -0.09992,-2.098268 -0.74938,-4.44633 -0.649464,-2.348062 -1.548722,-3.946742 -1.298928,-0.199835 -2.048309,0.499587 -0.749382,0.699423 -0.949217,1.798516 z m 24.679631,8.592909 -0.199836,0.09992 q -1.298927,0.79934 -1.798516,1.598681 l -0.699421,2.098268 q -0.799342,2.398021 -0.999174,3.297279 -0.299753,1.598681 0.499585,1.798517 0.699425,-0.299752 1.498763,-1.698601 0.599505,-0.899257 0.999178,-1.19901 0.599505,-0.399669 1.698596,-1.199011 l 0.799341,-0.499588 q 0.199836,-0.999175 0.699421,-1.59868 0.299752,-0.399669 0.899258,-0.799341 0.899257,-0.599504 1.099094,-1.298926 -1.199011,0.09992 -1.898432,-0.499588 -0.399672,-0.39967 -0.899257,-1.298928 -0.299753,-0.79934 -0.599505,-1.099093 -0.399673,-0.499588 -1.099095,-0.499588 0.09992,0.499588 0,1.298929 -0.09992,0.79934 0,1.498763 z m -36.270065,1.398845 q 0,0.199835 0.299753,0.899258 l 0.39967,0.899258 0.09992,0.499585 q 0.09992,0.699426 0.09992,1.099094 0,0.399669 -0.299753,1.199011 0.699423,1.19901 1.548722,1.648641 0.849299,0.449629 2.348062,0.149876 l 0.299753,0.299753 q 1.59868,1.398846 2.198185,1.19901 0.09992,-0.299753 -0.299752,-1.498763 -0.499588,-1.398848 -0.499588,-2.298106 -0.299753,-0.599505 -0.999175,-1.19901 l -0.39967,-0.299753 q 0.09992,-0.399669 0.599505,-0.74938 0.499587,-0.34971 0.39967,-0.949216 L 33.016403,61.600427 Q 32.017228,61.10084 30.7183,60.601252 30.118794,61.90018 30.218712,62.499685 Z m 11.190764,2.597854 q -0.699423,1.29893 -0.599505,1.798516 0.09992,0.499589 1.099092,1.099094 l 0.699423,0.399669 q 0,-1.099091 0.949217,-2.747732 0.949216,-1.648637 0.949216,-3.047483 -0.79934,0 -1.698598,-0.799341 -0.599505,-0.499588 -0.899258,-0.599505 -0.599505,-0.299753 -1.398845,-0.199835 -0.499588,1.298928 -0.299753,1.998349 0.09992,0.499589 0.649464,1.049136 0.549547,0.549547 0.549547,1.049132 z m 15.687054,-2.897607 q -0.09992,0.499588 0.199833,0.849301 0.299753,0.34971 0.09992,1.049132 -1.698599,0.999174 -2.098268,2.997526 0.09992,2.09827 1.19901,2.09827 0.599505,-0.399671 0.799338,-1.099096 0.199836,-0.699421 -0.09992,-1.398843 0.199836,-0.199836 0.699421,-0.299753 0.799342,-0.09992 0.799342,-0.499589 -0.09992,-0.699421 0.199836,-1.298926 0.09992,-0.299753 0.449627,-0.699425 0.349711,-0.399669 0.499589,-0.799338 0.149874,-0.399671 0.04996,-1.398846 v -0.699423 q -1.099094,0 -1.648641,0.199835 -0.549543,0.199835 -1.149049,0.999175 z m 8.093321,8.393075 q -0.699426,1.59868 0.09992,1.998349 0.09992,0.399672 0.249794,0.499589 0.149875,0.09992 0.8493,0.199836 0.09992,-0.699425 0.999174,-2.098268 l 0.599505,-0.799342 q 0.599506,-0.899258 0.799342,-1.298927 0.199832,-0.699426 -0.199836,-1.099095 -0.999174,-0.09992 -1.948394,0.649463 -0.949216,0.749385 -1.448801,1.948395 z m -21.981859,3.996701 q 0.09992,-0.499589 -0.249795,-1.298927 -0.349711,-0.799342 -0.149876,-1.398847 -0.499587,0.09992 -1.248969,-0.149874 -0.749381,-0.249795 -1.448804,-0.04996 -0.39967,1.19901 0.549546,2.098268 0.949217,0.899258 2.547898,0.799342 z M 57.196442,72.09177 q 0.09992,0.799338 0.749379,1.199011 0.649467,0.399669 1.548725,0.299752 0.699422,-0.699425 0.699422,-1.798515 -0.699422,-0.199836 -1.6986,0.09992 -0.799337,0.199836 -1.298926,0.199836 z m -8.992579,4.696122 v 0.199836 q 0.09992,1.099095 0.299753,1.498763 0.399669,0.499589 1.598679,0.599506 0.199837,-0.599506 0.999178,-1.498763 0.899258,-1.199011 1.099091,-1.898432 -0.699422,-0.199837 -1.498763,0.299752 -0.299753,0.199833 -0.599506,0.299753 l -0.199832,-0.499589 q -0.199837,-0.399669 -0.399673,-0.549547 -0.199832,-0.149874 -0.699421,-0.149874 0,-0.499589 -0.399669,-0.8493 -0.399673,-0.349711 -0.999178,-0.349711 l 0.199836,0.499585 q 0.499589,1.6986 0.599505,2.398021 z"
       id="path1"
       style="font-variation-settings:normal;display:inline;opacity:1;vector-effect:none;fill:#ffffff;fill-opacity:1;stroke:#86a1c1;stroke-width:6;stroke-linecap:butt;stroke-linejoin:round;stroke-miterlimit:15;stroke-dasharray:none;stroke-dashoffset:0;stroke-opacity:1;-inkscape-stroke:none;paint-order:stroke markers fill;filter:url(#filter17);stop-color:#000000;stop-opacity:1" />
  </g>
</svg>
