<?xml version="1.0" encoding="UTF-8" standalone="no"?>
<!-- Created with Inkscape (http://www.inkscape.org/) -->

<svg
   width="100mm"
   height="100mm"
   viewBox="0 0 100 100"
   version="1.1"
   id="svg1"
   inkscape:version="1.3.2 (091e20ef0f, 2023-11-25, custom)"
   sodipodi:docname="062313.svg"
   inkscape:export-xdpi="16.256001"
   inkscape:export-ydpi="16.256001"
   xmlns:inkscape="http://www.inkscape.org/namespaces/inkscape"
   xmlns:sodipodi="http://sodipodi.sourceforge.net/DTD/sodipodi-0.dtd"
   xmlns="http://www.w3.org/2000/svg"
   xmlns:svg="http://www.w3.org/2000/svg">
  <sodipodi:namedview
     id="namedview1"
     pagecolor="#000000"
     bordercolor="#000000"
     borderopacity="0.25"
     inkscape:showpageshadow="2"
     inkscape:pageopacity="0.0"
     inkscape:pagecheckerboard="0"
     inkscape:deskcolor="#d1d1d1"
     inkscape:document-units="mm"
     showguides="true"
     inkscape:zoom="2.2621875"
     inkscape:cx="188.97638"
     inkscape:cy="188.97638"
     inkscape:window-width="1920"
     inkscape:window-height="1022"
     inkscape:window-x="0"
     inkscape:window-y="0"
     inkscape:window-maximized="1"
     inkscape:current-layer="layer1">
    <sodipodi:guide
       position="0,99.999999"
       orientation="0,377.95276"
       id="guide4"
       inkscape:locked="false" />
    <sodipodi:guide
       position="99.999999,99.999999"
       orientation="377.95276,0"
       id="guide5"
       inkscape:locked="false" />
    <sodipodi:guide
       position="99.999999,0"
       orientation="0,-377.95276"
       id="guide6"
       inkscape:locked="false" />
    <sodipodi:guide
       position="0,0"
       orientation="-377.95276,0"
       id="guide7"
       inkscape:locked="false" />
    <sodipodi:guide
       position="0,0"
       orientation="0.70710678,-0.70710678"
       id="guide8"
       inkscape:locked="false" />
    <sodipodi:guide
       position="0,99.999999"
       orientation="0.70710678,0.70710678"
       id="guide9"
       inkscape:locked="false"
       inkscape:label=""
       inkscape:color="rgb(0,134,229)" />
    <sodipodi:guide
       position="0,87.499999"
       orientation="0,1"
       id="guide10"
       inkscape:locked="false"
       inkscape:label=""
       inkscape:color="rgb(0,134,229)" />
    <sodipodi:guide
       position="0,12.5"
       orientation="0,1"
       id="guide11"
       inkscape:locked="false"
       inkscape:label=""
       inkscape:color="rgb(0,134,229)" />
    <sodipodi:guide
       position="12.5,99.999999"
       orientation="-1,0"
       id="guide12"
       inkscape:locked="false"
       inkscape:label=""
       inkscape:color="rgb(0,134,229)" />
    <sodipodi:guide
       position="87.499999,99.999999"
       orientation="-1,0"
       id="guide13"
       inkscape:locked="false"
       inkscape:label=""
       inkscape:color="rgb(0,134,229)" />
  </sodipodi:namedview>
  <defs
     id="defs1">
    <filter
       style="color-interpolation-filters:sRGB"
       inkscape:label="Drop Shadow"
       id="filter17"
       x="-0.28"
       y="-0.45651588"
       width="1.56"
       height="1.9130376">
      <feFlood
         result="flood"
         in="SourceGraphic"
         flood-opacity="0.75"
         flood-color="rgb(134,161,193)"
         id="feFlood16" />
      <feGaussianBlur
         result="blur"
         stdDeviation="7.500000"
         id="feGaussianBlur16"
         in="SourceGraphic" />
      <feOffset
         result="offset"
         in="blur"
         dx="0.000000"
         dy="0.000000"
         id="feOffset16" />
      <feComposite
         result="comp1"
         operator="in"
         in="flood"
         in2="offset"
         id="feComposite16" />
      <feComposite
         result="comp2"
         operator="over"
         in="SourceGraphic"
         in2="comp1"
         id="feComposite17" />
    </filter>
  </defs>
  <g
     inkscape:label="Layer 1"
     inkscape:groupmode="layer"
     id="layer1">
    <path
       d="m 51.7,27.766663 q 0,-1.6 -0.8,-3.5 -0.5,-0.9 -0.9,-1.5 l -0.4,0.7 q -0.5,0.9 -0.9,1.800001 -0.4,1.299999 -0.4,2.499999 0,1.200001 0.4,2.5 0.4,1 0.9,1.9 l 0.4,0.800001 0.4,-0.800001 q 0.5,-0.9 0.9,-1.9 0.4,-1.299999 0.4,-2.5 z m 33.2,31.1 q 0.6,-1.599999 0.349999,-3.3 -0.249997,-1.699999 -1.149997,-3.1 Q 82.8,50.466664 81.200001,49.766663 80.4,49.366664 79.900002,49.366664 l -0.3,-1.400001 q -0.6,-1.699999 -1.5,-3.199999 -1.300003,-2.000001 -3.100003,-3.200001 -2.299997,-1.399999 -5.199998,-1.399999 -2.700001,0 -5.100001,1.3 l 0.1,-0.100001 Q 65,40.266664 65.099999,39.066664 65.200001,37.366663 65,35.766663 l -0.9,0.200001 q -1.100001,0.499999 -2.199999,1.5 -1.100001,1 -1.400001,1.5 -0.5,-3.3 -2.4,-5.300001 -1.7,-1.8 -3.6,-1.8 -1.6,0 -2.7,1 -0.9,0.700001 -1.4,1.8 L 50,35.666664 49.6,34.666663 q -0.5,-1.099999 -1.4,-1.8 -1.1,-1 -2.7,-1 -1.9,0 -3.6,1.8 -1.9,2.000001 -2.4,5.300001 -0.3,-0.5 -1.4,-1.5 -1.1,-1.000001 -2.2,-1.5 l -0.8,-0.200001 q -0.2,1.6 -0.2,3.300001 0.1,1.2 0.4,2.299999 v 0.100001 q -2.4,-1.3 -5.1,-1.3 -2.9,0 -5.2,1.399999 -1.8,1.2 -3.1,3.200001 -0.9,1.399999 -1.5,3.199999 l -0.3,1.400001 -0.6,0.1 q -0.8,0.2 -1.6,0.8 -1,0.799999 -1.95,2.199999 -0.95,1.400001 -1.2,3.1 -0.25,1.700001 0.35,3.3 l -0.7,0.500001 q -0.7,0.699999 -1.2,1.5 -0.7,1.2 -0.7,2.4 0,1.999999 1.55,3.299998 1.55,1.299999 3.3,1.299999 1.75,0 3.25,-0.9 0.8,0.700002 1.6,1.000002 0.8,0.3 2.2,0.550001 1.4,0.249997 2.05,0.249997 0.65,0 1.25,-0.499998 l -1,-0.3 q -1,-0.500001 -1.7,-1.2 -1,-1.000002 -1,-2.349999 0,-1.35 1.65,-2.7 1.65,-1.350001 4.4,-2.15 2.75,-0.8 6,-0.8 3.25,0 5.55,0.699999 1.7,0.500001 3.6,1.800001 1.4,0.9 2.4,2 0.8,0.9 1.1,1.399999 l 0.1,0.6 q 0.1,0.499998 0.25,0.799998 0.15,0.3 0.55,0.6 l 0.4,0.200001 0.4,-0.200001 q 0.4,-0.3 0.55,-0.6 0.15,-0.3 0.25,-0.799998 l 0.1,-0.6 q 0.3,-0.499999 1.1,-1.399999 1,-1.1 2.5,-2 1.9,-1.3 3.5,-1.800001 2.300001,-0.699999 5.550002,-0.699999 3.249997,0 6.000001,0.8 2.749999,0.799999 4.399997,2.15 1.650002,1.35 1.650002,2.75 0,1.799998 -1.8,2.999998 -1.000003,0.6 -1.900003,0.800001 0.6,0.499998 1.250004,0.499998 0.649999,0 2.049996,-0.249997 1.400002,-0.250001 2.250002,-0.550001 0.850001,-0.3 1.55,-1.000002 1.599999,0.9 3.349999,0.9 1.750001,0 3.250001,-1.299999 1.5,-1.299999 1.5,-3.299998 0,-1.2 -0.699999,-2.4 -0.500001,-0.800001 -1.2,-1.5 z m -6.399999,-5.499999 q 0.6,-1 1.2,-1.9 1.8,0.399999 2.600001,1.9 0.399999,0.8 0.399999,1.7 0,0.7 -0.3,1.3 l -0.200001,0.6 q -1.299999,-0.9 -2.649997,-1.3 -1.350002,-0.400001 -2.650001,-0.6 l 0.6,-0.6 q 0.699999,-0.700001 0.999999,-1.1 z m -17.8,-11.100001 q 0.3,-1 0.799998,-1.9 0.400002,-0.6 1.2,-1.299999 l 0.700002,-0.500001 v 0.9 q 0,1.100001 -0.3,1.700001 -0.6,1.5 -2.500001,3 0.100001,-0.9 0.100001,-1.900001 z m 8.8,-0.4 q 1.899998,0 3.200001,0.7 0.999999,0.6 1.5,1.4 l 0.3,0.800001 -1.600003,-0.200001 q -1.999997,-0.1 -3.6,0.200001 -1.999998,0.4 -4.299999,1.999999 l -0.9,-0.1 q -0.999999,0 -1.599999,0.1 -1.2,0.3 -2.200001,0.800001 l 1.300001,-1.5 q 1.699998,-1.700001 3.399999,-2.8 2.4,-1.400001 4.500001,-1.400001 z M 51.3,37.566664 q 0.4,-1.3 1.35,-2.250001 0.95,-0.95 1.85,-0.95 1.7,0 2.8,2.7 1,2.300001 1,5.000001 0,2.7 -2.5,6.3 -1.6,2.5 -4.2,5 1.1,-1.700001 1.9,-3.600001 1.200001,-3.099999 1.200001,-5.599999 0,-2.500001 -1.300001,-3.9 -0.9,-1 -2.4,-1.5 z M 50,40.966663 h 0.6 q 0.7,0.3 1.1,1 0.7,1.000001 0.7,2.85 0,1.850001 -0.7,3.850001 -0.4,1.5 -1.1,2.899999 L 50,52.666664 49.4,51.566663 q -0.7,-1.399999 -1.1,-2.899999 -0.7,-2 -0.7,-3.850001 0,-1.849999 0.7,-2.85 0.4,-0.7 1.1,-1 z m -4.5,-6.6 q 0.9,0 1.85,0.95 0.95,0.950001 1.35,2.250001 l 0.3,1.299999 q -1.5,0.400001 -2.4,1.400001 -1.3,1.399999 -1.3,3.9 0,2.5 1.2,5.599999 0.8,1.8 1.9,3.600001 -2.6,-2.5 -4.3,-5 -2.4,-3.6 -2.4,-6.3 0,-2.7 1,-5.000001 1.1,-2.7 2.8,-2.7 z m -8.9,4.2 q 0.4,0.3 0.7,0.500001 0.8,0.699999 1.2,1.299999 0.5,0.9 0.8,1.9 0,1.000001 0.1,1.900001 -1.9,-1.5 -2.5,-3 -0.3,-0.6 -0.3,-1.700001 z m -6.1,3.3 q 2.1,0 4.5,1.400001 1.7,1.099999 3.4,2.8 l 1.3,1.5 q -1,-0.500001 -2.2,-0.800001 -0.6,-0.1 -1.6,-0.1 l -0.9,0.1 -1.4,-0.9 q -1.7,-0.9 -2.9,-1.099999 -1.6,-0.3 -3.6,-0.200001 l -1.6,0.200001 0.3,-0.800001 q 0.5,-0.8 1.5,-1.4 1.3,-0.7 3.2,-0.7 z M 17.7,53.366664 q 0.8,-1.500001 2.6,-1.9 l 1.2,1.9 q 0.3,0.399999 1,1.1 l 0.6,0.6 q -1.3,0.199999 -2.65,0.6 -1.35,0.4 -2.65,1.3 l -0.2,-0.6 q -0.3,-0.6 -0.3,-1.3 0,-0.9 0.4,-1.7 z m 1.6,10.6 q 0,0.5 0.1,1.100002 -2.9,-1.300003 -2.4,-3.900002 0.3,-1.6 2.4,-2.7 1.8,-1 4,-1.3 1.8,-0.2 3.5,0.199999 -7.6,2.800001 -7.6,6.600001 z m 9,-13.8 q -0.4,0.899999 -0.4,2.5 l 0.1,1.399999 -0.6,-0.199999 q -0.8,-0.2 -1.5,-0.5 -1,-0.500001 -1.7,-1.3 -1.7,-2.000001 -1.7,-3.7 0,-0.5 0.7,-1.2 0.9,-0.9 2.3,-1.1 2,-0.4 3.8,0.2 1,0.4 1.7,1.2 l -0.5,0.3 q -0.6,0.4 -1.2,0.9 -0.7,0.7 -1,1.5 z m 6.3,-1.600001 q 1.5,0 3.3,1.000001 1.3,0.6 2.6,1.699999 l 1.1,1 -2,-0.3 q -2.3,-0.199999 -3.8,-0.1 -2.2,0.200001 -4.3,1.100001 -0.2,-1.100001 0,-2.2 0.5,-2.200001 3.1,-2.200001 z m 7.8,6.7 q -0.6,0.3 -0.9,0.9 l -1,-0.199999 q -1.4,-0.2 -2.9,-0.3 -2.1,-0.100001 -4.2,0.1 0.8,-0.800001 2,-1.400001 1.8,-0.9 4.1,-0.9 2.9,0 4.1,1.2 -0.6,0.200001 -1.2,0.6 z m 10.4,3.3 q -1,0.700001 -2,2.000001 l -0.8,1.2 -0.8,-1.2 q -1,-1.3 -2,-2.000001 -1.4,-0.9 -2.9,-1.399999 l 0.5,-0.3 q 0.5,-0.400001 1.2,-0.400001 0.9,0 1.8,0.700001 1.3,1 2.2,3 l 0.6,-1.1 q 0.8,-1.3 1.65,-1.95 0.85,-0.650001 1.75,-0.650001 0.6,0 1.2,0.400001 l 0.5,0.3 q -1.599999,0.499999 -2.9,1.399999 z m 5.7,-2.4 q -0.3,-0.6 -0.9,-0.949999 -0.6,-0.35 -1.2,-0.550001 1.2,-1.2 4.1,-1.2 2.300001,0 4.100001,0.9 1.2,0.6 1.999998,1.400001 -2.1,-0.200001 -4.2,-0.1 -1.5,0.1 -2.899999,0.3 z m 10.000001,-3.199999 q -2.1,-0.9 -4.300002,-1.100001 -1.5,-0.1 -3.799999,0.1 l -2,0.3 1.1,-1 q 1.3,-1.099999 2.599999,-1.699999 1.8,-1.000001 3.3,-1.000001 1.8,0 2.600001,1.100001 0.6,0.9 0.6,2.199999 z m 3.199998,-2.8 q -0.3,-0.8 -0.999998,-1.5 -0.500002,-0.5 -1.2,-0.9 l -0.500002,-0.3 q 0.700003,-0.8 1.700002,-1.2 1.899998,-0.6 3.800001,-0.2 1.399997,0.2 2.299997,1.1 0.700003,0.7 0.700003,1.2 0,1.699999 -1.700001,3.7 -0.9,1.099999 -2.499999,1.6 -0.700003,0.3 -1.300003,0.399999 l 0.100003,-1.399999 q 0,-1.600001 -0.400003,-2.5 z m 8.900002,14.900002 q 0.1,-0.600002 0.1,-1.100002 0,-3.8 -7.599999,-6.600001 1.700001,-0.399999 3.500001,-0.199999 2.299998,0.3 3.999999,1.3 2.1,1.1 2.4,2.7 0.500001,2.599999 -2.400001,3.900002 z"
       id="path1"
       style="fill:#ffffff;fill-opacity:1;stroke-width:6;font-variation-settings:normal;opacity:1;vector-effect:none;stroke:#86a1c1;stroke-linecap:butt;stroke-linejoin:round;stroke-miterlimit:15;stroke-dasharray:none;stroke-dashoffset:0;stroke-opacity:1;-inkscape-stroke:none;paint-order:stroke markers fill;filter:url(#filter17);stop-color:#000000;stop-opacity:1" />
  </g>
</svg>
