<?xml version="1.0" encoding="UTF-8" standalone="no"?>
<!-- Created with Inkscape (http://www.inkscape.org/) -->

<svg
   width="100mm"
   height="100mm"
   viewBox="0 0 100 100"
   version="1.1"
   id="svg1"
   inkscape:version="1.3.2 (091e20ef0f, 2023-11-25, custom)"
   sodipodi:docname="062312.svg"
   inkscape:export-xdpi="16.256001"
   inkscape:export-ydpi="16.256001"
   xmlns:inkscape="http://www.inkscape.org/namespaces/inkscape"
   xmlns:sodipodi="http://sodipodi.sourceforge.net/DTD/sodipodi-0.dtd"
   xmlns="http://www.w3.org/2000/svg"
   xmlns:svg="http://www.w3.org/2000/svg">
  <sodipodi:namedview
     id="namedview1"
     pagecolor="#000000"
     bordercolor="#000000"
     borderopacity="0.25"
     inkscape:showpageshadow="2"
     inkscape:pageopacity="0.0"
     inkscape:pagecheckerboard="0"
     inkscape:deskcolor="#d1d1d1"
     inkscape:document-units="mm"
     showguides="true"
     inkscape:zoom="2.2621875"
     inkscape:cx="188.97638"
     inkscape:cy="188.97638"
     inkscape:window-width="1920"
     inkscape:window-height="1022"
     inkscape:window-x="0"
     inkscape:window-y="0"
     inkscape:window-maximized="1"
     inkscape:current-layer="layer1">
    <sodipodi:guide
       position="0,99.999999"
       orientation="0,377.95276"
       id="guide4"
       inkscape:locked="false" />
    <sodipodi:guide
       position="99.999999,99.999999"
       orientation="377.95276,0"
       id="guide5"
       inkscape:locked="false" />
    <sodipodi:guide
       position="99.999999,0"
       orientation="0,-377.95276"
       id="guide6"
       inkscape:locked="false" />
    <sodipodi:guide
       position="0,0"
       orientation="-377.95276,0"
       id="guide7"
       inkscape:locked="false" />
    <sodipodi:guide
       position="0,0"
       orientation="0.70710678,-0.70710678"
       id="guide8"
       inkscape:locked="false" />
    <sodipodi:guide
       position="0,99.999999"
       orientation="0.70710678,0.70710678"
       id="guide9"
       inkscape:locked="false"
       inkscape:label=""
       inkscape:color="rgb(0,134,229)" />
    <sodipodi:guide
       position="0,87.499999"
       orientation="0,1"
       id="guide10"
       inkscape:locked="false"
       inkscape:label=""
       inkscape:color="rgb(0,134,229)" />
    <sodipodi:guide
       position="0,12.5"
       orientation="0,1"
       id="guide11"
       inkscape:locked="false"
       inkscape:label=""
       inkscape:color="rgb(0,134,229)" />
    <sodipodi:guide
       position="12.5,99.999999"
       orientation="-1,0"
       id="guide12"
       inkscape:locked="false"
       inkscape:label=""
       inkscape:color="rgb(0,134,229)" />
    <sodipodi:guide
       position="87.499999,99.999999"
       orientation="-1,0"
       id="guide13"
       inkscape:locked="false"
       inkscape:label=""
       inkscape:color="rgb(0,134,229)" />
  </sodipodi:namedview>
  <defs
     id="defs1">
    <filter
       style="color-interpolation-filters:sRGB"
       inkscape:label="Drop Shadow"
       id="filter17"
       x="-0.35275821"
       y="-0.27972887"
       width="1.7053416"
       height="1.5597622">
      <feFlood
         result="flood"
         in="SourceGraphic"
         flood-opacity="0.75"
         flood-color="rgb(134,161,193)"
         id="feFlood16" />
      <feGaussianBlur
         result="blur"
         stdDeviation="7.500000"
         id="feGaussianBlur16"
         in="SourceGraphic" />
      <feOffset
         result="offset"
         in="blur"
         dx="0.000000"
         dy="0.000000"
         id="feOffset16" />
      <feComposite
         result="comp1"
         operator="in"
         in="flood"
         in2="offset"
         id="feComposite16" />
      <feComposite
         result="comp2"
         operator="over"
         in="SourceGraphic"
         in2="comp1"
         id="feComposite17" />
    </filter>
  </defs>
  <g
     inkscape:label="Layer 1"
     inkscape:groupmode="layer"
     id="layer1">
    <path
       d="m 79.585582,70.585385 q -0.399672,-0.399668 -2.49794,-1.398846 -3.197359,-1.698594 -4.895958,-3.097439 -0.499589,-0.399671 -0.599505,-0.799341 -0.09992,-0.39967 -0.09992,-0.999175 v -0.299753 q 0,-0.699422 -0.999178,-0.699422 H 68.09506 q -0.299753,0 -0.449628,-0.299754 -0.149878,-0.299751 0,-0.399668 0.149875,-0.09992 0.549547,-0.299753 l 0.09992,-0.09992 q 0.89926,-0.39967 1.598681,-0.999176 0.699425,-0.599504 0.699425,-0.899257 0,-0.09992 -0.299753,-0.39967 L 69.9935,59.694378 q -0.899258,-0.799341 -1.498765,-1.798515 -0.09992,-0.299753 -0.149878,-1.448805 -0.04996,-1.149052 0.149878,-1.898432 0.199832,-0.749382 1.099093,-2.248145 0.499588,-0.79934 0.599504,-4.995876 v -0.399671 q 0,-0.499587 0.249796,-0.849299 0.249793,-0.349711 0.699424,-0.349711 0.449627,0 0.649463,0.499588 l 0.09992,0.39967 0.299753,4.496288 q 0,0.599506 0.09992,1.199011 0.09992,0.199835 1.199011,0.899258 2.198187,1.199011 4.296456,2.597855 0.299753,0.199836 0.549547,0.09992 0.24979,-0.09992 0.04996,-0.299753 -1.498762,-2.39802 -1.698599,-3.59703 -0.09992,-0.999176 0.09992,-4.696124 l 0.199837,-3.597031 q 0.199836,-4.796042 -1.19901,-9.29233 -1.498763,-4.995877 -4.796042,-9.392247 -3.097443,-3.996702 -8.393074,-6.794392 -4.79604,-2.597856 -9.691999,-3.097443 -1.898433,-0.199836 -4.995876,-0.39967 -3.497114,-0.199836 -5.595382,-0.599505 -1.398843,-0.199836 -3.097441,-1.099093 l -0.699423,-0.39967 q -0.299753,-0.199835 -0.499588,-0.09992 -0.199835,0.09992 -0.09992,0.39967 l 0.299753,0.79934 q 1.498763,3.896784 1.59868,5.395547 0,0.299752 0.299753,0.449628 0.299753,0.149877 0.849299,0.04996 0.549547,-0.09992 1.64864,0 1.099092,0.09992 1.498763,0.199835 0.399669,0.09992 0.699422,0.699423 0.299753,0.599504 0,0.599504 l -0.199835,0.09992 q -2.298103,0.199836 -3.696948,0.799342 -1.698598,0.699422 -3.696948,2.098268 -2.697774,1.898432 -4.596207,4.196535 -1.099092,1.398846 -1.99835,3.597031 -0.599506,1.298928 -1.398846,3.996701 -0.999175,3.297279 -1.698598,4.346413 -0.699422,1.049133 -2.597855,3.047484 l -0.299752,0.399672 q -0.199836,0.299753 -0.199836,0.449629 0,0.149877 0.299753,0.149877 h 0.79934 q 13.988454,0.09992 14.288205,0.04996 0.299753,-0.04996 0.299753,-0.749381 0,-0.699423 0.399671,-0.899258 4.895959,-2.797691 7.993401,-4.696124 1.099094,-0.699423 1.64864,-0.849299 0.549546,-0.149876 1.248969,-0.149876 2.298103,0 3.996701,1.099093 1.099092,0.699423 1.548721,1.698598 0.449629,0.999176 0.349712,1.99835 0,0.499588 -0.149877,0.499588 -0.149876,0 -0.349711,-0.699423 -0.199835,-1.099093 -1.19901,-1.898433 -0.699423,-0.599504 -1.498763,-0.899257 -1.099092,-0.599506 -2.897608,-0.499588 -0.699423,0.09992 -2.497939,1.298928 -5.295628,3.497113 -6.04501,3.996701 -0.749381,0.499588 -0.849299,1.398846 -0.09992,0.399669 -0.199835,0.599504 -0.199834,0.599505 -0.649464,0.899258 -0.449628,0.299753 -0.949216,0.299753 H 25.130529 q -0.299753,0 -0.349711,0.249793 -0.04996,0.249794 -0.04996,0.849299 v 0.899258 q -0.09992,0.999175 -0.399671,1.898433 -0.199834,0.599505 -0.79934,1.798515 l -0.999175,1.998351 q -0.699424,1.598681 -1.798516,2.897609 -0.499588,0.699423 -0.499588,0.949216 0,0.249795 0.79934,0.749382 l 0.899258,0.699422 q 0.39967,0.299753 1.298927,1.199011 1.598681,1.598681 2.597856,2.348062 0.999176,0.749381 2.947567,1.948391 1.948392,1.199011 2.398021,1.64864 0.449628,0.449627 0.549546,0.949215 l 0.09992,0.399669 q 0.09992,0.399673 0.599505,0.09992 0.899257,-0.599505 3.796866,-2.797692 0.39967,-0.299753 0.549546,-0.149876 0.149876,0.149876 -0.149876,0.549546 l -0.399672,0.399672 q -2.098268,2.098268 -2.497939,2.597855 -0.399669,0.499585 -0.09992,1.498763 0.899258,1.698595 2.148227,3.447153 1.248969,1.748556 2.048309,2.348061 0.599506,0.399669 1.398846,0.299754 l 5.295628,-2.697774 q 5.395546,-2.797689 5.695299,-2.997525 0.299753,-0.199837 0.549547,-0.149875 0.249794,0.04996 0.04996,0.24979 -0.199835,0.199837 -6.594556,4.396373 -5.995052,3.896784 -6.144928,4.046662 -0.149876,0.149874 -0.149876,0.949216 0,1.798515 -0.499588,2.897606 -0.499588,1.099093 -1.798516,2.398021 -0.999175,0.899256 -1.398845,1.099093 -0.39967,0.199837 -0.299753,0.499589 v 0.09992 q 0.09992,0.299753 3.19736,-0.09992 2.298104,-0.199836 4.945918,-0.649463 2.647815,-0.449631 5.64534,-1.548725 4.196537,-1.498763 6.294805,-3.397195 3.497113,-3.197362 6.994226,-5.795215 4.895959,-3.896784 7.094143,-4.596209 2.897611,-0.899258 6.094973,-0.799337 2.497937,0.09991 4.895958,0.899257 0.399669,0.09992 0.599505,-0.149878 0.199837,-0.249795 -0.09992,-0.649464 z m -44.463301,-6.494636 -0.899258,0.699423 q -0.39967,0.299752 -0.999175,-0.09992 l -3.796865,-2.597855 -4.196536,-2.797692 q -0.199836,-0.09992 -0.149877,-0.249793 0.04996,-0.149877 0.349712,-0.249794 l 1.798515,-0.299752 q 0.599505,-0.09992 1.099093,0.199835 l 6.594556,4.79604 q 0.499588,0.399671 0.09992,0.599506 z m 2.997525,-2.098268 -0.699422,0.499587 q -0.499588,0.299753 -0.79934,0.09992 L 33.823353,60.193966 30.72591,57.99578 q -0.199834,-0.09992 -0.09992,-0.09992 l 0.199835,-0.09992 1.398844,-0.299753 q 0.499588,-0.09992 0.899259,0.299753 l 4.79604,3.696948 q 0.299753,0.199835 0.299753,0.249794 0,0.04996 -0.199835,0.249794 z m 2.997527,-2.198186 -0.599505,0.499588 q -0.399671,0.199835 -0.799341,-0.09992 l -4.196535,-3.097444 q -0.499588,-0.39967 0.09992,-0.499587 L 36.521126,56.3971 q 0.599505,-0.09992 0.999176,0.199835 l 3.397196,2.597855 q 0.499588,0.399671 0.199835,0.599505 z m 2.697773,-2.098268 -0.499588,0.399671 q -0.499588,0.39967 -0.79934,0.09992 l -2.697774,-1.99835 q -0.199834,-0.199835 -0.149876,-0.349712 0.04996,-0.149876 0.249795,-0.149876 l 1.19901,-0.299752 q 0.499587,-0.09992 0.999175,0.399669 l 1.59868,1.19901 q 0.499588,0.399671 0.09992,0.699423 z m -2.39802,24.779545 q -0.899258,0 -0.899258,-1.19901 0,-0.399673 0.299752,-0.749383 0.299753,-0.349711 0.749382,-0.349711 0.449628,0 0.599505,0.299752 0.149876,0.299754 0.149876,0.799342 v 0.09992 q 0.09992,0.499588 -0.199835,0.799341 -0.299753,0.299752 -0.699422,0.299752 z m 9.492164,-5.895134 q -0.499588,0.09991 -0.699423,0.499589 -0.199835,0.399668 0,0.749379 0.199835,0.34971 0.09992,0.499589 -0.09992,0.149874 -0.299753,-0.04996 -0.499588,-0.299752 -0.549546,-0.749383 -0.04996,-0.449627 0,-0.8493 0.04996,-0.399669 0.39967,-0.649463 0.349711,-0.249794 0.749382,-0.349711 0.79934,0 0.79934,0.349711 0,0.349711 -0.04996,0.449631 -0.04996,0.09992 -0.249793,0.09992 z m 2.597857,-32.373276 q -0.599506,-0.899258 -1.498764,-1.199011 -0.899257,-0.299753 -1.698598,0.249794 -0.799341,0.549547 -0.899258,1.548722 -0.09992,0.999175 0.699422,1.99835 0.299753,0.199835 -0.399669,0.09992 -0.699423,-0.09992 -0.999176,-0.499587 -0.699423,-0.699423 -0.599505,-2.04831 0.09992,-1.348886 1.099093,-2.098267 0.999175,-0.749382 2.148226,-0.649464 1.149053,0.09992 1.948393,1.099092 0.299753,0.39967 0.39967,0.8493 0.09992,0.449629 0.04996,0.649464 -0.04996,0.199835 -0.249792,0 z m 6.894308,27.177565 q -0.399671,0.09992 -0.599505,0.599505 -0.09992,0.09992 0,0.599505 v 0.39967 q 0,0.299752 -0.149877,0.399669 -0.149876,0.09992 -0.349711,0 -0.599505,-0.399669 -0.39967,-1.348885 0.199835,-0.949216 1.099092,-1.049137 0.299753,0 0.549548,0.149879 0.249793,0.149874 -0.149877,0.249794 z"
       id="path1"
       style="fill:#ffffff;fill-opacity:1;stroke-width:6;font-variation-settings:normal;opacity:1;vector-effect:none;stroke:#86a1c1;stroke-linecap:butt;stroke-linejoin:round;stroke-miterlimit:15;stroke-dasharray:none;stroke-dashoffset:0;stroke-opacity:1;-inkscape-stroke:none;paint-order:stroke markers fill;filter:url(#filter17);stop-color:#000000;stop-opacity:1" />
  </g>
</svg>
