<?xml version="1.0" encoding="UTF-8" standalone="no"?>
<!-- Created with Inkscape (http://www.inkscape.org/) -->

<svg
   width="100mm"
   height="100mm"
   viewBox="0 0 100 100"
   version="1.1"
   id="svg1"
   inkscape:version="1.3.2 (091e20ef0f, 2023-11-25, custom)"
   sodipodi:docname="062317.svg"
   inkscape:export-xdpi="16.256001"
   inkscape:export-ydpi="16.256001"
   xmlns:inkscape="http://www.inkscape.org/namespaces/inkscape"
   xmlns:sodipodi="http://sodipodi.sourceforge.net/DTD/sodipodi-0.dtd"
   xmlns="http://www.w3.org/2000/svg"
   xmlns:svg="http://www.w3.org/2000/svg">
  <sodipodi:namedview
     id="namedview1"
     pagecolor="#000000"
     bordercolor="#000000"
     borderopacity="0.25"
     inkscape:showpageshadow="2"
     inkscape:pageopacity="0.0"
     inkscape:pagecheckerboard="0"
     inkscape:deskcolor="#d1d1d1"
     inkscape:document-units="mm"
     showguides="true"
     inkscape:zoom="2.2621875"
     inkscape:cx="188.97638"
     inkscape:cy="188.97638"
     inkscape:window-width="1920"
     inkscape:window-height="1022"
     inkscape:window-x="0"
     inkscape:window-y="0"
     inkscape:window-maximized="1"
     inkscape:current-layer="layer1">
    <sodipodi:guide
       position="0,99.999999"
       orientation="0,377.95276"
       id="guide4"
       inkscape:locked="false" />
    <sodipodi:guide
       position="99.999999,99.999999"
       orientation="377.95276,0"
       id="guide5"
       inkscape:locked="false" />
    <sodipodi:guide
       position="99.999999,0"
       orientation="0,-377.95276"
       id="guide6"
       inkscape:locked="false" />
    <sodipodi:guide
       position="0,0"
       orientation="-377.95276,0"
       id="guide7"
       inkscape:locked="false" />
    <sodipodi:guide
       position="0,0"
       orientation="0.70710678,-0.70710678"
       id="guide8"
       inkscape:locked="false" />
    <sodipodi:guide
       position="0,99.999999"
       orientation="0.70710678,0.70710678"
       id="guide9"
       inkscape:locked="false"
       inkscape:label=""
       inkscape:color="rgb(0,134,229)" />
    <sodipodi:guide
       position="0,87.499999"
       orientation="0,1"
       id="guide10"
       inkscape:locked="false"
       inkscape:label=""
       inkscape:color="rgb(0,134,229)" />
    <sodipodi:guide
       position="0,12.5"
       orientation="0,1"
       id="guide11"
       inkscape:locked="false"
       inkscape:label=""
       inkscape:color="rgb(0,134,229)" />
    <sodipodi:guide
       position="12.5,99.999999"
       orientation="-1,0"
       id="guide12"
       inkscape:locked="false"
       inkscape:label=""
       inkscape:color="rgb(0,134,229)" />
    <sodipodi:guide
       position="87.499999,99.999999"
       orientation="-1,0"
       id="guide13"
       inkscape:locked="false"
       inkscape:label=""
       inkscape:color="rgb(0,134,229)" />
  </sodipodi:namedview>
  <defs
     id="defs1">
    <filter
       style="color-interpolation-filters:sRGB"
       inkscape:label="Drop Shadow"
       id="filter17"
       x="-0.27970262"
       y="-0.50707247"
       width="1.5594088"
       height="2.0141449">
      <feFlood
         result="flood"
         in="SourceGraphic"
         flood-opacity="0.75"
         flood-color="rgb(134,161,193)"
         id="feFlood16" />
      <feGaussianBlur
         result="blur"
         stdDeviation="7.500000"
         id="feGaussianBlur16"
         in="SourceGraphic" />
      <feOffset
         result="offset"
         in="blur"
         dx="0.000000"
         dy="0.000000"
         id="feOffset16" />
      <feComposite
         result="comp1"
         operator="in"
         in="flood"
         in2="offset"
         id="feComposite16" />
      <feComposite
         result="comp2"
         operator="over"
         in="SourceGraphic"
         in2="comp1"
         id="feComposite17" />
    </filter>
  </defs>
  <g
     inkscape:label="Layer 1"
     inkscape:groupmode="layer"
     id="layer1">
    <path
       d="m 84.52469,60.57464 q 1.800617,-2.000686 2.50086,-4.601578 0.600205,-2.300788 0.500169,-5.501886 -0.100034,-3.101063 -1.800618,-6.702298 -2.000683,-4.20144 -5.501885,-6.902366 -4.20144,-3.201097 -9.703325,-3.301131 -3.5012,0 -6.702297,2.80096 -1.100378,1.000343 -2.400823,2.80096 -1.800618,2.500857 -2.500858,4.501543 -0.800274,2.700926 0.600206,4.301475 0.600205,0.600206 1.700583,0.400137 1.100377,-0.200068 1.650566,-0.850291 0.550188,-0.650224 0.600206,-0.300103 0.05002,0.35012 -0.300103,0.900308 -0.350121,0.550189 -1.000343,1.000343 -0.650223,0.450154 -1.650566,0.750257 -1.300446,0.300103 -2.300789,-0.100034 -1.300446,-0.500171 -1.900652,-2.10072 -0.400137,-1.100377 0,-2.951012 0.400138,-1.850634 1.600549,-3.551217 1.600549,-2.300789 4.601578,-4.901681 0.400137,-0.300103 0.400137,-0.750257 0,-0.450154 -0.200069,-0.850291 -1.500514,-2.10072 -4.501543,-3.701269 -3.901338,-2.200755 -8.702984,-2.200755 -8.002743,0 -15.005144,8.402881 l -0.200069,0.300103 q -0.900308,0.900308 -1.800617,2.600892 -1.100377,2.10072 -1.500514,3.801303 -0.400138,2.200754 0.500171,3.351149 0.900309,1.150394 2.200755,0.950326 0.800274,-0.200069 1.40048,-0.700241 0.70024,-0.600206 0.70024,-0.400137 0.100034,0.900309 -1.500515,2.200755 -0.500171,0.400137 -1.500514,0.600205 -1.200412,0.200069 -2.200755,-0.100034 -1.200411,-0.500171 -1.7506,-1.800617 -0.550188,-1.300446 -0.200068,-3.301132 0.35012,-2.000686 1.350463,-3.801303 0.800274,-1.40048 4.001371,-4.701612 L 34.407511,35.6661 q 0.500171,-0.500171 0.400137,-1.200411 -0.100034,-0.70024 -0.800275,-1.000343 -1.100377,-0.500171 -2.400823,-0.600206 -1.000343,-0.100034 -2.000685,0.100035 l -2.400823,0.500171 q -1.900652,0.500172 -3.701269,1.40048 -2.600892,1.100377 -4.601578,2.80096 -2.600892,2.000687 -4.101406,4.701613 -1.900651,3.201097 -2.300789,7.202468 -0.200068,2.300789 0.600206,5.001715 0.800274,3.001029 2.600892,5.10175 3.601234,4.301474 11.103806,5.501886 h 0.300103 l 0.500172,0.300103 q 7.70264,4.701612 19.156567,4.701612 11.453927,0 19.056533,-3.201098 L 66.118382,66.8768 q 0.100033,0 1.100378,-0.100034 5.401851,-0.200068 9.003086,-1.300445 3.401164,-1.000344 5.801987,-2.800961 l 0.800276,-0.70024 q 1.200412,-0.900309 1.700581,-1.40048 z"
       id="path1"
       style="fill:#ffffff;fill-opacity:1;stroke-width:6;font-variation-settings:normal;opacity:1;vector-effect:none;stroke:#86a1c1;stroke-linecap:butt;stroke-linejoin:round;stroke-miterlimit:15;stroke-dasharray:none;stroke-dashoffset:0;stroke-opacity:1;-inkscape-stroke:none;paint-order:stroke markers fill;filter:url(#filter17);stop-color:#000000;stop-opacity:1" />
  </g>
</svg>
