<?xml version="1.0" encoding="UTF-8" standalone="no"?>
<!-- Created with Inkscape (http://www.inkscape.org/) -->

<svg
   width="100mm"
   height="100mm"
   viewBox="0 0 100 100"
   version="1.1"
   id="svg1"
   inkscape:version="1.3.2 (091e20ef0f, 2023-11-25, custom)"
   sodipodi:docname="062315.svg"
   inkscape:export-xdpi="16.256001"
   inkscape:export-ydpi="16.256001"
   xmlns:inkscape="http://www.inkscape.org/namespaces/inkscape"
   xmlns:sodipodi="http://sodipodi.sourceforge.net/DTD/sodipodi-0.dtd"
   xmlns="http://www.w3.org/2000/svg"
   xmlns:svg="http://www.w3.org/2000/svg">
  <sodipodi:namedview
     id="namedview1"
     pagecolor="#000000"
     bordercolor="#000000"
     borderopacity="0.25"
     inkscape:showpageshadow="2"
     inkscape:pageopacity="0.0"
     inkscape:pagecheckerboard="0"
     inkscape:deskcolor="#d1d1d1"
     inkscape:document-units="mm"
     showguides="true"
     inkscape:zoom="2.2621875"
     inkscape:cx="188.97638"
     inkscape:cy="188.97638"
     inkscape:window-width="1920"
     inkscape:window-height="1022"
     inkscape:window-x="0"
     inkscape:window-y="0"
     inkscape:window-maximized="1"
     inkscape:current-layer="layer1">
    <sodipodi:guide
       position="0,99.999999"
       orientation="0,377.95276"
       id="guide4"
       inkscape:locked="false" />
    <sodipodi:guide
       position="99.999999,99.999999"
       orientation="377.95276,0"
       id="guide5"
       inkscape:locked="false" />
    <sodipodi:guide
       position="99.999999,0"
       orientation="0,-377.95276"
       id="guide6"
       inkscape:locked="false" />
    <sodipodi:guide
       position="0,0"
       orientation="-377.95276,0"
       id="guide7"
       inkscape:locked="false" />
    <sodipodi:guide
       position="0,0"
       orientation="0.70710678,-0.70710678"
       id="guide8"
       inkscape:locked="false" />
    <sodipodi:guide
       position="0,99.999999"
       orientation="0.70710678,0.70710678"
       id="guide9"
       inkscape:locked="false"
       inkscape:label=""
       inkscape:color="rgb(0,134,229)" />
    <sodipodi:guide
       position="0,87.499999"
       orientation="0,1"
       id="guide10"
       inkscape:locked="false"
       inkscape:label=""
       inkscape:color="rgb(0,134,229)" />
    <sodipodi:guide
       position="0,12.5"
       orientation="0,1"
       id="guide11"
       inkscape:locked="false"
       inkscape:label=""
       inkscape:color="rgb(0,134,229)" />
    <sodipodi:guide
       position="12.5,99.999999"
       orientation="-1,0"
       id="guide12"
       inkscape:locked="false"
       inkscape:label=""
       inkscape:color="rgb(0,134,229)" />
    <sodipodi:guide
       position="87.499999,99.999999"
       orientation="-1,0"
       id="guide13"
       inkscape:locked="false"
       inkscape:label=""
       inkscape:color="rgb(0,134,229)" />
  </sodipodi:namedview>
  <defs
     id="defs1">
    <filter
       style="color-interpolation-filters:sRGB"
       inkscape:label="Drop Shadow"
       id="filter17"
       x="-0.26526234"
       y="-0.28268437"
       width="1.5306195"
       height="1.5653687">
      <feFlood
         result="flood"
         in="SourceGraphic"
         flood-opacity="0.75"
         flood-color="rgb(134,161,193)"
         id="feFlood16" />
      <feGaussianBlur
         result="blur"
         stdDeviation="7.500000"
         id="feGaussianBlur16"
         in="SourceGraphic" />
      <feOffset
         result="offset"
         in="blur"
         dx="0.000000"
         dy="0.000000"
         id="feOffset16" />
      <feComposite
         result="comp1"
         operator="in"
         in="flood"
         in2="offset"
         id="feComposite16" />
      <feComposite
         result="comp2"
         operator="over"
         in="SourceGraphic"
         in2="comp1"
         id="feComposite17" />
    </filter>
  </defs>
  <g
     inkscape:label="Layer 1"
     inkscape:groupmode="layer"
     id="layer1">
    <path
       d="m 86.984663,85.772102 q -0.105517,-0.316568 -3.904328,-4.431943 l -3.693287,-4.00985 v -1.160748 q 0,-1.160749 -0.105518,-1.688358 -0.105528,-0.527613 -0.73866,-1.477316 -1.055223,-1.37179 -1.055223,-2.215971 0,-0.844181 0.844181,-1.688356 l 0.844177,-0.73866 -1.055223,-0.949701 q -1.160749,-1.055223 -1.952165,-1.055223 -0.79142,0 -1.107987,0.263806 -0.316568,0.263806 -0.58037,0.685896 -0.263807,0.422088 -0.527614,0.580373 -0.263806,0.158282 -0.79142,0.158282 -0.52761,0 -0.791417,-0.369328 -0.263806,-0.369327 -0.105517,-0.738656 0.158281,-0.369328 0.685895,-0.949701 0.527609,-0.580375 0.791416,-1.002464 0.263806,-0.422089 0.369328,-1.107985 0.105528,-0.685897 0.158286,-2.321494 0.05276,-1.635598 -0.474853,-4.062614 -0.422089,-1.477314 -0.738656,-2.427015 -0.211046,-0.738657 -1.26627,-0.633136 -0.316567,0 -1.793882,1.26627 -1.160745,1.160746 -1.477312,1.31903 -0.316567,0.158284 -0.580373,-0.05276 -0.263808,-0.211045 -0.263808,-0.633134 0,-0.422091 2.004925,-2.638062 1.160749,-1.160746 1.266269,-1.477314 0.527614,-0.844179 0.369332,-1.688358 -0.158285,-0.84418 -1.688361,-3.535002 -1.530076,-2.690823 -2.374255,-3.376718 -0.84418,-0.685896 -1.793882,-0.158284 -0.316568,0.211045 -4.431943,4.115375 -4.537463,4.32642 -4.85403,4.484704 -0.316568,0.158283 -0.422093,0.05276 -0.105518,-0.105517 -0.05276,-0.369328 0.05276,-0.263806 3.851569,-4.695748 3.693287,-4.009853 4.115375,-4.74851 0.844181,-1.160747 0.263807,-2.321493 -0.580374,-1.160747 -2.532539,-3.060151 -1.952164,-1.899404 -3.165673,-2.321494 -1.213509,-0.422089 -1.846644,0 -0.211041,0.211045 -6.120299,5.909256 l -4.326419,4.115376 q -0.105529,0.105528 -0.211046,0 -0.105518,-0.105518 -0.05276,-0.369329 0.05276,-0.263805 4.062614,-5.012316 4.009852,-4.74851 4.642987,-5.803734 0.527613,-0.738657 0.105518,-1.424553 -0.422089,-0.685895 -2.374253,-2.057687 -1.952165,-1.371792 -2.796345,-1.582837 -1.371791,-0.316567 -2.110448,0.105528 -0.316568,0.105528 -2.532539,2.374255 -2.215972,2.268733 -2.479777,2.321493 -0.263807,0.05276 -0.474851,-0.211044 -0.211046,-0.263807 -0.05276,-0.685896 0.158284,-0.42209 2.796345,-3.693285 l 0.105528,-0.211046 q 0.422089,-0.422089 0.316567,-1.107986 -0.105528,-0.685895 -0.527612,-1.002462 -1.160747,-0.738657 -4.379181,-1.002464 -3.218435,-0.263805 -4.168136,0.158284 -0.42209,0.105528 -1.793882,1.371792 -1.160746,0.949702 -1.266269,0.949702 -1.160747,0.422089 -0.84418,-0.949702 0,-0.316567 0.633135,-0.84418 1.055225,-0.949701 1.107986,-1.74112 0.05276,-0.791418 -1.002464,-2.163209 -0.422089,-0.738657 -1.055224,-1.26627 l -0.738657,0.844179 q -0.949702,0.84418 -1.688359,0.949703 -0.738657,0.105518 -2.215971,-1.055225 -0.949702,-0.738657 -1.371792,-0.738657 -0.949702,-0.211044 -2.849106,-0.105517 l -4.009852,-3.693285 q -4.115376,-3.798808 -4.484704,-3.957092 -0.369329,-0.158284 -0.791418,-0.158284 -0.42209,0 -0.633135,0.211046 -0.211045,0.211044 0.211045,1.160747 0.105528,0.422089 3.90433,4.431941 l 3.693285,4.115376 v 1.055224 q 0,1.160747 0.105528,1.688359 0.105518,0.527612 0.844179,1.477314 1.055225,1.477314 1.002464,2.215971 -0.05276,0.738657 -0.896941,1.688359 -0.42209,0.42209 -0.84418,0.738658 l 1.371792,1.160746 q 1.477314,1.160747 2.215971,1.160747 0.316568,-0.105518 0.791418,0.158283 0.474852,0.263807 0.685896,0.685897 0.211045,0.422089 -0.422089,1.793881 -0.633135,1.371791 -0.633135,1.899404 0,0.844179 0.791419,3.746046 0.791418,2.901868 1.107985,3.271196 0.316568,0.369329 1.055225,0.263807 0.738657,-0.105528 1.002462,0.158282 0.263807,0.263807 -0.263805,1.319031 -0.422091,0.844179 -0.422091,1.266269 -0.105517,1.477315 2.743585,5.698212 3.165672,4.74851 7.492093,8.969407 4.326419,4.220896 8.547317,6.647913 3.271195,1.793882 4.959554,1.793882 1.160748,0 2.321492,-1.055227 0.316567,-0.316568 0.474853,-0.263804 0.158282,0.05276 0.05276,0.896938 -0.105517,0.844181 0,1.055228 0.527615,0.738655 1.582837,1.266269 1.688358,0.844177 4.431943,1.055222 3.798808,0.211047 4.74851,-0.527613 0.211045,-0.105518 0.316567,-0.105518 0.633134,0.211046 0.685895,0.580375 0.05276,0.369327 -0.05276,1.002461 l -0.105517,0.422089 q -0.105528,0.73866 0.949702,2.11045 l 1.160745,1.160748 0.73866,-0.844181 q 0.949702,-0.84418 1.688358,-0.949701 0.738656,-0.105518 2.215971,1.055222 0.949701,0.73866 1.37179,0.844181 0.949702,0.105518 2.849106,0 l 4.009854,3.798808 q 4.115375,3.693287 4.484703,3.851569 0.369328,0.158286 0.79142,0.158286 0.422089,0 0.633134,-0.211047 0.211043,-0.211046 -0.211045,-1.160748 z M 56.066586,75.536426 q -0.422088,0.105517 -1.688357,0.949702 -2.743584,1.688358 -4.74851,2.427017 -3.376718,1.477312 -6.753436,1.582837 -7.070003,0.211043 -10.974334,-7.070006 -0.844179,-1.688358 -3.271195,-8.336269 l -1.371792,-3.693285 q -1.477314,-3.904331 -3.693285,-6.331346 -2.638061,-2.95463 -6.225824,-3.376719 -2.954628,-0.316568 -5.276122,0.84418 -1.793882,0.844179 -2.9546281,2.63806 -0.9497028,1.477314 -1.0552246,2.796345 -0.1055176,1.319031 0.3165676,1.846643 0.4220894,0.527611 0.8441798,0.527611 0.8441793,0 1.0552233,-0.738656 0.633136,-2.004926 2.004927,-3.376718 1.899404,-1.899403 4.854032,-1.477314 3.48224,0.422089 5.909257,4.642987 1.477314,2.427016 3.48224,8.441796 1.582836,4.431941 2.427016,6.120299 3.060151,6.014779 7.386571,8.23075 3.376717,1.793882 7.80866,1.37179 8.125226,-0.844177 15.089707,-6.331347 0.211047,-0.105517 0.316567,-0.422088 0.105529,-0.316567 0,-0.422089 -0.211042,-0.527613 -1.530071,-0.84418 -1.319035,-0.316567 -1.952169,0 z"
       id="path1"
       style="fill:#ffffff;fill-opacity:1;stroke-width:6;font-variation-settings:normal;opacity:1;vector-effect:none;stroke:#86a1c1;stroke-linecap:butt;stroke-linejoin:round;stroke-miterlimit:15;stroke-dasharray:none;stroke-dashoffset:0;stroke-opacity:1;-inkscape-stroke:none;paint-order:stroke markers fill;filter:url(#filter17);stop-color:#000000;stop-opacity:1" />
  </g>
</svg>
