<?xml version="1.0" encoding="UTF-8" standalone="no"?>
<!-- Created with Inkscape (http://www.inkscape.org/) -->

<svg
   width="100mm"
   height="100mm"
   viewBox="0 0 100 100"
   version="1.1"
   id="svg1"
   inkscape:version="1.3.2 (091e20ef0f, 2023-11-25, custom)"
   sodipodi:docname="062303.svg"
   inkscape:export-xdpi="16.256001"
   inkscape:export-ydpi="16.256001"
   xmlns:inkscape="http://www.inkscape.org/namespaces/inkscape"
   xmlns:sodipodi="http://sodipodi.sourceforge.net/DTD/sodipodi-0.dtd"
   xmlns="http://www.w3.org/2000/svg"
   xmlns:svg="http://www.w3.org/2000/svg">
  <sodipodi:namedview
     id="namedview1"
     pagecolor="#000000"
     bordercolor="#000000"
     borderopacity="0.25"
     inkscape:showpageshadow="2"
     inkscape:pageopacity="0.0"
     inkscape:pagecheckerboard="0"
     inkscape:deskcolor="#d1d1d1"
     inkscape:document-units="mm"
     showguides="true"
     inkscape:zoom="2.2621875"
     inkscape:cx="188.97638"
     inkscape:cy="188.97638"
     inkscape:window-width="1920"
     inkscape:window-height="1022"
     inkscape:window-x="0"
     inkscape:window-y="0"
     inkscape:window-maximized="1"
     inkscape:current-layer="layer1">
    <sodipodi:guide
       position="0,99.999999"
       orientation="0,377.95276"
       id="guide4"
       inkscape:locked="false" />
    <sodipodi:guide
       position="99.999999,99.999999"
       orientation="377.95276,0"
       id="guide5"
       inkscape:locked="false" />
    <sodipodi:guide
       position="99.999999,0"
       orientation="0,-377.95276"
       id="guide6"
       inkscape:locked="false" />
    <sodipodi:guide
       position="0,0"
       orientation="-377.95276,0"
       id="guide7"
       inkscape:locked="false" />
    <sodipodi:guide
       position="0,0"
       orientation="0.70710678,-0.70710678"
       id="guide8"
       inkscape:locked="false" />
    <sodipodi:guide
       position="0,99.999999"
       orientation="0.70710678,0.70710678"
       id="guide9"
       inkscape:locked="false"
       inkscape:label=""
       inkscape:color="rgb(0,134,229)" />
    <sodipodi:guide
       position="0,87.499999"
       orientation="0,1"
       id="guide10"
       inkscape:locked="false"
       inkscape:label=""
       inkscape:color="rgb(0,134,229)" />
    <sodipodi:guide
       position="0,12.5"
       orientation="0,1"
       id="guide11"
       inkscape:locked="false"
       inkscape:label=""
       inkscape:color="rgb(0,134,229)" />
    <sodipodi:guide
       position="12.5,99.999999"
       orientation="-1,0"
       id="guide12"
       inkscape:locked="false"
       inkscape:label=""
       inkscape:color="rgb(0,134,229)" />
    <sodipodi:guide
       position="87.499999,99.999999"
       orientation="-1,0"
       id="guide13"
       inkscape:locked="false"
       inkscape:label=""
       inkscape:color="rgb(0,134,229)" />
  </sodipodi:namedview>
  <defs
     id="defs1">
    <filter
       style="color-interpolation-filters:sRGB"
       inkscape:label="Drop Shadow"
       id="filter17"
       x="-0.27999924"
       y="-0.31525897"
       width="1.5599984"
       height="1.6300561">
      <feFlood
         result="flood"
         in="SourceGraphic"
         flood-opacity="0.75"
         flood-color="rgb(0,153,255)"
         id="feFlood16" />
      <feGaussianBlur
         result="blur"
         stdDeviation="7.500000"
         id="feGaussianBlur16"
         in="SourceGraphic" />
      <feOffset
         result="offset"
         in="blur"
         dx="0.000000"
         dy="0.000000"
         id="feOffset16" />
      <feComposite
         result="comp1"
         operator="in"
         in="flood"
         in2="offset"
         id="feComposite16" />
      <feComposite
         result="comp2"
         operator="over"
         in="SourceGraphic"
         in2="comp1"
         id="feComposite17" />
    </filter>
  </defs>
  <g
     inkscape:label="Layer 1"
     inkscape:groupmode="layer"
     id="layer1">
    <path
       d="m 74.900001,68.487499 q -6.500001,-6.6 -14.600001,-16.1 -5.8,-6.8 -8.5,-10.5 -4.9,-6.3 -8.2,-11.7 l -1,-1.5 q -0.4,-0.5 -2.2,0.7 l -0.3,0.2 q -0.6,0.4 -0.8,0.15 -0.2,-0.25 0.2,-0.55 l 1.8,-1.3 q 2.1,-1.6 2.15,-2 0.05,-0.4 -0.6,-1.7 -0.65,-1.3 -1.55,-2.4 -0.9,-1.1 -1.35,-1.1 -0.45,0 -2.05,0.8 l -2.7,1.3 q -0.6,0.2 -0.7,-0.05 -0.1,-0.25 1.3,-1.35 1.1,-0.8 1.2,-1.1 0.1,-0.3 -0.75,-1.9 -0.85,-1.6 -1.2,-1.75 -0.35,-0.15 -1.6,0.4 -1.25,0.55 -2.35,1.35 -1.1,0.8 -1.1,1.25 0,0.45 2.7,4.25 -2.7,1.1 -5.2,1.4 -2.2,0.3 -6.1,0 0.5,2.9 2.2,5.8 1.5,2.5 3.9,5 l 0.3,0.3 q -0.2,0.1 -1.5,-0.9 -1.6,-1.3 -3.1,-3.3 -2.4,-3.2 -3.6,-7 -1.7,-0.3 -3.6,-1.3 -1.3,-0.7 -2.5,-1.7 l -1,-0.9 0.1,1.3 q 0.2,1.7 0.7,3.5 0.7,2.6 1.8,5.2 1.5,3.2 3.8,6.1 2.4,3.3 5.7,6.1 2.4,1.9 5,3.4 l 2.1,1.1 -0.2,-2.1 q -0.1,-2.5 0.2,-4.8 0.5,-3.2 1.8,-5.5 1.7,-2.9 4.3,-5 4.4,5.8 12.2,15.8 l 4.5,5.8 q 8.400001,10.6 10.7,13.7 2.5,3.5 5.200001,7.799998 3.099998,5.000002 3.800001,7.2 l 0.1,0.100003 q 0.800001,2.299997 0.999998,2.4 0.500002,0.1 1.8,-1.2 1.300003,-1.300003 2.200003,-3 1.999998,-3.800001 1.599999,-5.300001 -0.1,-0.399999 -1.599999,-1.599999 -2.7,-2.000001 -4.400002,-3.800001 z M 46.9,44.287499 q -0.1,-0.1 -0.3,-0.05 -0.2,0.05 -0.3,0.15 -11.4,14.1 -21.2,24.1 -1.7,1.8 -4.3,3.800001 -1.6,1.2 -1.7,1.599999 -0.4,1.5 1.6,5.300001 0.9,1.699997 2.2,3 1.3,1.299999 1.8,1.2 0.3,-0.100003 1.1,-2.500003 0.8,-2.199998 3.8,-7.2 2.7,-4.299998 5.15,-7.699998 2.45,-3.4 11.45,-14.7 l 2.8,-3.6 q 0.3,-0.3 0.1,-0.6 z m 40.600001,-23 q -0.500001,0.5 -0.999999,0.9 -1.2,1 -2.500002,1.7 -1.899999,1 -3.6,1.3 -1.2,3.8 -3.600001,7 -0.999998,1.4 -2.199998,2.5 -0.9,0.8 -1.599999,1.25 -0.700003,0.45 -0.800001,0.45 l 0.3,-0.3 q 2.4,-2.5 3.9,-5 1.700001,-2.9 2.199999,-5.8 -3.900001,0.3 -6.099999,0 -2.499999,-0.3 -5.200001,-1.4 2.700002,-3.8 2.700002,-4.25 0,-0.45 -1.100001,-1.2 -1.100001,-0.75 -2.350001,-1.35 -1.25,-0.6 -1.65,-0.45 -0.4,0.15 -1.2,1.75 -0.799999,1.6 -0.7,1.9 0.1,0.3 1.2,1.1 1.3,1.1 1.25,1.3 -0.05,0.2 -0.65,0.1 l -2.7,-1.3 q -1.6,-0.7 -2.05,-0.75 -0.45,-0.05 -1.35,1.05 -0.9,1.1 -1.55,2.4 -0.65,1.3 -0.6,1.7 0.05,0.4 2.15,2 l 1.8,1.3 q 0.4,0.4 0.2,0.6 -0.2,0.2 -0.8,-0.2 l -0.3,-0.2 q -1.8,-1.2 -2.2,-0.7 -0.2,0.3 -1.6,2.3 -3,4.7 -4.8,7 -0.3,0.5 0.1,0.9 l 2.1,2.6 q 0.1,0.1 0.35,0.1 0.25,0 0.35,-0.2 1.9,-2.3 8.3,-10.8 2.6,2.2 4.3,5 1.3,2.3 1.8,5.5 0.3,2.3 0.2,4.8 l -0.2,2.1 2.100001,-1.1 q 2.600001,-1.5 5.000001,-3.4 3.3,-2.8 5.7,-6 2.299998,-3 3.799998,-6.2 1.100001,-2.6 1.8,-5.2 0.500001,-1.8 0.700002,-3.5 z"
       id="path1"
       style="fill:#ffffff;fill-opacity:1;stroke-width:6;font-variation-settings:normal;opacity:1;vector-effect:none;stroke:#0099ff;stroke-linecap:butt;stroke-linejoin:round;stroke-miterlimit:15;stroke-dasharray:none;stroke-dashoffset:0;stroke-opacity:1;-inkscape-stroke:none;paint-order:stroke markers fill;filter:url(#filter17);stop-color:#000000;stop-opacity:1" />
  </g>
</svg>
