<?xml version="1.0" encoding="UTF-8" standalone="no"?>
<!-- Created with Inkscape (http://www.inkscape.org/) -->

<svg
   width="100mm"
   height="100mm"
   viewBox="0 0 100 100"
   version="1.1"
   id="svg1"
   inkscape:version="1.3.2 (091e20ef0f, 2023-11-25, custom)"
   sodipodi:docname="062401.svg"
   inkscape:export-xdpi="16.256001"
   inkscape:export-ydpi="16.256001"
   xmlns:inkscape="http://www.inkscape.org/namespaces/inkscape"
   xmlns:sodipodi="http://sodipodi.sourceforge.net/DTD/sodipodi-0.dtd"
   xmlns="http://www.w3.org/2000/svg"
   xmlns:svg="http://www.w3.org/2000/svg">
  <sodipodi:namedview
     id="namedview1"
     pagecolor="#000000"
     bordercolor="#000000"
     borderopacity="0.25"
     inkscape:showpageshadow="2"
     inkscape:pageopacity="0.0"
     inkscape:pagecheckerboard="0"
     inkscape:deskcolor="#d1d1d1"
     inkscape:document-units="mm"
     showguides="true"
     inkscape:zoom="2.2621875"
     inkscape:cx="188.97638"
     inkscape:cy="188.97638"
     inkscape:window-width="1920"
     inkscape:window-height="1022"
     inkscape:window-x="0"
     inkscape:window-y="0"
     inkscape:window-maximized="1"
     inkscape:current-layer="layer1">
    <sodipodi:guide
       position="0,99.999999"
       orientation="0,377.95276"
       id="guide4"
       inkscape:locked="false" />
    <sodipodi:guide
       position="99.999999,99.999999"
       orientation="377.95276,0"
       id="guide5"
       inkscape:locked="false" />
    <sodipodi:guide
       position="99.999999,0"
       orientation="0,-377.95276"
       id="guide6"
       inkscape:locked="false" />
    <sodipodi:guide
       position="0,0"
       orientation="-377.95276,0"
       id="guide7"
       inkscape:locked="false" />
    <sodipodi:guide
       position="0,0"
       orientation="0.70710678,-0.70710678"
       id="guide8"
       inkscape:locked="false" />
    <sodipodi:guide
       position="0,99.999999"
       orientation="0.70710678,0.70710678"
       id="guide9"
       inkscape:locked="false"
       inkscape:label=""
       inkscape:color="rgb(0,134,229)" />
    <sodipodi:guide
       position="0,87.499999"
       orientation="0,1"
       id="guide10"
       inkscape:locked="false"
       inkscape:label=""
       inkscape:color="rgb(0,134,229)" />
    <sodipodi:guide
       position="0,12.5"
       orientation="0,1"
       id="guide11"
       inkscape:locked="false"
       inkscape:label=""
       inkscape:color="rgb(0,134,229)" />
    <sodipodi:guide
       position="12.5,99.999999"
       orientation="-1,0"
       id="guide12"
       inkscape:locked="false"
       inkscape:label=""
       inkscape:color="rgb(0,134,229)" />
    <sodipodi:guide
       position="87.499999,99.999999"
       orientation="-1,0"
       id="guide13"
       inkscape:locked="false"
       inkscape:label=""
       inkscape:color="rgb(0,134,229)" />
  </sodipodi:namedview>
  <defs
     id="defs1">
    <filter
       style="color-interpolation-filters:sRGB"
       inkscape:label="Drop Shadow"
       id="filter17"
       x="-0.35353536"
       y="-0.27999954"
       width="1.7070707"
       height="1.5599991">
      <feFlood
         result="flood"
         in="SourceGraphic"
         flood-opacity="0.75"
         flood-color="rgb(0,153,255)"
         id="feFlood16" />
      <feGaussianBlur
         result="blur"
         stdDeviation="7.500000"
         id="feGaussianBlur16"
         in="SourceGraphic" />
      <feOffset
         result="offset"
         in="blur"
         dx="0.000000"
         dy="0.000000"
         id="feOffset16" />
      <feComposite
         result="comp1"
         operator="in"
         in="flood"
         in2="offset"
         id="feComposite16" />
      <feComposite
         result="comp2"
         operator="over"
         in="SourceGraphic"
         in2="comp1"
         id="feComposite17" />
    </filter>
  </defs>
  <g
     inkscape:label="Layer 1"
     inkscape:groupmode="layer"
     id="layer1">
    <path
       d="m 75.699996,13.900003 q -0.499997,0 -1.399997,1 -0.6,0.6 -1.849999,2.15 -1.250003,1.55 -1.750001,2.15 -0.9,1 -1.400001,1 H 55.499999 q -0.4,0 -2,-3.4 l -0.6,-1.3 q -0.6,-1.2 -1.4,-2 -0.5,-0.6 -1.1,-0.8 l -0.4,-0.2 -0.4,0.2 q -0.6,0.2 -1.1,0.8 -0.8,0.8 -1.4,2 l -0.6,1.3 q -1.6,3.4 -2,3.4 H 30.7 q -0.5,0 -1.4,-1 -0.5,-0.6 -1.75,-2.15 -1.25,-1.55 -1.85,-2.15 -0.9,-1 -1.4,-1 -1.4,0 -2.6,1.3 -1.4,1.4 -1.4,3.5 v 25.799999 q 0,9.6 3.3,17.699999 Q 26.7,69.8 32.4,75.2 q 4.8,4.5 11.499999,8.800003 3.4,2.099999 6.1,3.499997 2.6,-1.299999 6.1,-3.499997 Q 62.799998,79.7 67.599998,75.2 q 5.699999,-5.4 8.800001,-12.999999 3.3,-8.099999 3.3,-17.699999 V 18.700003 q 0,-2.1 -1.400001,-3.5 -1.2,-1.3 -2.600002,-1.3 z m -28.799997,62.9 q -1.1,-0.6 -2.1,-1.2 -2.6,-1.700001 -4.9,-3.700003 -3.4,-2.899997 -5.899999,-6.099999 -3.1,-4 -4.7,-9.4 -1.2,-4.199999 -1.2,-7.999999 L 28.2,26.500003 H 46.899999 Z M 65.999998,65.800001 q -2.499999,3.200002 -5.9,6.099999 -2.299999,2.000002 -4.899999,3.700003 l -2.1,1.2 v -50.3 h 18.699998 l 0.100002,21.899999 q 0,3.8 -1.2,7.999999 -1.600002,5.4 -4.700001,9.4 z"
       id="path1"
       style="fill:#ffffff;fill-opacity:1;stroke-width:6;font-variation-settings:normal;opacity:1;vector-effect:none;stroke:#0099ff;stroke-linecap:butt;stroke-linejoin:round;stroke-miterlimit:15;stroke-dasharray:none;stroke-dashoffset:0;stroke-opacity:1;-inkscape-stroke:none;paint-order:stroke markers fill;filter:url(#filter17);stop-color:#000000;stop-opacity:1" />
  </g>
</svg>
