<?xml version="1.0" encoding="UTF-8" standalone="no"?>
<!-- Created with Inkscape (http://www.inkscape.org/) -->

<svg
   width="100mm"
   height="100mm"
   viewBox="0 0 100 100"
   version="1.1"
   id="svg1"
   inkscape:version="1.3.2 (091e20ef0f, 2023-11-25, custom)"
   sodipodi:docname="062412.svg"
   inkscape:export-xdpi="16.256001"
   inkscape:export-ydpi="16.256001"
   xmlns:inkscape="http://www.inkscape.org/namespaces/inkscape"
   xmlns:sodipodi="http://sodipodi.sourceforge.net/DTD/sodipodi-0.dtd"
   xmlns="http://www.w3.org/2000/svg"
   xmlns:svg="http://www.w3.org/2000/svg">
  <sodipodi:namedview
     id="namedview1"
     pagecolor="#000000"
     bordercolor="#000000"
     borderopacity="0.25"
     inkscape:showpageshadow="2"
     inkscape:pageopacity="0.0"
     inkscape:pagecheckerboard="0"
     inkscape:deskcolor="#d1d1d1"
     inkscape:document-units="mm"
     showguides="true"
     inkscape:zoom="2.2621875"
     inkscape:cx="188.97638"
     inkscape:cy="188.97638"
     inkscape:window-width="1920"
     inkscape:window-height="1022"
     inkscape:window-x="0"
     inkscape:window-y="0"
     inkscape:window-maximized="1"
     inkscape:current-layer="layer1">
    <sodipodi:guide
       position="0,99.999999"
       orientation="0,377.95276"
       id="guide4"
       inkscape:locked="false" />
    <sodipodi:guide
       position="99.999999,99.999999"
       orientation="377.95276,0"
       id="guide5"
       inkscape:locked="false" />
    <sodipodi:guide
       position="99.999999,0"
       orientation="0,-377.95276"
       id="guide6"
       inkscape:locked="false" />
    <sodipodi:guide
       position="0,0"
       orientation="-377.95276,0"
       id="guide7"
       inkscape:locked="false" />
    <sodipodi:guide
       position="0,0"
       orientation="0.70710678,-0.70710678"
       id="guide8"
       inkscape:locked="false" />
    <sodipodi:guide
       position="0,99.999999"
       orientation="0.70710678,0.70710678"
       id="guide9"
       inkscape:locked="false"
       inkscape:label=""
       inkscape:color="rgb(0,134,229)" />
    <sodipodi:guide
       position="0,87.499999"
       orientation="0,1"
       id="guide10"
       inkscape:locked="false"
       inkscape:label=""
       inkscape:color="rgb(0,134,229)" />
    <sodipodi:guide
       position="0,12.5"
       orientation="0,1"
       id="guide11"
       inkscape:locked="false"
       inkscape:label=""
       inkscape:color="rgb(0,134,229)" />
    <sodipodi:guide
       position="12.5,99.999999"
       orientation="-1,0"
       id="guide12"
       inkscape:locked="false"
       inkscape:label=""
       inkscape:color="rgb(0,134,229)" />
    <sodipodi:guide
       position="87.499999,99.999999"
       orientation="-1,0"
       id="guide13"
       inkscape:locked="false"
       inkscape:label=""
       inkscape:color="rgb(0,134,229)" />
  </sodipodi:namedview>
  <defs
     id="defs1">
    <filter
       style="color-interpolation-filters:sRGB"
       inkscape:label="Drop Shadow"
       id="filter17"
       x="-0.38024876"
       y="-0.27999433"
       width="1.7604961"
       height="1.5599834">
      <feFlood
         result="flood"
         in="SourceGraphic"
         flood-opacity="0.75"
         flood-color="rgb(0,153,255)"
         id="feFlood16" />
      <feGaussianBlur
         result="blur"
         stdDeviation="7.500000"
         id="feGaussianBlur16"
         in="SourceGraphic" />
      <feOffset
         result="offset"
         in="blur"
         dx="0.000000"
         dy="0.000000"
         id="feOffset16" />
      <feComposite
         result="comp1"
         operator="in"
         in="flood"
         in2="offset"
         id="feComposite16" />
      <feComposite
         result="comp2"
         operator="over"
         in="SourceGraphic"
         in2="comp1"
         id="feComposite17" />
    </filter>
  </defs>
  <g
     inkscape:label="Layer 1"
     inkscape:groupmode="layer"
     id="layer1">
    <path
       d="m 34.233968,52.404988 q 6.502375,-1.95962 8.996437,-4.631829 2.672209,-2.93943 2.404988,-8.194774 -3.206651,0.890736 -9.887174,3.830166 -4.453681,1.870547 -6.680522,2.672209 -3.741093,1.425178 -6.680523,2.048694 1.781473,-2.048694 4.988124,-4.275535 1.870546,-1.336104 5.87886,-3.830166 5.789786,-3.562945 8.1057,-5.522565 -4.097387,-2.761283 -6.413301,-4.720903 -3.117578,-2.672209 -5.077198,-5.433491 3.473872,-0.178148 7.036817,1.068883 2.137768,0.712589 6.146081,2.93943 l 2.583136,1.336105 q 0.890736,-1.781473 1.425178,-4.186461 0.356294,-1.425178 0.757126,-4.409145 0.400831,-2.983967 0.668052,-4.409145 0.534442,-2.404988 1.336104,-4.186461 0.97981,2.137768 1.603326,4.89905 0.445368,1.692399 0.97981,5.077197 0.801663,4.809977 1.425178,6.947744 1.692399,-0.623516 4.809976,-1.95962 3.562945,-1.514252 5.344418,-2.048694 3.117577,-0.97981 5.967934,-1.157957 -1.870546,3.028504 -4.988124,5.522565 -2.494062,2.137767 -6.591449,4.542755 2.315915,1.95962 8.194774,5.700713 4.008314,2.494062 5.87886,3.830166 3.206651,2.315915 5.16627,4.275535 -3.384796,-0.623516 -8.1057,-2.404988 -2.761282,-1.068884 -8.372921,-3.473872 -5.611639,-2.404988 -7.83848,-3.117577 -0.445368,4.809976 2.80582,8.372921 3.251187,3.562946 9.664488,5.077198 -1.157956,1.603325 -3.919239,4.988123 -3.295724,3.830166 -4.631829,5.87886 -2.315915,3.384798 -2.93943,6.324228 l -0.178147,0.801662 q -1.247031,5.611639 -1.95962,8.461993 -1.247031,4.631832 -2.583136,8.461997 L 48.396675,81.977432 Q 46.704276,73.960805 45.724466,69.952492 44.922804,66.567696 42.072447,62.292162 40.380048,59.7981 36.371735,54.988123 Z M 49.821853,48.129454 Q 48.75297,48.663895 47.77316,49.465558 47.238718,50 46.347982,51.068884 q -0.801663,0.890736 -1.247031,1.336104 -1.336105,1.336105 -0.356295,2.850356 0.890737,1.247031 2.850357,4.364609 l 1.692398,2.583135 q 2.850357,-3.206651 4.008314,-5.121734 1.157958,-1.915083 1.113421,-3.251188 -0.04454,-1.336104 -1.291568,-2.761282 -0.801663,-0.890737 -3.295725,-2.93943 z"
       id="path1"
       style="fill:#ffffff;fill-opacity:1;stroke-width:6;font-variation-settings:normal;opacity:1;vector-effect:none;stroke:#0099ff;stroke-linecap:butt;stroke-linejoin:round;stroke-miterlimit:15;stroke-dasharray:none;stroke-dashoffset:0;stroke-opacity:1;-inkscape-stroke:none;paint-order:stroke markers fill;filter:url(#filter17);stop-color:#000000;stop-opacity:1" />
  </g>
</svg>
