<?xml version="1.0" encoding="UTF-8" standalone="no"?>
<!-- Created with Inkscape (http://www.inkscape.org/) -->

<svg
   width="100mm"
   height="100mm"
   viewBox="0 0 100 100"
   version="1.1"
   id="svg1"
   inkscape:version="1.3.2 (091e20ef0f, 2023-11-25, custom)"
   sodipodi:docname="062403.svg"
   inkscape:export-xdpi="16.256001"
   inkscape:export-ydpi="16.256001"
   xmlns:inkscape="http://www.inkscape.org/namespaces/inkscape"
   xmlns:sodipodi="http://sodipodi.sourceforge.net/DTD/sodipodi-0.dtd"
   xmlns="http://www.w3.org/2000/svg"
   xmlns:svg="http://www.w3.org/2000/svg">
  <sodipodi:namedview
     id="namedview1"
     pagecolor="#000000"
     bordercolor="#000000"
     borderopacity="0.25"
     inkscape:showpageshadow="2"
     inkscape:pageopacity="0.0"
     inkscape:pagecheckerboard="0"
     inkscape:deskcolor="#d1d1d1"
     inkscape:document-units="mm"
     showguides="true"
     inkscape:zoom="2.2621875"
     inkscape:cx="188.97638"
     inkscape:cy="188.97638"
     inkscape:window-width="1920"
     inkscape:window-height="1022"
     inkscape:window-x="0"
     inkscape:window-y="0"
     inkscape:window-maximized="1"
     inkscape:current-layer="layer1">
    <sodipodi:guide
       position="0,99.999999"
       orientation="0,377.95276"
       id="guide4"
       inkscape:locked="false" />
    <sodipodi:guide
       position="99.999999,99.999999"
       orientation="377.95276,0"
       id="guide5"
       inkscape:locked="false" />
    <sodipodi:guide
       position="99.999999,0"
       orientation="0,-377.95276"
       id="guide6"
       inkscape:locked="false" />
    <sodipodi:guide
       position="0,0"
       orientation="-377.95276,0"
       id="guide7"
       inkscape:locked="false" />
    <sodipodi:guide
       position="0,0"
       orientation="0.70710678,-0.70710678"
       id="guide8"
       inkscape:locked="false" />
    <sodipodi:guide
       position="0,99.999999"
       orientation="0.70710678,0.70710678"
       id="guide9"
       inkscape:locked="false"
       inkscape:label=""
       inkscape:color="rgb(0,134,229)" />
    <sodipodi:guide
       position="0,87.499999"
       orientation="0,1"
       id="guide10"
       inkscape:locked="false"
       inkscape:label=""
       inkscape:color="rgb(0,134,229)" />
    <sodipodi:guide
       position="0,12.5"
       orientation="0,1"
       id="guide11"
       inkscape:locked="false"
       inkscape:label=""
       inkscape:color="rgb(0,134,229)" />
    <sodipodi:guide
       position="12.5,99.999999"
       orientation="-1,0"
       id="guide12"
       inkscape:locked="false"
       inkscape:label=""
       inkscape:color="rgb(0,134,229)" />
    <sodipodi:guide
       position="87.499999,99.999999"
       orientation="-1,0"
       id="guide13"
       inkscape:locked="false"
       inkscape:label=""
       inkscape:color="rgb(0,134,229)" />
  </sodipodi:namedview>
  <defs
     id="defs1">
    <filter
       style="color-interpolation-filters:sRGB"
       inkscape:label="Drop Shadow"
       id="filter17"
       x="-0.27999998"
       y="-0.35456312"
       width="1.56"
       height="1.7091114">
      <feFlood
         result="flood"
         in="SourceGraphic"
         flood-opacity="0.75"
         flood-color="rgb(0,153,255)"
         id="feFlood16" />
      <feGaussianBlur
         result="blur"
         stdDeviation="7.500000"
         id="feGaussianBlur16"
         in="SourceGraphic" />
      <feOffset
         result="offset"
         in="blur"
         dx="0.000000"
         dy="0.000000"
         id="feOffset16" />
      <feComposite
         result="comp1"
         operator="in"
         in="flood"
         in2="offset"
         id="feComposite16" />
      <feComposite
         result="comp2"
         operator="over"
         in="SourceGraphic"
         in2="comp1"
         id="feComposite17" />
    </filter>
  </defs>
  <g
     inkscape:label="Layer 1"
     inkscape:groupmode="layer"
     id="layer1">
    <path
       d="m 87.500003,50.000001 -0.199998,-2.6 q -0.3,-3.1 -1.2,-6.3 Q 85.000004,36.7 83.000003,32.9 q -1.699998,-3.1 -4.55,-6.2 -2.849998,-3.1 -5.7,-4.900001 Q 69.900004,20 68.450003,20.4 q -1.450001,0.4 -2.250002,1.2 -1.099999,1.099999 -1.599999,3.2 l -0.4,2.2 q -0.4,2.1 -0.9,3.2 -0.7,1.7 -2.5,3.8 -2.2,2.5 -6.7,3.3 -2.3,0.3 -4.1,0.200001 -2.000001,0.1 -4.3,-0.200001 -4.400001,-0.8 -6.500001,-3.3 -1.8,-2.1 -2.5,-3.8 -0.5,-1.1 -0.9,-3.2 l -0.4,-2.2 q -0.5,-2.100001 -1.6,-3.1 -0.8,-0.9 -2.25,-1.3 -1.45,-0.4 -4.3,1.399999 Q 24.4,23.6 21.550001,26.7 18.700001,29.8 17,32.9 q -2,3.8 -3.1,8.200001 -0.9,3.2 -1.2,6.4 l -0.2,2.5 q 0.1,2.4 0.7,5.7 1.1,6.3 3.9,11.4 1.600001,3.1 4.5,6.200002 2.900001,3.099999 5.700001,4.899999 2.8,1.800001 4.25,1.400002 1.45,-0.400003 2.35,-1.2 1,-1.100002 1.5,-3.200002 l 0.5,-2.199999 q 0.4,-2.1 0.8,-3.200001 0.8,-1.700002 2.5,-3.800002 1.6,-1.8 4.4,-2.7 2,-0.699999 4.4,-0.799998 h 2.000001 q 2.1,-0.200001 4.3,0.199998 4.4,0.800001 6.5,3.3 1.8,2.1 2.5,3.800002 0.5,1.100001 0.9,3.200001 l 0.4,2.199999 q 0.5,2.1 1.599999,3.099999 0.800001,0.9 2.250002,1.300003 1.450001,0.399999 4.3,-1.450001 2.850002,-1.849999 5.7,-4.899999 2.850002,-3.050003 4.55,-6.250002 2.000001,-3.700002 3.100002,-8.100001 0.9,-3.2 1.2,-6.4 z M 76.000004,62.7 q -0.9,1.8 -2.199999,3.500001 -0.9,1.2 -1.8,2.199999 l -0.800002,0.700003 -0.3,-1.100002 q -0.500001,-1.5 -1.2,-2.900001 -1,-1.899999 -2.300002,-3.499998 -1.599999,-1.900001 -3.599999,-3.200001 -2.4,-1.6 -5.1,-2.5 -2.2,-0.7 -4.4,-1.1 -1.6,-0.2 -3.1,-0.2 l -1.2,0.1 q -1.8,-0.2 -4.500001,0.2 -5,0.8 -9.2,3.5 -3.7,2.300001 -5.9,6.800001 -1.2,2.199999 -1.6,4 l -0.7,-0.800002 q -1,-0.999999 -1.9,-2.199999 -1.2,-1.700001 -2.2,-3.500001 -1.3,-2.599998 -2,-5.799999 -0.5,-2.4 -0.6,-4.9 l -0.100001,-2 q -0.1,-1.9 0.200001,-4.4 0.6,-4.8 2.5,-8.300001 0.9,-1.8 2.2,-3.5 0.9,-1.2 1.8,-2.2 l 0.8,-0.7 0.3,1.1 q 0.5,1.5 1.2,2.8 1,2 2.3,3.600001 1.6,1.9 3.6,3.199999 4.4,2.800001 9.500001,3.500001 2.599999,0.4 4.3,0.2 1.9,0.2 4.4,-0.2 5.1,-0.8 9.4,-3.500001 2,-1.299999 3.599999,-3.3 1.300002,-1.5 2.300002,-3.5 0.699999,-1.4 1.2,-2.8 l 0.3,-1.2 0.800002,0.8 q 0.9,1 1.8,2.2 1.299999,1.7 2.199999,3.5 1.899998,3.500001 2.499998,8.200001 0.3,2.5 0.200002,4.5 v 0.1 q 0.1,2.2 -0.3,4.6 -0.6,4.6 -2.4,7.999999 z"
       id="path1"
       style="fill:#ffffff;fill-opacity:1;stroke-width:6;font-variation-settings:normal;opacity:1;vector-effect:none;stroke:#0099ff;stroke-linecap:butt;stroke-linejoin:round;stroke-miterlimit:15;stroke-dasharray:none;stroke-dashoffset:0;stroke-opacity:1;-inkscape-stroke:none;paint-order:stroke markers fill;filter:url(#filter17);stop-color:#000000;stop-opacity:1" />
  </g>
</svg>
