<?xml version="1.0" encoding="UTF-8" standalone="no"?>
<!-- Created with Inkscape (http://www.inkscape.org/) -->

<svg
   width="100mm"
   height="100mm"
   viewBox="0 0 100 100"
   version="1.1"
   id="svg1"
   inkscape:version="1.3.2 (091e20ef0f, 2023-11-25, custom)"
   sodipodi:docname="062302.svg"
   inkscape:export-xdpi="16.256001"
   inkscape:export-ydpi="16.256001"
   xmlns:inkscape="http://www.inkscape.org/namespaces/inkscape"
   xmlns:sodipodi="http://sodipodi.sourceforge.net/DTD/sodipodi-0.dtd"
   xmlns="http://www.w3.org/2000/svg"
   xmlns:svg="http://www.w3.org/2000/svg">
  <sodipodi:namedview
     id="namedview1"
     pagecolor="#000000"
     bordercolor="#000000"
     borderopacity="0.25"
     inkscape:showpageshadow="2"
     inkscape:pageopacity="0.0"
     inkscape:pagecheckerboard="0"
     inkscape:deskcolor="#d1d1d1"
     inkscape:document-units="mm"
     showguides="true"
     inkscape:zoom="2.2621875"
     inkscape:cx="188.97638"
     inkscape:cy="188.97638"
     inkscape:window-width="1920"
     inkscape:window-height="1022"
     inkscape:window-x="0"
     inkscape:window-y="0"
     inkscape:window-maximized="1"
     inkscape:current-layer="layer1">
    <sodipodi:guide
       position="0,99.999999"
       orientation="0,377.95276"
       id="guide4"
       inkscape:locked="false" />
    <sodipodi:guide
       position="99.999999,99.999999"
       orientation="377.95276,0"
       id="guide5"
       inkscape:locked="false" />
    <sodipodi:guide
       position="99.999999,0"
       orientation="0,-377.95276"
       id="guide6"
       inkscape:locked="false" />
    <sodipodi:guide
       position="0,0"
       orientation="-377.95276,0"
       id="guide7"
       inkscape:locked="false" />
    <sodipodi:guide
       position="0,0"
       orientation="0.70710678,-0.70710678"
       id="guide8"
       inkscape:locked="false" />
    <sodipodi:guide
       position="0,99.999999"
       orientation="0.70710678,0.70710678"
       id="guide9"
       inkscape:locked="false"
       inkscape:label=""
       inkscape:color="rgb(0,134,229)" />
    <sodipodi:guide
       position="0,87.499999"
       orientation="0,1"
       id="guide10"
       inkscape:locked="false"
       inkscape:label=""
       inkscape:color="rgb(0,134,229)" />
    <sodipodi:guide
       position="0,12.5"
       orientation="0,1"
       id="guide11"
       inkscape:locked="false"
       inkscape:label=""
       inkscape:color="rgb(0,134,229)" />
    <sodipodi:guide
       position="12.5,99.999999"
       orientation="-1,0"
       id="guide12"
       inkscape:locked="false"
       inkscape:label=""
       inkscape:color="rgb(0,134,229)" />
    <sodipodi:guide
       position="87.499999,99.999999"
       orientation="-1,0"
       id="guide13"
       inkscape:locked="false"
       inkscape:label=""
       inkscape:color="rgb(0,134,229)" />
  </sodipodi:namedview>
  <defs
     id="defs1">
    <filter
       style="color-interpolation-filters:sRGB"
       inkscape:label="Drop Shadow"
       id="filter17"
       x="-0.29549457"
       y="-0.27999301"
       width="1.5909899"
       height="1.5599961">
      <feFlood
         result="flood"
         in="SourceGraphic"
         flood-opacity="0.75"
         flood-color="rgb(255,112,146)"
         id="feFlood16" />
      <feGaussianBlur
         result="blur"
         stdDeviation="7.500000"
         id="feGaussianBlur16"
         in="SourceGraphic" />
      <feOffset
         result="offset"
         in="blur"
         dx="0.000000"
         dy="0.000000"
         id="feOffset16" />
      <feComposite
         result="comp1"
         operator="in"
         in="flood"
         in2="offset"
         id="feComposite16" />
      <feComposite
         result="comp2"
         operator="over"
         in="SourceGraphic"
         in2="comp1"
         id="feComposite17" />
    </filter>
  </defs>
  <g
     inkscape:label="Layer 1"
     inkscape:groupmode="layer"
     id="layer1">
    <path
       d="m 85.032719,64.797007 q -1.0016,-1.001601 -2.203523,-1.802884 -0.400645,-0.300481 -0.801284,0.10016 -1.101763,1.001604 -4.206731,4.206732 l -0.80128,0.80128 q -0.200321,0.300481 -0.701123,0.300481 h -0.300481 q -0.100159,-0.500799 0.150242,-0.901444 0.250402,-0.400639 1.953123,-2.103363 2.403847,-2.504006 2.804487,-3.004808 0.20032,-0.400641 0.20032,-0.600961 0,-0.200321 -0.300479,-0.500802 -2.103367,-1.903044 -2.554085,-2.153445 -0.450724,-0.250401 -0.951523,-0.15024 l 0.100159,0.901443 q -0.100159,1.101761 -0.70112,1.852963 -0.600961,0.751202 -4.206731,4.356972 l -0.400643,0.40064 q -1.402242,1.302083 -1.702722,3.205129 -0.200322,1.001601 -0.100163,2.604165 0.100163,0.60096 0,0.701123 -0.100159,0.100159 -0.500799,-0.100163 -1.001605,-0.300479 -2.203528,-0.300479 -0.901443,0 -2.303686,0.500801 l -1.201923,0.600962 0.400641,-0.500803 q 0.500802,-0.500799 1.001602,-0.801279 0.801282,-0.500802 1.602564,-0.701124 0.400641,-0.100159 1.402244,0.100163 l 0.901443,0.100159 Q 69.00708,70.506139 69.307561,69.204057 69.7082,67.501332 70.809964,66.19925 l 1.402246,-1.502403 q 1.502403,-1.402244 2.103365,-2.103365 0.30048,-0.400641 0.35056,-0.651041 0.05008,-0.250401 -0.150242,-0.550882 l -0.100159,-0.400642 q -0.100159,-0.5008 0.05008,-1.051682 0.150241,-0.550881 0.350559,-0.350561 0.701126,0.600963 1.151844,0.150241 0.450724,-0.450722 -0.350559,-1.151844 L 70.509482,53.9797 q -4.707534,-4.00641 -5.058095,-4.306891 -0.35056,-0.300481 -0.600961,0.05008 -0.2504,0.350561 -0.05008,0.751202 0.10016,0.10016 -0.350562,0.250402 -0.450722,0.150239 -1.001602,0.05008 -0.550882,-0.100161 -1.051684,-0.600962 -0.801281,-1.001602 -2.303685,-0.951522 -1.502404,0.05008 -2.604166,1.252003 -1.702725,1.702724 -1.101764,5.709134 0.300481,1.903045 0.801282,3.806091 -1.903045,-0.901443 -3.90625,-1.402245 -1.702724,-0.500801 -3.505609,-0.400641 1.402244,-0.701121 3.104969,-0.801282 0.600962,0 1.502403,0.300481 l 0.901442,0.200321 q -0.500801,-1.802885 -0.500801,-3.70593 0,-1.502402 0.651043,-2.954727 0.65104,-1.452324 1.852964,-2.353765 0.600961,-0.600963 1.602563,-0.901443 1.001603,-0.300481 2.203527,-0.150241 1.201922,0.150241 2.704326,1.252004 l 0.20032,-0.600962 q 0.200321,-0.701122 0.100161,-1.201923 -0.100161,-0.200321 -0.500801,-0.901442 l -0.701121,-1.001601 q -0.300481,-0.500802 -0.400641,-1.702724 0,-0.500801 -0.100161,-0.600962 -0.40064,-0.500801 -2.904647,-0.10016 h -0.400641 q -0.200321,0 -0.801282,-0.500801 L 57.88929,42.16079 q -0.701122,-0.600962 -0.901442,-0.450721 -0.200321,0.15024 -0.200321,0.651041 l -0.10016,0.600962 q 0,0.200321 -0.901442,0.901442 l -2.103366,1.802885 -1.602564,1.602564 q -0.901442,1.001602 -1.051682,1.903045 -0.150241,0.901442 -0.05008,2.604166 l 0.100161,1.602564 -1.402244,-0.300481 q -1.602564,-0.30048 -2.504006,-0.30048 -1.201923,0 -2.403846,0.30048 1.001601,-1.001602 2.203525,-1.302083 0.600962,-0.20032 1.702725,-0.10016 l 0.901442,0.10016 -0.10016,-0.901442 q 0,-1.101763 0.20032,-2.103365 0.300481,-1.402244 1.101763,-2.504007 0.701122,-0.901442 2.604167,-2.403846 l 0.901442,-0.701121 q 1.001602,-1.101763 0.801282,-2.403846 -0.10016,-0.500802 -0.500801,-1.502404 L 54.183362,38.25454 Q 53.882881,37.553417 53.68256,35.049412 53.5824,33.446847 53.48224,33.096287 53.38208,32.745726 52.380477,30.742521 l -1.001602,-2.303686 q -0.600962,-1.502404 -1.101763,-2.203526 -0.801283,-1.302082 -1.802885,-1.903044 -1.602564,-0.901442 -5.308493,-0.701122 h -0.600962 q -1.001603,0 -3.806089,-0.600962 l -0.200322,-0.10016 q -2.504005,-0.500802 -4.10657,-0.10016 -1.101762,0.300481 -3.60577,3.80609 l -0.500801,0.701122 q -0.300481,0.400641 -1.201922,0.951522 -0.901442,0.550881 -1.001602,0.851361 -0.200321,0.500801 -0.200321,1.252004 0,0.751202 0.400641,1.101762 0.400641,0.350562 1.201923,0.651043 l 0.701121,0.20032 -0.600961,0.10016 q -0.701121,0.100161 -1.402243,-0.10016 -0.901442,-0.300481 -1.502405,-1.302083 -0.300481,-0.500801 0,-1.702725 0.300481,-1.201922 0.600963,-1.602563 l 0.901442,-0.701122 q 1.802883,-1.502405 2.353766,-2.253606 0.55088,-0.751202 1.352163,-1.852965 0.801282,-1.101764 1.001603,-1.302084 1.001601,-0.801281 1.903045,-0.801281 0.600961,0 1.302083,0.300481 l 0.10016,0.100159 q 1.302083,0.500801 2.203525,0.600961 h 1.502405 q 1.201923,-0.10016 2.103364,0.100161 l 0.701123,0.20032 q 1.101763,0.400641 1.802884,0.600963 1.001602,0.10016 1.302082,-0.200322 0.200322,-0.20032 -0.150239,-0.951521 -0.350561,-0.751202 -0.951522,-1.151843 -1.201923,-0.901442 -5.008013,-5.108173 l -0.20032,-0.200322 q -1.201924,-1.402243 -2.804488,-2.053285 -1.602564,-0.65104 -3.405448,-0.55088 -1.402244,0 -2.704328,1.001602 -0.801282,0.500801 -1.903044,1.903045 -0.901442,1.101763 -1.402243,1.302083 l -0.400642,0.100161 q -2.604166,0.20032 -4.206731,1.802884 -1.201922,1.302084 -1.402242,4.106571 l -0.100161,0.400641 q 0,0.20032 -1.101762,1.302083 -1.101764,1.101762 -1.602566,1.702724 -1.101761,1.302084 -1.201922,2.403847 -0.500801,2.103365 -0.20032,4.306891 -0.500801,0.300479 -0.901442,0.80128 -0.600963,0.701123 -1.101764,1.802886 -0.701122,1.702723 -0.651041,3.80609 0.05008,2.103365 1.151842,3.605769 0.701123,0.901442 2.604167,2.504006 l 0.801282,0.600962 q 2.003206,1.702724 5.208334,3.004807 2.604165,-0.10016 3.705929,-0.751202 1.101763,-0.651041 1.802884,-2.153445 l 0.30048,-0.600962 0.400641,-0.20032 q 2.203527,-0.701122 2.604168,-1.101763 1.101762,-1.001602 1.602563,-2.403846 0.200322,-0.600963 0.200322,-1.101763 l 0.70112,-0.20032 q 0.701122,-0.200321 1.302084,-0.600962 0.801282,-0.500801 1.001602,-1.201923 0.40064,-1.001603 0.600961,-2.403846 l 0.10016,-0.701122 q 0.400642,-1.302083 0.901443,-2.604166 l -1.402244,-1.302084 q -0.801281,-0.600961 -1.802884,-0.901442 l 0.600962,-0.600961 q 0.20032,-0.300482 0.300481,-0.600963 l 1.001601,0.701123 q 1.201924,0.701122 2.203527,0.901442 1.402243,0.300481 2.904647,0.200321 0.801282,-0.100161 0.901442,0.400641 0,0.30048 -0.150241,0.550881 -0.150239,0.250401 -0.2504,0.250401 -0.801282,0 -1.602565,0.10016 -0.20032,0.10016 -0.60096,0.801281 -0.400641,0.701123 -0.600962,1.302084 l -0.300481,0.901443 q -1.001602,2.904647 -1.101762,3.705929 -0.300481,1.502404 -0.200321,3.004807 0.10016,2.003206 0.801282,3.305289 1.101763,1.802884 2.704327,3.104968 0.10016,0.20032 -0.450721,-0.05008 -0.550882,-0.2504 -1.352163,-0.751201 Q 39.960605,47.068645 39.259483,46.067043 38.4582,44.96528 38.30796,43.663197 38.157719,42.361113 38.057559,41.15919 q -0.600961,-0.300481 -2.203525,1.302084 -0.300481,0.30048 -1.101764,1.602564 -0.500801,0.901442 -0.65104,1.001602 -0.150241,0.10016 -0.751202,0.300481 -1.903045,0.500801 -2.804488,1.101763 -0.300481,0.20032 -1.051682,1.201923 -0.751202,1.001603 -1.051683,1.201923 -0.701121,0.400641 -3.405448,0.500801 0.400641,1.201923 1.001602,2.053285 0.600961,0.851363 1.903045,1.953125 1.502404,1.302084 2.403845,1.502404 1.201924,0.400641 2.904649,0.500801 2.103365,0.100161 3.605769,0.701122 0.801282,0.400641 1.702723,1.302083 0.300482,0.400642 0.450722,0.400642 0.150241,0 0.951523,-0.400642 1.302083,-0.701121 1.502404,-0.600961 0.20032,0.10016 0.2504,0.300481 0.05008,0.20032 -0.15024,0.400641 l -0.500801,0.500801 q -1.201923,1.302083 -1.302084,1.502404 -0.400641,0.801282 0.200321,1.502403 l 0.30048,0.200321 q 0.300481,0.300481 0.300481,0.500802 l -0.10016,0.40064 q -0.500801,2.303686 0.10016,2.904648 0.10016,0.10016 0.701122,0.10016 1.101763,0.10016 1.702724,0.400641 l 1.001603,0.600962 q 0.701122,0.500799 0.901442,0.600962 0.801282,0.100159 1.201923,-0.200322 l 5.108173,5.709134 q 5.308493,5.909456 5.909455,6.610578 0.400641,0.600961 0.200321,1.602561 -0.100161,0.701125 0.20032,1.001605 1.302083,1.502405 5.008013,5.709136 0.20032,0.30048 0.600961,0.350559 0.400641,0.05008 0.701122,-0.05008 l -0.10016,-0.30048 q -0.10016,-0.300481 0.05008,-0.751205 0.15024,-0.450718 0.751202,-0.951522 l 5.408655,-5.408653 q 1.101764,-1.101763 1.502404,-2.704327 0.200323,-0.901443 0.200323,-2.303687 -0.100164,-0.701121 0,-0.7512 0.100159,-0.05008 0.801279,-0.05008 1.402244,0 2.303686,-0.200322 1.502405,-0.400639 2.604168,-1.502403 l 6.009613,-5.909456 q 0.500802,-0.500799 1.001605,-0.70112 0.500799,-0.20032 0.801279,-0.20032 h 0.300481 l 0.100162,-0.200321 Q 85.43336,65.19765 85.03272,64.797009 Z"
       id="path1"
       style="fill:#ffffff;fill-opacity:1;stroke-width:6;font-variation-settings:normal;opacity:1;vector-effect:none;stroke:#ff7092;stroke-linecap:butt;stroke-linejoin:round;stroke-miterlimit:15;stroke-dasharray:none;stroke-dashoffset:0;stroke-opacity:1;-inkscape-stroke:none;paint-order:stroke markers fill;filter:url(#filter17);stop-color:#000000;stop-opacity:1" />
  </g>
</svg>
