<?xml version="1.0" encoding="UTF-8" standalone="no"?>
<!-- Created with Inkscape (http://www.inkscape.org/) -->

<svg
   width="100mm"
   height="100mm"
   viewBox="0 0 100 100"
   version="1.1"
   id="svg1"
   inkscape:version="1.3.2 (091e20ef0f, 2023-11-25, custom)"
   sodipodi:docname="062402.svg"
   inkscape:export-xdpi="16.256001"
   inkscape:export-ydpi="16.256001"
   xmlns:inkscape="http://www.inkscape.org/namespaces/inkscape"
   xmlns:sodipodi="http://sodipodi.sourceforge.net/DTD/sodipodi-0.dtd"
   xmlns="http://www.w3.org/2000/svg"
   xmlns:svg="http://www.w3.org/2000/svg">
  <sodipodi:namedview
     id="namedview1"
     pagecolor="#000000"
     bordercolor="#000000"
     borderopacity="0.25"
     inkscape:showpageshadow="2"
     inkscape:pageopacity="0.0"
     inkscape:pagecheckerboard="0"
     inkscape:deskcolor="#d1d1d1"
     inkscape:document-units="mm"
     showguides="true"
     inkscape:zoom="2.2621875"
     inkscape:cx="188.97638"
     inkscape:cy="188.97638"
     inkscape:window-width="1920"
     inkscape:window-height="1022"
     inkscape:window-x="0"
     inkscape:window-y="0"
     inkscape:window-maximized="1"
     inkscape:current-layer="layer1">
    <sodipodi:guide
       position="0,99.999999"
       orientation="0,377.95276"
       id="guide4"
       inkscape:locked="false" />
    <sodipodi:guide
       position="99.999999,99.999999"
       orientation="377.95276,0"
       id="guide5"
       inkscape:locked="false" />
    <sodipodi:guide
       position="99.999999,0"
       orientation="0,-377.95276"
       id="guide6"
       inkscape:locked="false" />
    <sodipodi:guide
       position="0,0"
       orientation="-377.95276,0"
       id="guide7"
       inkscape:locked="false" />
    <sodipodi:guide
       position="0,0"
       orientation="0.70710678,-0.70710678"
       id="guide8"
       inkscape:locked="false" />
    <sodipodi:guide
       position="0,99.999999"
       orientation="0.70710678,0.70710678"
       id="guide9"
       inkscape:locked="false"
       inkscape:label=""
       inkscape:color="rgb(0,134,229)" />
    <sodipodi:guide
       position="0,87.499999"
       orientation="0,1"
       id="guide10"
       inkscape:locked="false"
       inkscape:label=""
       inkscape:color="rgb(0,134,229)" />
    <sodipodi:guide
       position="0,12.5"
       orientation="0,1"
       id="guide11"
       inkscape:locked="false"
       inkscape:label=""
       inkscape:color="rgb(0,134,229)" />
    <sodipodi:guide
       position="12.5,99.999999"
       orientation="-1,0"
       id="guide12"
       inkscape:locked="false"
       inkscape:label=""
       inkscape:color="rgb(0,134,229)" />
    <sodipodi:guide
       position="87.499999,99.999999"
       orientation="-1,0"
       id="guide13"
       inkscape:locked="false"
       inkscape:label=""
       inkscape:color="rgb(0,134,229)" />
  </sodipodi:namedview>
  <defs
     id="defs1">
    <filter
       style="color-interpolation-filters:sRGB"
       inkscape:label="Drop Shadow"
       id="filter17"
       x="-0.27999912"
       y="-0.28767122"
       width="1.5599988"
       height="1.5753424">
      <feFlood
         result="flood"
         in="SourceGraphic"
         flood-opacity="0.75"
         flood-color="rgb(255,112,146)"
         id="feFlood16" />
      <feGaussianBlur
         result="blur"
         stdDeviation="7.500000"
         id="feGaussianBlur16"
         in="SourceGraphic" />
      <feOffset
         result="offset"
         in="blur"
         dx="0.000000"
         dy="0.000000"
         id="feOffset16" />
      <feComposite
         result="comp1"
         operator="in"
         in="flood"
         in2="offset"
         id="feComposite16" />
      <feComposite
         result="comp2"
         operator="over"
         in="SourceGraphic"
         in2="comp1"
         id="feComposite17" />
    </filter>
  </defs>
  <g
     inkscape:label="Layer 1"
     inkscape:groupmode="layer"
     id="layer1">
    <path
       d="m 52.5,24.5 q 2.1,-1.8 3.6,-3.9 1.200001,-1.7 1.900001,-3.5 Q 58.6,15.8 58.9,14.500001 L 59,13.5 H 58.000001 Q 56.8,13.6 55.4,13.9 53.400001,14.3 51.600001,15.2 49.2,16.3 47.1,18.1 L 19,41.700001 Q 17,43.4 15.5,45.5 q -1.2,1.7 -2,3.5 -0.6,1.300001 -0.8,2.600001 L 12.5,52.6 h 1 Q 14.8,52.5 16.2,52.2 18.1,51.8 20,50.900001 22.3,49.8 24.4,48 l 14,-11.8 z m 14.200001,16.900001 q 2.100001,-1.7 3.600001,-3.800001 1.2,-1.7 1.999998,-3.599999 0.5,-1.300001 0.800001,-2.5 L 73.300002,30.5 H 72.3 Q 71,30.6 69.599999,30.9 67.7,31.3 65.800002,32.200001 q -2.300002,1.1 -4.400002,2.9 l -28.1,23.5 q -2.1,1.8 -3.6,3.9 -1.2,1.699998 -2,3.499998 -0.499999,1.300003 -0.8,2.600002 l -0.2,0.9 h 1 q 1.300001,0 2.7,-0.3 1.9,-0.500002 3.8,-1.299999 Q 36.5,66.8 38.6,65 L 52.700001,53.2 Z m 8.899998,10.6 L 61.600001,63.8 47.5,75.6 Q 45.4,77.4 43.900001,79.5 42.7,81.100003 42,83.000001 41.400001,84.3 41.100001,85.5 l -0.1,1.000003 H 42 q 1.200001,0 2.6,-0.3 2,-0.500001 3.8,-1.400002 Q 50.8,83.7 52.9,82.000003 L 81,58.4 Q 84.800001,55.200001 86.500002,51.000001 87.400003,48.9 87.500001,47.5 h -0.999999 q -1.300003,0 -2.7,0.3 -1.900002,0.5 -3.800001,1.3 -2.300002,1.200001 -4.400002,2.900001 z"
       id="path1"
       style="fill:#ffffff;fill-opacity:1;stroke-width:6;font-variation-settings:normal;opacity:1;vector-effect:none;stroke:#ff7092;stroke-linecap:butt;stroke-linejoin:round;stroke-miterlimit:15;stroke-dasharray:none;stroke-dashoffset:0;stroke-opacity:1;-inkscape-stroke:none;paint-order:stroke markers fill;filter:url(#filter17);stop-color:#000000;stop-opacity:1" />
  </g>
</svg>
