<?xml version="1.0" encoding="UTF-8" standalone="no"?>
<!-- Created with Inkscape (http://www.inkscape.org/) -->

<svg
   width="100mm"
   height="100mm"
   viewBox="0 0 100 100"
   version="1.1"
   id="svg1"
   inkscape:version="1.3.2 (091e20ef0f, 2023-11-25, custom)"
   sodipodi:docname="062419.svg"
   inkscape:export-xdpi="16.256001"
   inkscape:export-ydpi="16.256001"
   xmlns:inkscape="http://www.inkscape.org/namespaces/inkscape"
   xmlns:sodipodi="http://sodipodi.sourceforge.net/DTD/sodipodi-0.dtd"
   xmlns="http://www.w3.org/2000/svg"
   xmlns:svg="http://www.w3.org/2000/svg">
  <sodipodi:namedview
     id="namedview1"
     pagecolor="#000000"
     bordercolor="#000000"
     borderopacity="0.25"
     inkscape:showpageshadow="2"
     inkscape:pageopacity="0.0"
     inkscape:pagecheckerboard="0"
     inkscape:deskcolor="#d1d1d1"
     inkscape:document-units="mm"
     showguides="true"
     inkscape:zoom="2.2621875"
     inkscape:cx="188.97638"
     inkscape:cy="188.97638"
     inkscape:window-width="1920"
     inkscape:window-height="1022"
     inkscape:window-x="0"
     inkscape:window-y="0"
     inkscape:window-maximized="1"
     inkscape:current-layer="layer1">
    <sodipodi:guide
       position="0,99.999999"
       orientation="0,377.95276"
       id="guide4"
       inkscape:locked="false" />
    <sodipodi:guide
       position="99.999999,99.999999"
       orientation="377.95276,0"
       id="guide5"
       inkscape:locked="false" />
    <sodipodi:guide
       position="99.999999,0"
       orientation="0,-377.95276"
       id="guide6"
       inkscape:locked="false" />
    <sodipodi:guide
       position="0,0"
       orientation="-377.95276,0"
       id="guide7"
       inkscape:locked="false" />
    <sodipodi:guide
       position="0,0"
       orientation="0.70710678,-0.70710678"
       id="guide8"
       inkscape:locked="false" />
    <sodipodi:guide
       position="0,99.999999"
       orientation="0.70710678,0.70710678"
       id="guide9"
       inkscape:locked="false"
       inkscape:label=""
       inkscape:color="rgb(0,134,229)" />
    <sodipodi:guide
       position="0,87.499999"
       orientation="0,1"
       id="guide10"
       inkscape:locked="false"
       inkscape:label=""
       inkscape:color="rgb(0,134,229)" />
    <sodipodi:guide
       position="0,12.5"
       orientation="0,1"
       id="guide11"
       inkscape:locked="false"
       inkscape:label=""
       inkscape:color="rgb(0,134,229)" />
    <sodipodi:guide
       position="12.5,99.999999"
       orientation="-1,0"
       id="guide12"
       inkscape:locked="false"
       inkscape:label=""
       inkscape:color="rgb(0,134,229)" />
    <sodipodi:guide
       position="87.499999,99.999999"
       orientation="-1,0"
       id="guide13"
       inkscape:locked="false"
       inkscape:label=""
       inkscape:color="rgb(0,134,229)" />
  </sodipodi:namedview>
  <defs
     id="defs1">
    <filter
       style="color-interpolation-filters:sRGB"
       inkscape:label="Drop Shadow"
       id="filter17"
       x="-0.3322255"
       y="-0.27982618"
       width="1.6640208"
       height="1.5595339">
      <feFlood
         result="flood"
         in="SourceGraphic"
         flood-opacity="0.75"
         flood-color="rgb(255,112,146)"
         id="feFlood16" />
      <feGaussianBlur
         result="blur"
         stdDeviation="7.500000"
         id="feGaussianBlur16"
         in="SourceGraphic" />
      <feOffset
         result="offset"
         in="blur"
         dx="0.000000"
         dy="0.000000"
         id="feOffset16" />
      <feComposite
         result="comp1"
         operator="in"
         in="flood"
         in2="offset"
         id="feComposite16" />
      <feComposite
         result="comp2"
         operator="over"
         in="SourceGraphic"
         in2="comp1"
         id="feComposite17" />
    </filter>
  </defs>
  <g
     inkscape:label="Layer 1"
     inkscape:groupmode="layer"
     id="layer1">
    <path
       d="m 83.108766,57.358068 q -0.198979,-0.397963 -1.094395,0 -0.596945,0.198981 -2.089305,1.193889 -7.561297,4.775554 -17.908331,7.859766 -10.645506,3.084211 -18.10731,2.487267 -5.770461,-0.397962 -9.75009,-1.890322 L 38.835399,52.08506 q 2.188796,5.372499 7.163331,8.25773 3.979629,2.288286 8.456711,2.238541 4.477082,-0.04975 8.35722,-2.238541 3.880138,-2.188796 6.168424,-6.168425 2.188795,-3.681156 2.288288,-7.859766 0.09949,-4.178611 -1.691343,-7.909512 -1.790833,-3.730902 -5.173517,-6.21817 -0.09949,-0.09949 -0.09949,-1.691342 0,-1.790833 -0.198982,-2.586759 -0.198981,-1.492361 -0.895416,-1.790833 -0.696435,-0.298472 -1.989814,0.497454 -0.696435,0.497453 -1.989815,1.790833 -0.994907,0.895416 -1.094398,0.895416 -3.382684,-0.795926 -6.715623,-0.149236 -3.332939,0.64669 -6.21817,2.437523 L 48.78447,20.04905 q 0.596944,-1.591852 0.895417,-3.880138 0.397963,-3.283194 -0.596945,-3.631411 -0.994907,-0.348218 -2.686249,2.537013 -1.094398,1.989814 -1.591851,3.581665 L 28.687346,63.526492 q -1.691343,-1.691342 -2.387777,-3.880138 -0.696436,-2.188795 -0.497454,-5.074026 0.09949,-1.790833 0.696435,-5.074026 l 0.09949,-0.497454 q 0.497453,-2.586759 -0.04975,-2.835486 -0.547199,-0.248726 -1.989814,1.989815 -1.442615,2.238541 -2.537013,4.825299 -1.492361,3.283194 -1.890324,6.068934 -0.497453,4.07912 0.696435,7.660785 1.293379,4.079121 4.775554,6.665877 l -1.790827,7.760276 q -0.497454,1.492361 -0.696435,3.283193 -0.198982,2.68625 0.84567,3.034467 1.044653,0.34822 2.437523,-1.940067 0.994907,-1.492361 1.492361,-2.984722 l 2.984722,-6.566387 q 1.691342,0.497455 3.183702,0.795927 6.267915,0.994906 13.82921,-0.198983 8.257729,-1.193889 16.316477,-4.974537 8.854675,-4.079118 16.316479,-10.744996 1.59185,-1.39287 2.089305,-2.089305 0.795923,-0.994907 0.497451,-1.39287 z M 45.302295,40.444646 q 1.492361,-2.387777 3.880138,-3.780647 2.387777,-1.39287 5.223263,-1.442615 2.835485,-0.04975 5.273008,1.39287 2.437522,1.442615 3.830392,3.880138 1.39287,2.437522 1.39287,5.223262 0,2.78574 -1.39287,5.273008 -1.39287,2.487268 -3.830392,3.830393 -2.437523,1.343125 -5.223263,1.39287 -2.78574,0.04974 -5.273008,-1.39287 -2.487268,-1.442615 -3.880138,-3.880138 -1.39287,-2.437523 -1.39287,-5.223263 0,-2.78574 1.39287,-5.273008 z"
       id="path1"
       style="fill:#ffffff;fill-opacity:1;stroke-width:6;font-variation-settings:normal;opacity:1;vector-effect:none;stroke:#ff7092;stroke-linecap:butt;stroke-linejoin:round;stroke-miterlimit:15;stroke-dasharray:none;stroke-dashoffset:0;stroke-opacity:1;-inkscape-stroke:none;paint-order:stroke markers fill;filter:url(#filter17);stop-color:#000000;stop-opacity:1" />
  </g>
</svg>
