<?xml version="1.0" encoding="UTF-8" standalone="no"?>
<!-- Created with Inkscape (http://www.inkscape.org/) -->

<svg
   width="100mm"
   height="100mm"
   viewBox="0 0 100 100"
   version="1.1"
   id="svg1"
   inkscape:version="1.3.2 (091e20ef0f, 2023-11-25, custom)"
   sodipodi:docname="062308.svg"
   inkscape:export-xdpi="16.256001"
   inkscape:export-ydpi="16.256001"
   xmlns:inkscape="http://www.inkscape.org/namespaces/inkscape"
   xmlns:sodipodi="http://sodipodi.sourceforge.net/DTD/sodipodi-0.dtd"
   xmlns="http://www.w3.org/2000/svg"
   xmlns:svg="http://www.w3.org/2000/svg">
  <sodipodi:namedview
     id="namedview1"
     pagecolor="#000000"
     bordercolor="#000000"
     borderopacity="0.25"
     inkscape:showpageshadow="2"
     inkscape:pageopacity="0.0"
     inkscape:pagecheckerboard="0"
     inkscape:deskcolor="#d1d1d1"
     inkscape:document-units="mm"
     showguides="true"
     inkscape:zoom="2.2621875"
     inkscape:cx="188.97638"
     inkscape:cy="188.97638"
     inkscape:window-width="1920"
     inkscape:window-height="1022"
     inkscape:window-x="0"
     inkscape:window-y="0"
     inkscape:window-maximized="1"
     inkscape:current-layer="layer1">
    <sodipodi:guide
       position="0,99.999999"
       orientation="0,377.95276"
       id="guide4"
       inkscape:locked="false" />
    <sodipodi:guide
       position="99.999999,99.999999"
       orientation="377.95276,0"
       id="guide5"
       inkscape:locked="false" />
    <sodipodi:guide
       position="99.999999,0"
       orientation="0,-377.95276"
       id="guide6"
       inkscape:locked="false" />
    <sodipodi:guide
       position="0,0"
       orientation="-377.95276,0"
       id="guide7"
       inkscape:locked="false" />
    <sodipodi:guide
       position="0,0"
       orientation="0.70710678,-0.70710678"
       id="guide8"
       inkscape:locked="false" />
    <sodipodi:guide
       position="0,99.999999"
       orientation="0.70710678,0.70710678"
       id="guide9"
       inkscape:locked="false"
       inkscape:label=""
       inkscape:color="rgb(0,134,229)" />
    <sodipodi:guide
       position="0,87.499999"
       orientation="0,1"
       id="guide10"
       inkscape:locked="false"
       inkscape:label=""
       inkscape:color="rgb(0,134,229)" />
    <sodipodi:guide
       position="0,12.5"
       orientation="0,1"
       id="guide11"
       inkscape:locked="false"
       inkscape:label=""
       inkscape:color="rgb(0,134,229)" />
    <sodipodi:guide
       position="12.5,99.999999"
       orientation="-1,0"
       id="guide12"
       inkscape:locked="false"
       inkscape:label=""
       inkscape:color="rgb(0,134,229)" />
    <sodipodi:guide
       position="87.499999,99.999999"
       orientation="-1,0"
       id="guide13"
       inkscape:locked="false"
       inkscape:label=""
       inkscape:color="rgb(0,134,229)" />
  </sodipodi:namedview>
  <defs
     id="defs1">
    <filter
       style="color-interpolation-filters:sRGB"
       inkscape:label="Drop Shadow"
       id="filter17"
       x="-0.42836234"
       y="-0.28000001"
       width="1.8566779"
       height="1.5600003">
      <feFlood
         result="flood"
         in="SourceGraphic"
         flood-opacity="0.75"
         flood-color="rgb(240,142,55)"
         id="feFlood16" />
      <feGaussianBlur
         result="blur"
         in="SourceGraphic"
         stdDeviation="7.500000"
         id="feGaussianBlur16" />
      <feOffset
         result="offset"
         in="blur"
         dx="0.000000"
         dy="0.000000"
         id="feOffset16" />
      <feComposite
         result="comp1"
         operator="in"
         in="flood"
         in2="offset"
         id="feComposite16" />
      <feComposite
         result="comp2"
         operator="over"
         in="SourceGraphic"
         in2="comp1"
         id="feComposite17" />
    </filter>
  </defs>
  <g
     inkscape:label="Layer 1"
     inkscape:groupmode="layer"
     id="layer1">
    <path
       d="m 74.512114,45.200002 q 0,-6.1 -2.749999,-11.35 -2.750003,-5.25 -7.650002,-8.649999 -4.9,-3.4 -10.899999,-4.2 -0.4,-0.5 -0.9,-0.9 -0.3,-0.3 -0.75,-0.5 -0.45,-0.2 -0.45,-0.55 0,-0.35 0.8,-1.15 0.5,-0.5 1.4,-1 0.4,-0.3 0.45,-0.45 0.05,-0.15 -0.55,-0.55 -0.9,-0.7 -1.45,-1.25 -0.55,-0.55 -1.05,-1.45 -0.3,-0.7 -0.55,-0.7 -0.25,0 -0.55,0.7 -0.5,0.9 -1.05,1.45 -0.55,0.55 -1.45,1.25 -0.6,0.4 -0.6,0.55 0,0.15 0.5,0.45 0.9,0.5 1.4,1 0.8,0.8 0.8,1.15 0,0.35 -0.45,0.55 -0.45,0.2 -0.75,0.5 -0.5,0.4 -0.9,0.9 -5.5,0.7 -10.1,3.7 -9.4,-5.3 -11.199999,-2.8 -0.700001,1 0.1,4.449999 0.8,3.450001 2.799999,7.25 -3,5.5 -2.949999,11.65 0.05,6.15 2.999999,11.599999 2.95,5.45 8.15,8.8 5.2,3.350002 11.4,3.849999 -1.1,0.3 -2.3,1.100002 -1.2,0.800001 -1.2,1.400001 0,0.6 0.4,0.999999 l 0.9,0.6 0.95,0.699998 0.35,0.800002 q 0,1.700001 -2.4,3.299999 -0.6,0.399999 -1.8,0.800002 -0.6,0.199997 -0.7,0.3 -0.3,0.3 -0.3,0.799997 v 1.000003 q 0,0.499997 0.6,0.499997 h 4.4 q 0.7,0 0.7,0.3 0,0.3 -0.5,0.550001 -0.5,0.25 -1.4,0.349999 -0.7,0.100003 -2.3,0.200001 h -5.9 q -0.8,0 -2.65,1.55 -1.85,1.549999 -1.85,2.05 0,0.500001 0.25,0.6 0.25,0.1 0.75,0.1 h 31.599999 q 0.500001,0 0.750002,-0.1 0.249997,-0.1 0.249997,-0.6 0,-0.500001 -1.799999,-2.05 -1.8,-1.55 -2.6,-1.55 h -4.5 V 80.3 q 0.100001,-0.499997 -0.199999,-0.799997 -0.100001,-0.100003 -0.800001,-0.3 -1.1,-0.400003 -1.7,-0.800002 -2.399999,-1.599998 -2.399999,-3.299999 0,-0.500002 0.3,-0.800002 0.3,-0.3 0.949999,-0.699998 0.650001,-0.399999 0.950001,-0.6 0.399999,-0.399999 0.399999,-0.999999 0,-0.6 -1.2,-1.400001 Q 53.112114,69.8 52.012114,69.5 q 5.2,-0.399998 9.899999,-2.899999 3.7,1.9 7,2.649999 3.3,0.750002 4.400001,-0.05 2.299998,-1.699999 -2.7,-10.699999 3.999999,-6.099999 3.9,-13.299999 z m -3.200001,0 q 0,5.4 -2.499999,10.099999 l -0.3,-0.4 q -3.600001,-5.799999 -9.900001,-12.399999 -0.499999,-5.9 -1.9,-10.8 -1.899999,-6.1 -4.499999,-7.599999 5.3,0.6 9.699999,3.5 4.399999,2.899999 6.900001,7.549999 2.499999,4.65 2.499999,10.05 z m -16.299999,-6.3 q -4.2,-4.3 -8.9,-8.1 1.7,-2.5 3.8,-2.5 2.1,0 3.5,3.5 1,2.6 1.6,7.1 z m 3.699999,8.5 q 1.2,1.8 1.9,2.8 2.2,3.199999 3.2,5.699999 1.1,3.3 -0.2,4.65 -1.3,1.35 -7.2,-0.95 1.700001,-5.399999 2.3,-12.199999 z M 48.912114,24.100003 q -2.6,1.1 -4.5,5.399999 -2.2,-1.599999 -4.3,-2.899999 4.1,-2.3 8.8,-2.5 z m -19.9,21.099999 q 0,-4.3 1.7,-8.3 l 0.7,0.9 q 2.9,3.8 5.5,6.9 2.1,2.5 2.25,2.35 0.15,-0.15 0.1,-0.45 -0.05,-0.3 -0.45,-0.8 l -0.4,-0.8 q -1.9,-3.7 -3,-6.6 -2.2,-5.6 -1,-6.8 1.2,-1.199999 3.8,-0.5 2.2,0.5 4.9,2.2 -0.7,3 -1.1,6 h 0.3 q 0.2,-0.1 0.45,-0.4 0.25,-0.3 0.45,-1 0.4,-1.9 1.2,-3.8 l 5.3,3.8 q -2.6,0.1 -4.6,1.75 -2,1.65 -2.65,4.1 -0.65,2.45 0.2,4.85 0.85,2.4 2.95,3.85 2.1,1.45 4.7,1.399999 2.6,-0.05 4.599999,-1.549999 -0.799999,5.199999 -2.199999,7.599999 -0.1,0 0,0.1 -1.2,2.1 -2.8,2.1 -2.7,0 -4.9,-4.4 -1.2,-2.4 -1.8,-5.299999 -0.2,-0.9 -0.7,-1.2 -0.3,-0.2 -0.5,-0.2 l 0.3,2.099999 q 0.4,2.600001 1.1,4.8 0.9,3.1 2.1,5.1 1.6,2.6 3.5,3.3 -5.5,-0.3 -10.1,-3.2 -4.6,-2.9 -7.25,-7.65 -2.65,-4.749999 -2.65,-10.249999 z m 23.1,21.099999 q 1.8,-0.9 3.3,-4.1 l 1.899999,1.5 1.3,0.9 q -3.1,1.4 -6.499999,1.7 z"
       id="path1"
       style="fill:#ffffff;fill-opacity:1;stroke-width:6;font-variation-settings:normal;opacity:1;vector-effect:none;stroke:#f08e37;stroke-linecap:butt;stroke-linejoin:round;stroke-miterlimit:4;stroke-dasharray:none;stroke-dashoffset:0;stroke-opacity:1;-inkscape-stroke:none;paint-order:stroke markers fill;filter:url(#filter17);stop-color:#000000;stop-opacity:1" />
  </g>
</svg>
