<?xml version="1.0" encoding="UTF-8" standalone="no"?>
<!-- Created with Inkscape (http://www.inkscape.org/) -->

<svg
   width="100mm"
   height="100mm"
   viewBox="0 0 100 100"
   version="1.1"
   id="svg1"
   inkscape:version="1.3.2 (091e20ef0f, 2023-11-25, custom)"
   sodipodi:docname="062307.svg"
   inkscape:export-xdpi="16.256001"
   inkscape:export-ydpi="16.256001"
   xmlns:inkscape="http://www.inkscape.org/namespaces/inkscape"
   xmlns:sodipodi="http://sodipodi.sourceforge.net/DTD/sodipodi-0.dtd"
   xmlns="http://www.w3.org/2000/svg"
   xmlns:svg="http://www.w3.org/2000/svg">
  <sodipodi:namedview
     id="namedview1"
     pagecolor="#000000"
     bordercolor="#000000"
     borderopacity="0.25"
     inkscape:showpageshadow="2"
     inkscape:pageopacity="0.0"
     inkscape:pagecheckerboard="0"
     inkscape:deskcolor="#d1d1d1"
     inkscape:document-units="mm"
     showguides="true"
     inkscape:zoom="2.2621875"
     inkscape:cx="188.97638"
     inkscape:cy="188.97638"
     inkscape:window-width="1920"
     inkscape:window-height="1022"
     inkscape:window-x="0"
     inkscape:window-y="0"
     inkscape:window-maximized="1"
     inkscape:current-layer="layer1">
    <sodipodi:guide
       position="0,99.999999"
       orientation="0,377.95276"
       id="guide4"
       inkscape:locked="false" />
    <sodipodi:guide
       position="99.999999,99.999999"
       orientation="377.95276,0"
       id="guide5"
       inkscape:locked="false" />
    <sodipodi:guide
       position="99.999999,0"
       orientation="0,-377.95276"
       id="guide6"
       inkscape:locked="false" />
    <sodipodi:guide
       position="0,0"
       orientation="-377.95276,0"
       id="guide7"
       inkscape:locked="false" />
    <sodipodi:guide
       position="0,0"
       orientation="0.70710678,-0.70710678"
       id="guide8"
       inkscape:locked="false" />
    <sodipodi:guide
       position="0,99.999999"
       orientation="0.70710678,0.70710678"
       id="guide9"
       inkscape:locked="false"
       inkscape:label=""
       inkscape:color="rgb(0,134,229)" />
    <sodipodi:guide
       position="0,87.499999"
       orientation="0,1"
       id="guide10"
       inkscape:locked="false"
       inkscape:label=""
       inkscape:color="rgb(0,134,229)" />
    <sodipodi:guide
       position="0,12.5"
       orientation="0,1"
       id="guide11"
       inkscape:locked="false"
       inkscape:label=""
       inkscape:color="rgb(0,134,229)" />
    <sodipodi:guide
       position="12.5,99.999999"
       orientation="-1,0"
       id="guide12"
       inkscape:locked="false"
       inkscape:label=""
       inkscape:color="rgb(0,134,229)" />
    <sodipodi:guide
       position="87.499999,99.999999"
       orientation="-1,0"
       id="guide13"
       inkscape:locked="false"
       inkscape:label=""
       inkscape:color="rgb(0,134,229)" />
  </sodipodi:namedview>
  <defs
     id="defs1">
    <filter
       style="color-interpolation-filters:sRGB"
       inkscape:label="Drop Shadow"
       id="filter17"
       x="-0.28610217"
       y="-0.27999016"
       width="1.5721992"
       height="1.5599902">
      <feFlood
         result="flood"
         in="SourceGraphic"
         flood-opacity="0.75"
         flood-color="rgb(240,142,55)"
         id="feFlood16" />
      <feGaussianBlur
         result="blur"
         in="SourceGraphic"
         stdDeviation="7.500000"
         id="feGaussianBlur16" />
      <feOffset
         result="offset"
         in="blur"
         dx="0.000000"
         dy="0.000000"
         id="feOffset16" />
      <feComposite
         result="comp1"
         operator="in"
         in="flood"
         in2="offset"
         id="feComposite16" />
      <feComposite
         result="comp2"
         operator="over"
         in="SourceGraphic"
         in2="comp1"
         id="feComposite17" />
    </filter>
  </defs>
  <g
     inkscape:label="Layer 1"
     inkscape:groupmode="layer"
     id="layer1">
    <path
       d="m 22.800001,51.299999 q 1.1,0 1.8,0.3 Q 25.6,52 26.6,52.949999 27.600001,53.9 28.200001,55.1 28.4,55.499999 28.5,55.499999 l 0.1,-0.2 Q 29.500001,54.2 31.800001,54.1 34.5,53.999999 37.2,55.799998 q 0.8,0.600001 2.100001,2.400001 0.6,0.9 0.699999,0.85 0.1,-0.05 -0.1,-0.8 -0.200001,-0.749999 -0.6,-1.55 l -0.2,-0.3 Q 38.700001,55.599999 38.4,55.1 37.699999,54.2 36.649999,53.45 35.600001,52.7 34.300001,52.3 33.5,52.1 33,51.899999 32.3,51.5 31.5,50.699999 29,48.2 29.500001,46.5 q 0.199999,-0.499999 1.2,-1 -0.6,-0.3 -1.2,-0.3 -1.3,0 -2.4,-0.5 Q 26.2,44.4 25.35,42.85 24.500001,41.3 24.3,39.7 24.2,39.1 24.25,37.8 24.3,36.5 24.3,35.9 24.1,34.7 23.6,33.800001 21.7,31.1 19.100001,29 q -1.000001,-0.799999 -2.1,-1.2 0.3,0.7 0.9,1.25 0.6,0.55 1.1,1.75 Q 19.8,32.6 19.8,34.5 q 0,1.000001 -0.899999,2.950001 Q 18,39.4 18,40.4 q 0,1 0.7,2.1 0.400001,0.6 1.400001,1.6 0.8,0.9 1.049999,1.300001 Q 21.400001,45.8 21.400001,46.45 21.400001,47.1 21.2,47.250001 21,47.4 20.250001,47.1 q -0.75,-0.3 -1.85,-1 -0.5,-0.4 -1.45,-1.35 -0.95,-0.95 -1.55,-1.35 -0.9,-0.7 -2.1,-0.9 0.1,0.400001 0.399999,0.6 v 0.1 q 2.200001,2 2.800001,3.7 0.2,0.6 0.2,1.85 0,1.25 0.3,1.649999 0.399999,0.6 1.5,1.65 1.1,1.05 1.399999,1.05 L 20,52.9 q 0.800001,-1.600001 2.800001,-1.600001 z m 9.8,-24.899998 Q 33.5,27.700001 34.7,30.2 35.9,32.7 36.250001,34.05 36.6,35.4 36.6,37.400001 36.7,39.1 36.499999,39.6 36.4,40.4 36,41.100001 36,39.7 35.000001,37.7 q -0.6,-1.3 -2.700001,-3 l -0.6,-0.5 q -0.499999,-0.399999 -1.099999,-0.6 l -0.5,-0.1 1.1,1.500001 q 0.999999,1.299999 1.4,2.4 Q 33.4,39.300001 33.4,41.8 q 0,1.100001 -0.899999,2.9 L 32.1,45.400001 Q 32,45.9 32.25,47 q 0.250001,1.1 0.7,1.7 0.45,0.6 1.400001,1.15 Q 35.3,50.399999 36.4,50.65 q 1.1,0.25 2.6,1.15 1.500001,0.9 2.8,2.25 1.299999,1.35 2.6,2.899999 1.3,1.55 1.75,2.350001 0.45,0.799998 0.649999,1.599999 l 0.3,-0.399999 q 0.2,-0.700001 -0.1,-1.5 V 58.899998 Q 45.499999,53.699999 43,50.399999 41.5,48.5 40.6,46.4 39.799999,44.6 39.7,43.1 39.499999,41.100001 40.8,39.05 42.1,37 42,35.85 41.899999,34.7 41.599999,33.700001 l 0.3,0.199999 q 0.400002,0.400001 0.6,1.000001 Q 42.7,35.600001 42.7,36.6 q 0,0.4 -0.399999,1.7 -0.700002,2.5 -0.450001,3.85 0.25,1.35 2.55,4.15 0.7,0.9 0.899999,1.1 0.6,1 0.8,2.3 Q 46.3,49.2 46.3,48.7 q 0,-0.3 0.249999,-1.449999 0.25,-1.150001 0.6,-1.800001 0.350001,-0.649999 1.2,-1.5 0.85,-0.85 1.250001,-0.9 0.399999,-0.05 0.799999,0.35 0.3,-1.8 0.1,-3.6 -0.2,-2.399999 -3.899999,-5.9 -2.000001,-1.8 -3.200001,-4.599999 -1.299999,-3 -1.399999,-6.5 -0.2,-4.3 4.099999,-8.500001 l 0.3,-0.299999 1.3,-1.500001 -1.3,0.700001 q -1.699999,1 -3.399999,2.5 -2.2,2 -4.5,5.499999 -0.9,1.400001 -1.1,2.9 -0.300001,1.3 0,2.1 0.1,0.3 0.55,1.350001 0.45,1.049999 0.55,1.25 0.100001,0.7 0.100001,1.3 L 38.100001,29.1 Q 37.5,28 37,27.4 q -1,-0.999999 -2.2,-1.799999 -0.8,-0.6 -2.7,-1.6 -1.2,-0.7 -2.3,-1.000001 l -0.8,-0.299999 1.2,1.2 q 1.5,1.3 2.400001,2.5 z m 18.699998,23.699998 q 0.1,0.700001 -0.45,1.35 -0.55,0.650001 -1.05,0.650001 -0.499999,0 -0.9,-0.500001 -0.199999,-0.3 -0.3,-0.6 -0.199999,0.100001 -0.6,0.9 -0.4,0.800001 -0.4,1.900001 0,1.799999 1.400001,3.7 l 1.799999,2.499999 0.1,-0.399999 q 0.1,-0.400001 0,-0.650001 Q 50.799999,58.7 50.599999,58.4 50.2,57.8 50.2,57.099999 q -0.100001,-1.5 0.799999,-2.699999 0.3,-0.5 0.75,-0.8 0.45,-0.3 0.8,-0.1 0.35,0.199999 0.15,1 l -0.4,0.799999 q 0.7,-0.100001 1.1,-0.599999 1.5,-1.5 1.7,-3.3 0.2,-1.8 -0.8,-2.8 -1.6,-1.6 -1.4,-2.8 0.1,-0.9 0.6,-2 0.4,-1 0.9,-1.7 l 0.4,-0.7 q 1,-1.4 1,-1.8 -0.9,0.900001 -1.800001,1.9 -1.299999,1.5 -2.499999,3.300001 -0.4,0.699999 -0.95,1.849999 -0.55,1.15 -0.55,1.45 L 50.2,48.3 q 0.999999,0.7 1.099999,1.799999 z m 8.9,-7.399999 q 0.4,-0.5 1.4,-1.5 1.9,-1.8 2.6,-2.599999 1.2,-1.500001 1.6,-2.900001 0.2,-0.699999 0.2,-2.4 v -0.799999 q 0.299999,0.399999 0.4,0.899999 0.3,1.3 0.1,2.6 -0.1,0.9 -0.6,2.15 -0.5,1.25 -1.3,2.350001 -0.800001,1.099999 -2.15,2.45 -1.35,1.349999 -1.85,1.649999 l -1.2,0.7 0.3,0.4 q 0.399999,0.5 0.399999,1 -0.1,2 -1.399999,2.9 -1.7,1.3 -2,1.75 -0.3,0.45 -0.2,1.05 0.3,-0.4 0.8,-0.650001 0.5,-0.249999 0.999999,0.15 Q 58.499999,52.1 58.449999,52.55 q -0.05,0.45 -0.25,0.75 l -1.7,2.299999 q -0.8,1.000001 -1.15,2.25 -0.35,1.25 -0.05,2.45 l 0.3,-0.9 q 0.5,-1.100001 1,-1.899999 1.8,-2.600001 3.9,-3.7 1.499999,-0.8 3.399999,-1.300001 L 64.099999,51.4 q 0.299999,-1.300001 0.999999,-2.1 0.700001,-1 1.8,-1.65 1.100001,-0.65 1.9,-0.65 l 0.499999,-0.1 q 1.400001,-0.1 1.8,-0.2 0.4,-0.1 1.100002,-0.6 0.899999,-0.6 1.499999,-1.299999 Q 74.599999,43.8 74.999997,42.6 l 0.200002,-0.899999 -0.500001,0.6 Q 73.999999,43 73.599996,43.2 q -0.6,0.4 -2.599997,0.5 l -0.800001,0.1 q -0.699999,0.2 -1.299999,0.7 l -0.9,0.6 q 0,-0.4 0.199999,-0.85 0.200001,-0.45 0.8,-1.05 0.800001,-1 1.7,-1.4 2.199999,-1 3.199999,-2.2 0.700002,-0.7 1.000001,-1.7 0.1,-0.6 0.199999,-1.749999 0.100002,-1.15 0.200001,-1.650001 0.399999,-2.3 2.699999,-4.3 2.000002,-1.6 4.400001,-2.4 -0.800001,-0.1 -1.600001,-0.1 -1.800001,0.299999 -3.499999,1 -2.4,0.9 -4.000001,2.9 l -0.199999,0.200001 Q 72.499998,32.6 72.099997,32.9 q -0.699999,0.5 -1.399999,0.3 -1.299999,-0.4 -1.400001,-2.4 l 0.100002,-1.299999 q 0,-1.700001 -0.05,-2.5 -0.05,-0.800001 -0.849997,-2.4 -0.8,-1.600001 -1.7,-2.900001 -1.3,-1.9 -3.000001,-3.6 -1.399999,-1.3 -3.099999,-2.099999 0.4,0.7 0.9,1.2 1.4,1.3 2,2.599999 0.899999,2.300001 0.899999,4.9 0,3.1 -1.599999,5.400001 -0.8,0.999999 -2.45,2.549999 -1.65,1.55 -1.75,2.15 -0.2,1.300001 0.4,2.4 0.4,1 0.2,2.100001 v 0.1 q -0.2,1.700001 -0.8,2.6 l -2.3,3.400001 q 0,0.1 1.6,-0.900001 1.6,-1 2.399999,-1.8 z m 23.499999,1.7 q -0.6,0.6 -1.3,1.5 l -0.5,0.8 q -0.6,0.7 -1.2,1 -0.4,0.1 -1.2,0.2 L 79.199997,48 q -0.800001,0.1 -1.7,0 0.6,-0.7 1.1,-1.6 0.300001,-0.6 0.450002,-1.9 0.149998,-1.3 0,-2.7 -0.150001,-1.4 -0.6,-2.65 Q 77.999997,37.9 77.55,37.2 77.099998,36.5 76.399999,36 l 0.399998,0.9 q 0.200002,0.3 0.250002,1.750001 0.05,1.449999 -0.150002,3.05 Q 76.799996,42.7 76.399999,43.5 q -0.300001,0.5 -0.900001,1.25 -0.6,0.75 -0.899999,1.250001 Q 73.899997,47.1 72.949996,47.9 q -0.949998,0.8 -2.549997,1.5 -3.1,1.4 -4.9,3.2 -0.7,0.7 -1.4,1.999998 l -0.6,1.300001 q 0.7,-0.499999 1.4,-1.099999 0.4,-0.3 1.55,-0.9 1.149999,-0.6 2.05,-0.85 0.9,-0.250001 2.299999,-0.2 1.400001,0.05 2.199998,0.35 1.2,0.4 2.200003,1.099999 Q 75.599997,53.2 76.299997,52.3 q 1.1,-1.5 2.600001,-1.7 l 0.6,-0.1 q 0.999998,0 1.499999,-0.100001 0.900001,-0.3 1.500001,-0.899999 0.899999,-0.8 1.400001,-2.4 l 0.399999,-1.2 q 0.399998,-0.8 1.400001,-1.8 l 0.999998,-0.9 q -1.7,0 -2.999999,1.2 z m -9.6,22.599999 q -1,0 -1.800001,1.099999 -0.399999,0.6 -0.899999,2.100001 -0.399999,0.999997 -0.649999,1.400001 -0.250002,0.399999 -0.800003,0.699998 -0.549997,0.300001 -1.049997,0 -0.9,-0.699998 -0.3,-2.499998 0.3,-0.800001 2.099999,-2.700001 l 0.799999,-1 q 2.500002,-2.9 2.500002,-5.7 0,-1.8 -1.100002,-2.95 Q 71.799996,56.3 69.999999,56.3 q -3.100001,0 -4.6,2.1 -0.1,0.1 -0.25,0.1 -0.150001,0 -0.25,-0.1 -0.400001,-0.700002 -0.95,-1.2 -0.55,-0.500001 -1.15,-0.6 -0.6,-0.100001 -0.800001,0.1 l 0.300001,0.399999 q 0.299999,0.500001 0.2,1.000002 -0.2,1.099999 -3.3,2.499999 -2.2,1 -5.200001,1.3 Q 52.299999,62.1 49.6,62.1 h -0.200001 q -2.7,0 -4.399999,-0.2 -3,-0.3 -5.200001,-1.3 -3.199999,-1.4 -3.3,-2.499999 h -0.1 q -0.1,-0.700001 0.6,-1.400001 -0.3,-0.2 -0.849999,-0.1 -0.55,0.1 -1.15,0.6 -0.6,0.499998 -0.900001,1.2 -0.1,0.1 -0.299999,0.1 -0.200001,0 -0.200001,-0.1 -1.6,-2.1 -4.6,-2.1 -1.8,0 -2.95,1.149999 -1.15,1.15 -1.15,2.95 0,2.7 2.600001,5.7 l 0.8,1 q 1.8,1.9 1.999999,2.700001 0.7,1.8 -0.299999,2.499998 -0.5,0.300001 -1.050001,0 Q 28.399999,71.999999 28.2,71.6 q -0.200001,-0.400004 -0.6,-1.400001 -0.500001,-1.500001 -1.000001,-2.100001 -0.7,-1.099999 -1.8,-1.099999 Q 22.7,66.999999 22.1,68.9 q -0.400001,1.099996 0,1.899999 Q 22.5,71.6 22.9,71.6 V 71 q 0.1,-0.6 0.400001,-0.9 0.5,-0.6 1.2,-0.6 0.5,0 0.849999,0.399998 0.350001,0.399999 0.55,0.999999 0.6,1.900003 1.4,2.699999 0.800001,0.800003 1.450001,1.150001 0.65,0.35 1.449999,0.35 0.8,0 1.4,-0.300001 l 0.300001,-0.299999 Q 32,75.8 32.500001,77 q 0.7,1.8 2.299999,2.899996 0.6,0.400003 1.65,0.950004 1.05,0.549997 1.650001,0.949999 1.2,0.799998 2.199999,1.899999 V 84.5 q 0,0.499997 0.800001,1.099997 Q 42.1,86.3 43.8,86.799997 46.199999,87.5 49.549999,87.5 q 3.35,0 5.649999,-0.700003 1.700001,-0.499997 2.700001,-1.2 0.8,-0.6 0.8,-1.099997 v -0.800002 q 1,-1.100001 2.2,-1.899999 0.6,-0.400002 1.649999,-0.949999 1.050001,-0.550001 1.650001,-0.950004 1.6,-1.099996 2.3,-2.899996 0.399999,-1.2 0.5,-2.500003 l 0.4,0.299999 q 0.5,0.300001 1.299999,0.300001 0.800001,0 1.5,-0.35 0.699999,-0.349998 1.499999,-1.150001 Q 72.499998,72.8 73.099998,70.899997 73.199999,70.4 73.599996,69.999996 q 0.400003,-0.399997 0.800002,-0.399997 0.699999,-0.1 1.199999,0.500001 0.300001,0.3 0.399999,0.999998 L 76.099998,71.6 q 0.4,0 0.799999,-0.800001 0.400001,-0.800003 0,-1.899999 -0.7,-1.900001 -2.799999,-1.900001 z M 34.2,70.299997 Q 33.800001,71 33,71.399999 v -0.500002 q 0,-0.6 -0.2,-1.2 -0.4,-0.999999 -1.3,-1.999998 l -0.4,-0.6 Q 29.2,64.899999 28.900001,63.65 28.6,62.399999 29.05,61.349998 q 0.450001,-1.049999 1.15,-1.349999 1.4,-0.6 3.2,0.9 0.900001,0.800001 1.4,1.8 0.3,0.7 0.3,1.3 0,0.6 -0.199999,0.9 -0.200001,0.3 -0.5,0.3 -0.6,0 -0.800001,-0.3 -0.2,-0.3 -0.3,-0.6 -0.6,0 -0.5,1.25 0.1,1.249999 1.3,1.65 0.5,0.1 1,0 l 0.1,0.4 q 0,0.499999 -0.199999,1.099999 Q 34.8,69.5 34.2,70.299997 Z m 31.799999,1.100002 q -0.8,-0.399999 -1.3,-1.150001 -0.5,-0.749998 -0.7,-1.55 -0.200001,-0.6 -0.200001,-1.099999 l 0.1,-0.5 q 0.5,0.2 1.000001,0.1 1.2,-0.400001 1.25,-1.65 0.05,-1.25 -0.450001,-1.25 -0.1,0.3 -0.299999,0.6 -0.2,0.3 -0.8,0.3 -0.3,0 -0.5,-0.3 -0.200001,-0.3 -0.200001,-0.9 0,-0.6 0.300001,-1.3 0.5,-0.999999 1.399999,-1.8 1.800001,-1.5 3.2,-0.9 0.700001,0.3 1.149998,1.349999 0.450003,1.050001 0.150003,2.300002 -0.3,1.249999 -2.2,3.449999 l -0.5,0.6 q -0.8,0.999999 -1.200001,1.999998 -0.199999,0.700003 -0.199999,1.2 z"
       id="path1"
       style="fill:#ffffff;fill-opacity:1;stroke-width:6;font-variation-settings:normal;opacity:1;vector-effect:none;stroke:#f08e37;stroke-linecap:butt;stroke-linejoin:round;stroke-miterlimit:4;stroke-dasharray:none;stroke-dashoffset:0;stroke-opacity:1;-inkscape-stroke:none;paint-order:stroke markers fill;filter:url(#filter17);stop-color:#000000;stop-opacity:1" />
  </g>
</svg>
