<?xml version="1.0" encoding="UTF-8" standalone="no"?>
<!-- Created with Inkscape (http://www.inkscape.org/) -->

<svg
   width="100mm"
   height="100mm"
   viewBox="0 0 100 100"
   version="1.1"
   id="svg1"
   inkscape:version="1.3.2 (091e20ef0f, 2023-11-25, custom)"
   sodipodi:docname="062305.svg"
   inkscape:export-xdpi="16.256001"
   inkscape:export-ydpi="16.256001"
   xmlns:inkscape="http://www.inkscape.org/namespaces/inkscape"
   xmlns:sodipodi="http://sodipodi.sourceforge.net/DTD/sodipodi-0.dtd"
   xmlns="http://www.w3.org/2000/svg"
   xmlns:svg="http://www.w3.org/2000/svg">
  <sodipodi:namedview
     id="namedview1"
     pagecolor="#000000"
     bordercolor="#000000"
     borderopacity="0.25"
     inkscape:showpageshadow="2"
     inkscape:pageopacity="0.0"
     inkscape:pagecheckerboard="0"
     inkscape:deskcolor="#d1d1d1"
     inkscape:document-units="mm"
     showguides="true"
     inkscape:zoom="2.2621875"
     inkscape:cx="188.97638"
     inkscape:cy="188.97638"
     inkscape:window-width="1920"
     inkscape:window-height="1022"
     inkscape:window-x="0"
     inkscape:window-y="0"
     inkscape:window-maximized="1"
     inkscape:current-layer="layer1">
    <sodipodi:guide
       position="0,99.999999"
       orientation="0,377.95276"
       id="guide4"
       inkscape:locked="false" />
    <sodipodi:guide
       position="99.999999,99.999999"
       orientation="377.95276,0"
       id="guide5"
       inkscape:locked="false" />
    <sodipodi:guide
       position="99.999999,0"
       orientation="0,-377.95276"
       id="guide6"
       inkscape:locked="false" />
    <sodipodi:guide
       position="0,0"
       orientation="-377.95276,0"
       id="guide7"
       inkscape:locked="false" />
    <sodipodi:guide
       position="0,0"
       orientation="0.70710678,-0.70710678"
       id="guide8"
       inkscape:locked="false" />
    <sodipodi:guide
       position="0,99.999999"
       orientation="0.70710678,0.70710678"
       id="guide9"
       inkscape:locked="false"
       inkscape:label=""
       inkscape:color="rgb(0,134,229)" />
    <sodipodi:guide
       position="0,87.499999"
       orientation="0,1"
       id="guide10"
       inkscape:locked="false"
       inkscape:label=""
       inkscape:color="rgb(0,134,229)" />
    <sodipodi:guide
       position="0,12.5"
       orientation="0,1"
       id="guide11"
       inkscape:locked="false"
       inkscape:label=""
       inkscape:color="rgb(0,134,229)" />
    <sodipodi:guide
       position="12.5,99.999999"
       orientation="-1,0"
       id="guide12"
       inkscape:locked="false"
       inkscape:label=""
       inkscape:color="rgb(0,134,229)" />
    <sodipodi:guide
       position="87.499999,99.999999"
       orientation="-1,0"
       id="guide13"
       inkscape:locked="false"
       inkscape:label=""
       inkscape:color="rgb(0,134,229)" />
  </sodipodi:namedview>
  <defs
     id="defs1">
    <filter
       style="color-interpolation-filters:sRGB"
       inkscape:label="Drop Shadow"
       id="filter17"
       x="-0.27999212"
       y="-0.27999203"
       width="1.5599922"
       height="1.559992">
      <feFlood
         result="flood"
         in="SourceGraphic"
         flood-opacity="0.75"
         flood-color="rgb(240,142,55)"
         id="feFlood16" />
      <feGaussianBlur
         result="blur"
         in="SourceGraphic"
         stdDeviation="7.500000"
         id="feGaussianBlur16" />
      <feOffset
         result="offset"
         in="blur"
         dx="0.000000"
         dy="0.000000"
         id="feOffset16" />
      <feComposite
         result="comp1"
         operator="in"
         in="flood"
         in2="offset"
         id="feComposite16" />
      <feComposite
         result="comp2"
         operator="over"
         in="SourceGraphic"
         in2="comp1"
         id="feComposite17" />
    </filter>
  </defs>
  <g
     inkscape:label="Layer 1"
     inkscape:groupmode="layer"
     id="layer1">
    <path
       d="M 53.9,50.199998 76.099993,27.999999 h 1.400001 q 0.9,0.5 2.050001,0.45 1.15,-0.05 2.05,-0.85 1.2,-0.9 1.599999,-2.4 0.3,-0.9 0.399999,-2.699999 0.100002,-1.2 0.200001,-1.7 0.200001,-0.9 0.6,-1.4 0.999998,-1.1 2.7,-2 0.399998,-0.2 0.399998,-0.3 0,-0.1 -0.649999,-0.1 -0.649999,0 -1.649998,0.25 -1.000003,0.25 -2.1,1.1 -1.100001,0.85 -1.2,1.45 l -0.100002,0.6 q -0.199998,1.3 -0.9,2 -1.299999,1.299999 -3,1.1 -1.5,-0.1 -2.4,-1 -0.499997,-0.5 -0.699999,-1.6 -0.1,-0.8 0,-1.7 l 0.1,-0.9 -1.8,-0.3 Q 70.699998,17.8 68.199999,17.9 64.6,18 61.2,18.9 q -3.9,0.9 -8.099999,2.9 -2.3,1.2 -5.9,3.2 -2.1,1.299999 -2.6,1.399999 -1.599999,0.5 -4.699999,0.100001 -1.5,-0.3 -3.1,-1.2 l -0.4,-0.3 q -0.9,-0.100001 -1.8,0 -0.2,0 -0.2,0.1 0,0.1 0.3,0.399999 l 4.3,4.4 q 0.7,0.6 0.25,1.05 -0.45,0.45 -1.25,0.35 -0.5,0 -1.25,-0.3 -0.75,-0.3 -0.85,-0.2 l -0.8,0.8 q -0.1,0.1 0,0.3 l 3.7,3.699999 q 0.2,0.200001 0.5,0 l 2.2,-2.199999 q 0.399999,-0.4 0.9,0 L 44.5,35.599998 q 0.3,0.3 0.7,-0.399999 1.4,-2.9 3.5,-5.3 2.1,-2.4 6.2,-4.149999 4.099999,-1.750001 8.999999,-2.45 3.399999,-0.6 6.600001,0.2 2.499994,0.6 4.499996,1.9 v 1.599999 L 52.9,49.099998 q -0.2,0.1 -0.2,0.249999 0,0.15 0.1,0.250001 l 0.7,0.7 q 0.2,0.2 0.4,-0.1 z m -36.699997,37.299999 0.199999,-0.400003 q 0.9,-1.699997 2,-2.7 0.5,-0.399998 1.3,-0.499997 0.6,-0.100003 1.7,-0.200001 1.9,-0.200002 2.8,-0.399999 1.5,-0.500001 2.4,-1.700001 0.7,-0.800001 0.799999,-1.949998 0.100001,-1.150001 -0.499999,-2.050001 V 76.199996 L 51.3,52.799997 l 20.799995,20.900001 0.200001,4.299998 0.999998,0.999999 0.1,-1.999998 q 0,-0.500001 0.500001,-0.700002 l -0.1,3.200001 6.899999,6.899999 -0.200001,-4.899998 0.999999,-1.000002 4.900002,0.200001 -6.9,-6.9 -3.200001,0.1 q 0.200001,-0.499997 0.699999,-0.499997 l 1.900002,-0.100003 -1.000002,-1.099997 -4.2,-0.100003 L 27.500002,25.9 q -3.8,-3.7 -3.7,-4.7 0.1,-0.5 0.9,-0.7 0.3,-0.1 0.7,-0.1 l -12.899999,-7.9 7.799999,12.9 0.2,-0.7 q 0.2,-0.8 0.7,-0.8 1,-0.200001 4.7,3.599999 l 6.7,6.7 -1.800001,1.699999 q -0.1,0.100001 0.15,0.850001 0.25,0.75 0.35,1.249999 0.100001,0.9 -0.35,1.3 -0.449999,0.4 -1.049999,-0.2 l -4.4,-4.399999 q -0.3,-0.3 -0.4,-0.3 -0.1,0 -0.1,0.3 -0.1,0.8 0,1.7 l 0.3,0.399999 q 0.9,1.600001 1.2,3.1 0.4,3.1 -0.1,4.7 -0.1,0.5 -1.4,2.7 -2,3.5 -3.2,5.899999 -2,4.1 -2.9,8 -0.9,3.5 -1,6.999998 -0.1,2.600001 0.1,4.900003 l 0.3,1.799999 0.8,-0.100002 q 1,-0.1 1.8,0.100002 1.1,0.1 1.6,0.6 0.9,0.9 1,2.4 0.2,1.699998 -1.1,3 -0.7,0.699999 -1.9,0.9 l -0.7,0.1 q -0.8,0.3 -1.5,1.249999 -0.7,0.949999 -1,2.000001 -0.3,1.049998 -0.249999,1.700001 0.05,0.65 0.15,0.649999 z m 8.199999,-12.500001 q -1.3,-2.000001 -1.9,-4.500003 -0.8,-3.199998 -0.2,-6.599996 0.7,-4.9 2.45,-9 1.75,-4.099999 4.15,-6.199999 2.4,-2.1 5.299999,-3.5 0.7,-0.4 0.4,-0.7 l -2.2,-2.1 q -0.4,-0.5 0,-0.9 l 3.3,-3.3 L 50.2,51.799997 27.000002,74.999996 Z"
       id="path1"
       style="fill:#ffffff;fill-opacity:1;stroke-width:6;font-variation-settings:normal;opacity:1;vector-effect:none;stroke:#f08e37;stroke-linecap:butt;stroke-linejoin:round;stroke-miterlimit:4;stroke-dasharray:none;stroke-dashoffset:0;stroke-opacity:1;-inkscape-stroke:none;paint-order:stroke markers fill;filter:url(#filter17);stop-color:#000000;stop-opacity:1" />
  </g>
</svg>
