<?xml version="1.0" encoding="UTF-8" standalone="no"?>
<!-- Created with Inkscape (http://www.inkscape.org/) -->

<svg
   width="100mm"
   height="100mm"
   viewBox="0 0 100 100"
   version="1.1"
   id="svg1"
   inkscape:version="1.3.2 (091e20ef0f, 2023-11-25, custom)"
   sodipodi:docname="062411.svg"
   inkscape:export-xdpi="16.256001"
   inkscape:export-ydpi="16.256001"
   xmlns:inkscape="http://www.inkscape.org/namespaces/inkscape"
   xmlns:sodipodi="http://sodipodi.sourceforge.net/DTD/sodipodi-0.dtd"
   xmlns="http://www.w3.org/2000/svg"
   xmlns:svg="http://www.w3.org/2000/svg">
  <sodipodi:namedview
     id="namedview1"
     pagecolor="#000000"
     bordercolor="#000000"
     borderopacity="0.25"
     inkscape:showpageshadow="2"
     inkscape:pageopacity="0.0"
     inkscape:pagecheckerboard="0"
     inkscape:deskcolor="#d1d1d1"
     inkscape:document-units="mm"
     showguides="true"
     inkscape:zoom="2.2621875"
     inkscape:cx="188.97638"
     inkscape:cy="188.97638"
     inkscape:window-width="1920"
     inkscape:window-height="1022"
     inkscape:window-x="0"
     inkscape:window-y="0"
     inkscape:window-maximized="1"
     inkscape:current-layer="layer1">
    <sodipodi:guide
       position="0,99.999999"
       orientation="0,377.95276"
       id="guide4"
       inkscape:locked="false" />
    <sodipodi:guide
       position="99.999999,99.999999"
       orientation="377.95276,0"
       id="guide5"
       inkscape:locked="false" />
    <sodipodi:guide
       position="99.999999,0"
       orientation="0,-377.95276"
       id="guide6"
       inkscape:locked="false" />
    <sodipodi:guide
       position="0,0"
       orientation="-377.95276,0"
       id="guide7"
       inkscape:locked="false" />
    <sodipodi:guide
       position="0,0"
       orientation="0.70710678,-0.70710678"
       id="guide8"
       inkscape:locked="false" />
    <sodipodi:guide
       position="0,99.999999"
       orientation="0.70710678,0.70710678"
       id="guide9"
       inkscape:locked="false"
       inkscape:label=""
       inkscape:color="rgb(0,134,229)" />
    <sodipodi:guide
       position="0,87.499999"
       orientation="0,1"
       id="guide10"
       inkscape:locked="false"
       inkscape:label=""
       inkscape:color="rgb(0,134,229)" />
    <sodipodi:guide
       position="0,12.5"
       orientation="0,1"
       id="guide11"
       inkscape:locked="false"
       inkscape:label=""
       inkscape:color="rgb(0,134,229)" />
    <sodipodi:guide
       position="12.5,99.999999"
       orientation="-1,0"
       id="guide12"
       inkscape:locked="false"
       inkscape:label=""
       inkscape:color="rgb(0,134,229)" />
    <sodipodi:guide
       position="87.499999,99.999999"
       orientation="-1,0"
       id="guide13"
       inkscape:locked="false"
       inkscape:label=""
       inkscape:color="rgb(0,134,229)" />
  </sodipodi:namedview>
  <defs
     id="defs1">
    <filter
       style="color-interpolation-filters:sRGB"
       inkscape:label="Drop Shadow"
       id="filter17"
       x="-0.37146149"
       y="-0.27981984"
       width="1.7431499"
       height="1.5598198">
      <feFlood
         result="flood"
         in="SourceGraphic"
         flood-opacity="0.75"
         flood-color="rgb(240,142,55)"
         id="feFlood16" />
      <feGaussianBlur
         result="blur"
         in="SourceGraphic"
         stdDeviation="7.500000"
         id="feGaussianBlur16" />
      <feOffset
         result="offset"
         in="blur"
         dx="0.000000"
         dy="0.000000"
         id="feOffset16" />
      <feComposite
         result="comp1"
         operator="in"
         in="flood"
         in2="offset"
         id="feComposite16" />
      <feComposite
         result="comp2"
         operator="over"
         in="SourceGraphic"
         in2="comp1"
         id="feComposite17" />
    </filter>
  </defs>
  <g
     inkscape:label="Layer 1"
     inkscape:groupmode="layer"
     id="layer1">
    <path
       d="M 76.683531,47.795086 Q 75.120346,46.2319 73.348738,44.981352 51.776774,29.662133 30.204812,14.447126 L 30.1006,14.342914 q -1.980035,-1.354761 -3.022159,-1.667398 -3.022159,-0.833699 -4.793769,2.292672 -1.458973,2.396885 1.042124,4.37692 1.042124,0.833699 3.334796,2.396885 l 9.900175,7.086441 Q 52.610473,40.08337 60.530613,45.815051 l 1.875823,1.250548 q 1.667398,1.042124 2.501097,1.667398 1.458973,1.146336 2.396884,2.396885 -0.937911,0.833699 -2.084247,1.563185 -3.855858,1.875823 -5.314831,3.647433 -1.458973,1.771611 -1.042124,3.960071 0.416849,2.18846 2.813734,5.627468 1.458974,2.084247 3.230584,3.960069 1.458973,1.458975 1.146336,2.917946 -0.312637,1.250548 -1.875823,2.501097 -1.354761,1.042126 -1.875823,1.250548 -0.521062,0.208426 -1.042123,-0.416848 -0.41685,-0.416848 -1.667398,-2.396886 -2.396885,-3.543219 -3.439009,-5.523254 -1.667398,-3.439008 -4.689556,-1.77161 -2.292673,1.35476 -0.729487,4.48113 2.501097,5.002194 3.855858,7.39908 2.292672,4.064282 4.689556,6.878017 1.875823,2.292671 3.126372,2.292671 1.250548,0 3.126371,-2.396882 1.354761,-1.771612 3.855858,-5.419047 l 1.146339,-1.667396 q 2.292671,-3.334798 2.709519,-4.37692 0.625274,-1.563186 -0.104211,-3.02216 -0.521063,-1.042122 -3.126372,-4.168493 l -0.312637,-0.41685 q -1.042125,-1.250548 -2.709523,-3.126371 -2.084247,-2.18846 -2.292672,-2.917946 -0.312637,-0.937912 1.042124,-1.667399 1.042123,-0.625274 5.314831,-2.18846 l 0.521063,-0.104212 q 1.146338,-0.521062 3.54322,-1.667398 l 0.312637,-0.208425 q 2.813734,-1.458973 2.813734,-3.126371 0.104215,-1.354761 -1.563186,-3.230583 z m -21.363537,6.14853 q 0.625275,-2.709522 -0.05211,-4.585345 -0.67738,-1.875822 -2.970053,-3.334796 -4.168494,-2.813734 -12.401272,-8.649627 L 28.53741,29.453708 q -1.146336,-0.833699 -2.344778,-0.885805 -1.198442,-0.05211 -1.563186,1.09423 -0.364743,1.146336 0,2.709521 0.364744,1.563186 1.09423,2.396885 0.729487,0.833699 1.563186,1.250549 0.729487,0.416849 1.250548,0.729486 11.984423,8.649627 18.341378,12.922334 l 0.208425,0.104213 q 1.980035,1.354761 2.709521,2.18846 1.250549,1.563185 0.937912,3.230583 -0.208425,1.146336 -1.042124,2.292673 -0.833699,1.146335 -1.823716,1.35476 -0.990018,0.208425 -1.927929,-0.468955 -0.937912,-0.677381 -0.833699,-1.719505 0.104212,-2.709521 -1.042124,-4.064282 -0.833699,-1.146336 -3.334796,-2.084247 -0.833699,2.188459 -1.042124,4.793769 -0.104212,1.458973 0.104213,4.481132 l 0.104212,1.042123 q 0.208425,2.396885 1.458974,3.230584 1.146335,0.625274 3.54322,0.208425 3.543221,-0.521062 5.47115,-1.51108 1.927928,-0.990017 3.022158,-2.970052 1.09423,-1.980035 1.927929,-5.835893 z"
       id="path1"
       style="fill:#ffffff;fill-opacity:1;stroke-width:6;font-variation-settings:normal;opacity:1;vector-effect:none;stroke:#f08e37;stroke-linecap:butt;stroke-linejoin:round;stroke-miterlimit:4;stroke-dasharray:none;stroke-dashoffset:0;stroke-opacity:1;-inkscape-stroke:none;paint-order:stroke markers fill;filter:url(#filter17);stop-color:#000000;stop-opacity:1" />
  </g>
</svg>
