<?xml version="1.0" encoding="UTF-8" standalone="no"?>
<!-- Created with Inkscape (http://www.inkscape.org/) -->

<svg
   width="100mm"
   height="100mm"
   viewBox="0 0 100 100"
   version="1.1"
   id="svg1"
   inkscape:version="1.3.2 (091e20ef0f, 2023-11-25, custom)"
   sodipodi:docname="062416.svg"
   xml:space="preserve"
   inkscape:export-filename="062416.png"
   inkscape:export-xdpi="16.256001"
   inkscape:export-ydpi="16.256001"
   xmlns:inkscape="http://www.inkscape.org/namespaces/inkscape"
   xmlns:sodipodi="http://sodipodi.sourceforge.net/DTD/sodipodi-0.dtd"
   xmlns="http://www.w3.org/2000/svg"
   xmlns:svg="http://www.w3.org/2000/svg"><sodipodi:namedview
     id="namedview1"
     pagecolor="#000000"
     bordercolor="#000000"
     borderopacity="0.25"
     inkscape:showpageshadow="2"
     inkscape:pageopacity="0.0"
     inkscape:pagecheckerboard="0"
     inkscape:deskcolor="#d1d1d1"
     inkscape:document-units="mm"
     showguides="true"
     inkscape:zoom="2.2621875"
     inkscape:cx="188.97638"
     inkscape:cy="188.97638"
     inkscape:window-width="1920"
     inkscape:window-height="1022"
     inkscape:window-x="0"
     inkscape:window-y="0"
     inkscape:window-maximized="1"
     inkscape:current-layer="layer1"><sodipodi:guide
       position="0,99.999999"
       orientation="0,377.95276"
       id="guide4"
       inkscape:locked="false" /><sodipodi:guide
       position="99.999999,99.999999"
       orientation="377.95276,0"
       id="guide5"
       inkscape:locked="false" /><sodipodi:guide
       position="99.999999,0"
       orientation="0,-377.95276"
       id="guide6"
       inkscape:locked="false" /><sodipodi:guide
       position="0,0"
       orientation="-377.95276,0"
       id="guide7"
       inkscape:locked="false" /><sodipodi:guide
       position="0,0"
       orientation="0.70710678,-0.70710678"
       id="guide8"
       inkscape:locked="false" /><sodipodi:guide
       position="0,99.999999"
       orientation="0.70710678,0.70710678"
       id="guide9"
       inkscape:locked="false"
       inkscape:label=""
       inkscape:color="rgb(0,134,229)" /><sodipodi:guide
       position="0,87.499999"
       orientation="0,1"
       id="guide10"
       inkscape:locked="false"
       inkscape:label=""
       inkscape:color="rgb(0,134,229)" /><sodipodi:guide
       position="0,12.5"
       orientation="0,1"
       id="guide11"
       inkscape:locked="false"
       inkscape:label=""
       inkscape:color="rgb(0,134,229)" /><sodipodi:guide
       position="12.5,99.999999"
       orientation="-1,0"
       id="guide12"
       inkscape:locked="false"
       inkscape:label=""
       inkscape:color="rgb(0,134,229)" /><sodipodi:guide
       position="87.499999,99.999999"
       orientation="-1,0"
       id="guide13"
       inkscape:locked="false"
       inkscape:label=""
       inkscape:color="rgb(0,134,229)" /></sodipodi:namedview><defs
     id="defs1"><filter
       style="color-interpolation-filters:sRGB;"
       inkscape:label="Drop Shadow"
       id="filter17"
       x="-0.28024334"
       y="-0.3715732"
       width="1.5602459"
       height="1.7428618"><feFlood
         result="flood"
         in="SourceGraphic"
         flood-opacity="0.75"
         flood-color="rgb(240,142,55)"
         id="feFlood16" /><feGaussianBlur
         result="blur"
         in="SourceGraphic"
         stdDeviation="7.500000"
         id="feGaussianBlur16" /><feOffset
         result="offset"
         in="blur"
         dx="0.000000"
         dy="0.000000"
         id="feOffset16" /><feComposite
         result="comp1"
         operator="in"
         in="flood"
         in2="offset"
         id="feComposite16" /><feComposite
         result="comp2"
         operator="over"
         in="SourceGraphic"
         in2="comp1"
         id="feComposite17" /></filter></defs><g
     inkscape:label="Layer 1"
     inkscape:groupmode="layer"
     id="layer1"><path
       d="m 85.289875,30.928044 q -0.191852,0 -1.294993,0.191851 -1.103144,0.191851 -1.966473,0.287776 -0.191852,-3.165542 -2.829803,-6.091269 -2.637951,-2.925728 -5.707568,-3.501282 -1.918508,-0.287776 -3.741095,0.671479 -1.534807,0.863329 -2.302213,2.25425 -0.767402,1.390919 0,2.062398 0.191852,0.191851 1.247035,0.383702 1.438882,0.191851 2.11036,0.479627 1.24703,0.575553 1.630734,1.822585 0.767402,2.110361 0.191849,3.501281 -0.575553,1.39092 -1.918508,1.870547 l -9.304777,2.78184 q -1.055178,0.383702 -2.877765,1.05518 -2.302212,0.86333 -3.645169,1.151107 -2.206286,0.575553 -4.8922,0.575553 -2.685914,0 -4.892201,-0.575553 -1.342957,-0.287777 -3.549244,-1.151107 -1.822584,-0.671478 -2.78184,-0.959255 l -3.069616,-0.959255 q -9.208848,-2.781839 -13.23772,-3.932945 -6.906636,-2.014436 -7.769965,-1.91851 -3.549244,0.383702 -1.342958,6.81071 l 0.09593,0.191851 q 2.302212,7.194413 5.851456,12.854018 4.892201,7.865892 10.072178,8.53737 4.028871,0.575553 7.578115,-0.479628 2.206287,-0.575553 5.75553,-2.494062 2.302212,-1.151107 3.453318,-1.630734 2.014436,-0.86333 3.837021,-0.959255 1.726659,0.09593 3.645169,0.863329 1.151106,0.479628 3.261467,1.534808 -1.630734,3.069617 -4.796275,9.016998 -3.645169,7.002562 -4.124797,8.057744 l -0.671478,1.438883 q -0.671479,1.438882 -0.86333,2.11036 -0.287777,0.959257 0.239814,1.342958 0.52759,0.383701 1.58277,-0.383701 0.575554,-0.479629 1.534808,-1.534811 l 0.287777,-0.287776 q 1.822585,-1.822583 6.522935,-7.48219 6.139232,-7.194413 8.057744,-8.921072 2.973689,0.191851 5.947379,-0.191851 5.179978,-0.671478 10.072179,-8.53737 3.549242,-5.659605 5.851454,-12.854018 l 0.09593,-0.191851 q 0.767402,-2.206286 0.86333,-3.741094 0.09592,-2.78184 -2.206288,-3.069616 z M 29.844933,52.031655 q -3.069617,-0.383702 -5.371829,-3.165542 -1.822584,-2.110361 -2.973691,-5.371828 -0.863329,-2.685915 -0.767404,-4.220723 0.09593,-1.05518 5.56368,0.575554 4.604424,1.438882 10.359954,3.980908 5.755531,2.542026 6.61886,3.453318 0.86333,0.911293 -1.199069,2.206287 -2.062398,1.294994 -5.323865,2.062398 -3.741095,0.86333 -6.906636,0.479628 z m 40.288714,0 q -3.165542,0.383702 -6.906637,-0.479628 -3.261469,-0.767404 -5.323867,-2.062398 -2.062399,-1.294994 -1.199069,-2.206287 0.86333,-0.911292 6.61886,-3.453318 5.755531,-2.542026 10.359956,-3.980908 5.467754,-1.630734 5.563678,-0.575554 0.09592,1.534808 -0.767402,4.220723 -1.151106,3.261467 -2.973693,5.371828 -2.302212,2.78184 -5.371826,3.165542 z"
       id="path1"
       style="display:inline;fill:#ffffff;fill-opacity:1;stroke:#f08e37;stroke-width:6;stroke-dasharray:none;stroke-opacity:1;paint-order:stroke markers fill;filter:url(#filter17);stroke-linejoin:round" /></g></svg>
