<?xml version="1.0" encoding="UTF-8" standalone="no"?>
<!-- Created with Inkscape (http://www.inkscape.org/) -->

<svg
   width="100mm"
   height="100mm"
   viewBox="0 0 100 100"
   version="1.1"
   id="svg1"
   inkscape:version="1.3.2 (091e20ef0f, 2023-11-25, custom)"
   sodipodi:docname="062408.svg"
   inkscape:export-xdpi="16.256001"
   inkscape:export-ydpi="16.256001"
   xmlns:inkscape="http://www.inkscape.org/namespaces/inkscape"
   xmlns:sodipodi="http://sodipodi.sourceforge.net/DTD/sodipodi-0.dtd"
   xmlns="http://www.w3.org/2000/svg"
   xmlns:svg="http://www.w3.org/2000/svg">
  <sodipodi:namedview
     id="namedview1"
     pagecolor="#000000"
     bordercolor="#000000"
     borderopacity="0.25"
     inkscape:showpageshadow="2"
     inkscape:pageopacity="0.0"
     inkscape:pagecheckerboard="0"
     inkscape:deskcolor="#d1d1d1"
     inkscape:document-units="mm"
     showguides="true"
     inkscape:zoom="2.2621875"
     inkscape:cx="188.97638"
     inkscape:cy="188.97638"
     inkscape:window-width="1920"
     inkscape:window-height="1022"
     inkscape:window-x="0"
     inkscape:window-y="0"
     inkscape:window-maximized="1"
     inkscape:current-layer="layer1">
    <sodipodi:guide
       position="0,99.999999"
       orientation="0,377.95276"
       id="guide4"
       inkscape:locked="false" />
    <sodipodi:guide
       position="99.999999,99.999999"
       orientation="377.95276,0"
       id="guide5"
       inkscape:locked="false" />
    <sodipodi:guide
       position="99.999999,0"
       orientation="0,-377.95276"
       id="guide6"
       inkscape:locked="false" />
    <sodipodi:guide
       position="0,0"
       orientation="-377.95276,0"
       id="guide7"
       inkscape:locked="false" />
    <sodipodi:guide
       position="0,0"
       orientation="0.70710678,-0.70710678"
       id="guide8"
       inkscape:locked="false" />
    <sodipodi:guide
       position="0,99.999999"
       orientation="0.70710678,0.70710678"
       id="guide9"
       inkscape:locked="false"
       inkscape:label=""
       inkscape:color="rgb(0,134,229)" />
    <sodipodi:guide
       position="0,87.499999"
       orientation="0,1"
       id="guide10"
       inkscape:locked="false"
       inkscape:label=""
       inkscape:color="rgb(0,134,229)" />
    <sodipodi:guide
       position="0,12.5"
       orientation="0,1"
       id="guide11"
       inkscape:locked="false"
       inkscape:label=""
       inkscape:color="rgb(0,134,229)" />
    <sodipodi:guide
       position="12.5,99.999999"
       orientation="-1,0"
       id="guide12"
       inkscape:locked="false"
       inkscape:label=""
       inkscape:color="rgb(0,134,229)" />
    <sodipodi:guide
       position="87.499999,99.999999"
       orientation="-1,0"
       id="guide13"
       inkscape:locked="false"
       inkscape:label=""
       inkscape:color="rgb(0,134,229)" />
  </sodipodi:namedview>
  <defs
     id="defs1">
    <filter
       style="color-interpolation-filters:sRGB"
       inkscape:label="Drop Shadow"
       id="filter17"
       x="-0.31328034"
       y="-0.27980379"
       width="1.6265629"
       height="1.5598037">
      <feFlood
         result="flood"
         in="SourceGraphic"
         flood-opacity="0.75"
         flood-color="rgb(240,142,55)"
         id="feFlood16" />
      <feGaussianBlur
         result="blur"
         in="SourceGraphic"
         stdDeviation="7.500000"
         id="feGaussianBlur16" />
      <feOffset
         result="offset"
         in="blur"
         dx="0.000000"
         dy="0.000000"
         id="feOffset16" />
      <feComposite
         result="comp1"
         operator="in"
         in="flood"
         in2="offset"
         id="feComposite16" />
      <feComposite
         result="comp2"
         operator="over"
         in="SourceGraphic"
         in2="comp1"
         id="feComposite17" />
    </filter>
  </defs>
  <g
     inkscape:label="Layer 1"
     inkscape:groupmode="layer"
     id="layer1">
    <path
       d="m 82.332836,34.363774 q -0.23434,-0.468677 -0.46868,-1.288861 -0.468675,-1.171692 -1.054523,-1.5232 -0.703015,-0.468677 -2.987812,-0.64443 -2.284801,-0.175754 -2.987816,2.987814 -0.351508,1.874706 -0.234336,5.975628 0.117168,1.640369 0,2.226214 -0.117172,1.757538 -2.109045,2.460553 -1.171689,0.468677 -3.983752,0.585846 h -0.117169 q -1.054522,0.117169 -3.983752,-1.40603 -1.757538,-0.937353 -6.209967,-3.515075 -5.272613,-3.163568 -7.850335,-4.45243 -3.163568,-1.523199 -9.490704,-6.327135 -3.632245,-2.812061 -10.662396,-8.55335 -5.389782,-4.335261 -6.561474,-5.038276 l -1.874707,-1.40603 q -2.226214,-1.640368 -3.046398,-1.874707 -1.288862,-0.351507 -2.226215,1.054523 5.155444,12.068426 8.904858,23.433837 3.046398,9.490704 4.921106,18.395562 1.40603,7.030151 2.109045,13.240117 0.351507,4.569598 0.351507,8.201846 l -0.117169,2.694888 -10.662395,0.117172 q -2.694891,0 -3.222153,0.878767 -0.527261,0.878771 0.410092,3.104984 0.351508,0.585848 3.515076,1.523198 3.632244,1.054523 8.084673,1.757538 5.74129,0.703015 11.131073,0.46868 6.678643,-0.23434 12.302764,-1.991878 6.678644,-1.991878 11.599749,-5.975628 9.725039,-9.725044 14.177469,-19.567256 3.397908,-7.615996 3.515076,-15.114824 0.117168,-4.218091 -0.937355,-9.607873 z M 39.683253,76.89619 Q 39.214577,64.94493 37.339869,54.165365 35.113655,41.276755 31.48141,33.660759 l 2.92923,2.694891 q 3.632245,3.280737 6.561474,5.62412 4.218091,3.280737 6.678644,4.218091 1.054522,0.468677 4.21809,1.523199 7.14732,2.460553 10.428058,3.983752 5.62412,2.577723 6.444305,5.038276 l -1.054523,1.640368 q -3.046399,4.921106 -5.389782,7.615997 -3.983753,4.686767 -8.787689,7.381661 -6.209967,3.280736 -13.825964,3.515076 z"
       id="path1"
       style="fill:#ffffff;fill-opacity:1;stroke-width:6;font-variation-settings:normal;opacity:1;vector-effect:none;stroke:#f08e37;stroke-linecap:butt;stroke-linejoin:round;stroke-miterlimit:4;stroke-dasharray:none;stroke-dashoffset:0;stroke-opacity:1;-inkscape-stroke:none;paint-order:stroke markers fill;filter:url(#filter17);stop-color:#000000;stop-opacity:1" />
  </g>
</svg>
