<?xml version="1.0" encoding="UTF-8" standalone="no"?>
<!-- Created with Inkscape (http://www.inkscape.org/) -->

<svg
   width="100mm"
   height="100mm"
   viewBox="0 0 100 100"
   version="1.1"
   id="svg1"
   inkscape:version="1.3.2 (091e20ef0f, 2023-11-25, custom)"
   sodipodi:docname="062306.svg"
   inkscape:export-xdpi="16.256001"
   inkscape:export-ydpi="16.256001"
   xmlns:inkscape="http://www.inkscape.org/namespaces/inkscape"
   xmlns:sodipodi="http://sodipodi.sourceforge.net/DTD/sodipodi-0.dtd"
   xmlns="http://www.w3.org/2000/svg"
   xmlns:svg="http://www.w3.org/2000/svg">
  <sodipodi:namedview
     id="namedview1"
     pagecolor="#000000"
     bordercolor="#000000"
     borderopacity="0.25"
     inkscape:showpageshadow="2"
     inkscape:pageopacity="0.0"
     inkscape:pagecheckerboard="0"
     inkscape:deskcolor="#d1d1d1"
     inkscape:document-units="mm"
     showguides="true"
     inkscape:zoom="2.2621875"
     inkscape:cx="188.97638"
     inkscape:cy="188.97638"
     inkscape:window-width="1920"
     inkscape:window-height="1022"
     inkscape:window-x="0"
     inkscape:window-y="0"
     inkscape:window-maximized="1"
     inkscape:current-layer="layer1">
    <sodipodi:guide
       position="0,99.999999"
       orientation="0,377.95276"
       id="guide4"
       inkscape:locked="false" />
    <sodipodi:guide
       position="99.999999,99.999999"
       orientation="377.95276,0"
       id="guide5"
       inkscape:locked="false" />
    <sodipodi:guide
       position="99.999999,0"
       orientation="0,-377.95276"
       id="guide6"
       inkscape:locked="false" />
    <sodipodi:guide
       position="0,0"
       orientation="-377.95276,0"
       id="guide7"
       inkscape:locked="false" />
    <sodipodi:guide
       position="0,0"
       orientation="0.70710678,-0.70710678"
       id="guide8"
       inkscape:locked="false" />
    <sodipodi:guide
       position="0,99.999999"
       orientation="0.70710678,0.70710678"
       id="guide9"
       inkscape:locked="false"
       inkscape:label=""
       inkscape:color="rgb(0,134,229)" />
    <sodipodi:guide
       position="0,87.499999"
       orientation="0,1"
       id="guide10"
       inkscape:locked="false"
       inkscape:label=""
       inkscape:color="rgb(0,134,229)" />
    <sodipodi:guide
       position="0,12.5"
       orientation="0,1"
       id="guide11"
       inkscape:locked="false"
       inkscape:label=""
       inkscape:color="rgb(0,134,229)" />
    <sodipodi:guide
       position="12.5,99.999999"
       orientation="-1,0"
       id="guide12"
       inkscape:locked="false"
       inkscape:label=""
       inkscape:color="rgb(0,134,229)" />
    <sodipodi:guide
       position="87.499999,99.999999"
       orientation="-1,0"
       id="guide13"
       inkscape:locked="false"
       inkscape:label=""
       inkscape:color="rgb(0,134,229)" />
  </sodipodi:namedview>
  <defs
     id="defs1">
    <filter
       style="color-interpolation-filters:sRGB"
       inkscape:label="Drop Shadow"
       id="filter17"
       x="-0.3128811"
       y="-0.28006956"
       width="1.6257688"
       height="1.5600659">
      <feFlood
         result="flood"
         in="SourceGraphic"
         flood-opacity="0.75"
         flood-color="rgb(107,175,53)"
         id="feFlood16" />
      <feGaussianBlur
         result="blur"
         stdDeviation="7.500000"
         id="feGaussianBlur16"
         in="SourceGraphic" />
      <feOffset
         result="offset"
         in="blur"
         dx="0.000000"
         dy="0.000000"
         id="feOffset16" />
      <feComposite
         result="comp1"
         operator="in"
         in="flood"
         in2="offset"
         id="feComposite16" />
      <feComposite
         result="comp2"
         operator="over"
         in="SourceGraphic"
         in2="comp1"
         id="feComposite17" />
    </filter>
  </defs>
  <g
     inkscape:label="Layer 1"
     inkscape:groupmode="layer"
     id="layer1">
    <path
       d="m 26.443706,54.8764 q 0,-1.121728 -0.70108,-1.916285 -0.70108,-0.794558 -1.729331,-0.794558 -1.028251,0 -1.729331,0.794558 -0.70108,0.794557 -0.70108,1.916285 0,1.121728 0.70108,1.869547 0.70108,0.747819 1.729331,0.747819 1.028251,0 1.729331,-0.747819 0.70108,-0.747819 0.70108,-1.869547 z m 9.721645,-20.565017 q 1.215205,0 2.10324,-0.934774 0.888035,-0.934773 0.888035,-2.243456 0,-1.308683 -0.888035,-2.243457 -0.888035,-0.934773 -2.10324,-0.934773 -1.215206,0 -2.056502,0.934773 -0.841296,0.934774 -0.841296,2.243457 0,1.308683 0.841296,2.243456 0.841296,0.934774 2.056502,0.934774 z m 17.199833,-7.010802 q 1.121728,0 1.916285,-0.888035 0.794558,-0.888034 0.794558,-2.10324 0,-1.215206 -0.794558,-2.103241 -0.794557,-0.888034 -1.916285,-0.888034 -1.121728,0 -1.916286,0.888034 -0.794558,0.888035 -0.794558,2.103241 0,1.215206 0.794558,2.10324 0.794558,0.888035 1.916286,0.888035 z m 18.788948,3.926049 q 1.028248,0 1.776068,-0.747819 0.74782,-0.747819 0.74782,-1.869547 0,-1.121728 -0.74782,-1.916286 -0.74782,-0.794557 -1.776068,-0.794557 -1.028252,0 -1.729331,0.794557 -0.701082,0.794558 -0.701082,1.916286 0,1.121728 0.701082,1.869547 0.701079,0.747819 1.729331,0.747819 z m 11.404234,-3.645617 q -0.65434,0.654342 -1.30868,1.402161 -1.49564,1.40216 -2.149981,1.869546 -0.373908,0.186955 -1.028252,0.467387 l -0.65434,0.186955 -0.65434,0.373909 q -0.74782,0.560865 -1.215208,0.654342 -0.934772,0.373909 -2.430409,0.560864 -1.49564,0.186955 -2.804321,0.186955 -1.028252,0 -1.682592,-0.09348 l -0.373912,-0.09348 q 0.09348,-0.280432 0.327174,-0.607603 0.23369,-0.32717 0.607602,-0.607603 v -0.186954 q 0,-0.09348 -0.09348,-0.233694 -0.09348,-0.140216 -0.747816,0.280432 -0.654344,0.420649 -1.121728,0.794558 -0.467388,-0.560864 -0.794557,-1.215206 -0.32717,-0.654341 -0.514126,-1.776069 -0.280432,-1.308683 -0.186956,-2.523889 0.280432,-3.645617 1.308683,-5.421686 0.560864,-0.934774 1.308684,-2.243457 l 0.747816,-1.028251 q -0.560864,0.09348 -1.074986,0.327171 -0.514126,0.233693 -1.822809,1.448899 -1.495637,1.40216 -2.056501,2.430411 -1.308684,1.963025 -1.215208,3.55214 0,0.747818 0.560864,2.056501 0.373912,1.121729 0.74782,1.682593 1.028252,1.682592 2.336933,3.084752 l -1.028249,1.028251 q -1.121728,1.121728 -1.682592,1.77607 -0.74782,0.841296 -1.49564,3.271707 l -0.09348,0.186955 q -0.280432,0.560864 -0.841296,0.841296 l -0.654341,0.280432 q -0.747819,0.280432 -1.028251,0.467387 -0.747819,0.560864 -1.402161,1.121728 -0.747819,-0.747818 -1.028251,-1.869547 -0.280432,-1.495638 -1.40216,-4.299958 -0.373909,-0.841296 -0.934773,-1.963024 l -0.467387,-1.028251 0.934773,-1.121729 q 1.121729,-1.215205 1.589115,-1.963024 0.654342,-1.121728 1.402161,-2.897798 0.934773,-2.149979 1.121728,-3.17823 0.280432,-2.243456 -0.841296,-4.767345 -0.747819,-1.495637 -1.729331,-2.570627 -0.981512,-1.07499 -2.47715,-2.290195 -1.215206,-1.121728 -1.589115,-1.308683 -0.373909,-0.186955 -0.467387,-0.09348 l 0.37391,0.467386 q 1.589114,1.963025 2.009763,2.991276 0.420648,1.028251 0.32717,2.80432 l -0.186954,1.589115 0.467386,0.560864 q 0.560865,0.654342 0.701081,1.355422 0.140216,0.70108 0.09348,2.196718 -0.04674,1.495637 -0.233693,2.523888 -0.280432,1.402161 -0.747819,2.523889 -0.37391,0.841296 -0.841297,1.495637 l -0.373909,0.467387 -0.280432,-0.373909 -0.280432,-0.37391 -0.09348,-0.467387 q -0.09348,-0.560864 -0.280432,-0.841296 -0.186955,-0.280432 -0.420648,-0.514125 -0.233694,-0.233693 -0.420648,-0.140216 -0.186955,0.09348 -0.04674,0.420648 0.140216,0.327171 0.140216,0.70108 0,0.373909 -0.280432,0.373909 -0.560864,-0.934773 -1.215206,-1.682592 l -0.747819,-0.747819 q -2.710843,-3.17823 -4.58039,-4.627129 -1.869547,-1.448899 -3.785833,-2.383672 -1.916285,-0.934774 -3.17823,-0.934774 -1.261944,0 -2.10324,0.467387 -0.654342,0.37391 -1.77607,1.40216 l -0.934773,0.841296 q -0.467387,0.467387 -0.654342,0.701081 -0.186955,0.233693 -0.186955,0.794557 l 0.560865,-0.373909 q 0.654341,-0.37391 1.776069,-0.37391 1.40216,0 3.926049,1.869548 l 2.617366,1.776069 1.495638,-0.186955 q 1.589114,-0.186954 2.336933,0.09348 1.869548,0.560864 2.804321,1.40216 0.560864,0.467387 1.495637,1.589115 0.934774,1.121728 1.028251,1.215206 0.186955,0.747818 0.37391,0.841296 l 0.186955,0.09348 q 0.841296,0.560864 1.308683,1.121729 0.934773,1.02825 1.682592,3.271707 1.028251,2.897798 1.028251,5.328209 0,0.747819 -0.233694,2.243456 -0.233693,1.495638 -0.233693,2.336934 -0.09348,2.710843 -2.243456,6.262983 -0.467387,0.747819 -0.467387,0.841296 l 0.280432,0.467387 q 0.934773,1.40216 1.215205,2.336934 0.09348,0.467386 0.420648,1.121728 0.327171,0.654341 0.233694,0.934773 -0.09348,0.467387 -0.934774,1.121728 -0.934773,0.654342 -1.963024,1.121729 l 0.186955,0.373909 q 0.373909,0.280432 0.934773,0.560864 l 0.37391,0.09348 q 1.215205,0.467387 1.869547,1.02825 0.373909,0.373908 0.934773,1.07499 0.560864,0.701079 0.560864,0.888034 -1.495637,-1.028252 -3.084752,-1.776068 -0.841296,-0.37391 -2.243457,-0.841297 -1.121728,-0.280432 -1.77607,-0.560864 -3.365184,-1.40216 -6.449937,-3.458662 -2.056502,-1.40216 -3.645617,-3.365185 -0.934773,-0.280432 -1.869547,-0.841296 l -0.373909,-0.186955 q -0.934774,-0.560864 -1.07499,-0.981512 -0.140216,-0.420648 -0.04674,-1.448899 l 0.186954,-1.028251 -0.841296,-2.430411 Q 35.51101,45.154756 35.417532,44.126505 35.230578,42.724344 35.230578,41.228707 l 1.121728,-1.308683 q 1.308682,-1.308683 2.149979,-1.682593 2.149979,-1.02825 3.739094,-1.02825 0.467386,0 2.056502,0.280432 l 0.747819,0.09348 q 0.186954,0 1.355421,-0.888035 1.168467,-0.888035 1.916286,-1.729331 l 1.308683,-1.589115 q 1.215205,-1.40216 1.308682,-1.635854 0.09348,-0.233693 0.186955,-0.607602 l -1.121728,0.654341 q -1.215205,0.467387 -2.430411,0.467387 -0.560864,0 -2.056502,-0.186955 l -0.747819,-0.09348 q -0.373909,0 -1.589115,0.467387 -1.589115,0.654341 -3.084752,1.729331 -1.495638,1.074989 -2.710844,2.290195 -0.934773,0.934773 -1.589114,1.869547 l -0.467387,0.747818 Q 35.1371,38.611341 35.1371,38.143954 q 0,-0.934773 0.280432,-1.77607 0,-0.373909 -0.280432,-0.514125 -0.280432,-0.140216 -0.70108,0.467387 -0.420648,0.607603 -0.654342,1.215205 -0.233693,0.607603 -0.140216,1.261944 l -0.373909,-0.09348 q -0.373909,-0.280432 -0.747819,-0.654341 v -0.09348 q -1.121728,-1.589115 -1.495637,-2.336933 -0.747819,-1.869547 -0.747819,-3.926049 0,-1.028251 0.280432,-1.869547 0.186955,-0.654342 0.467387,-1.121728 l 0.373909,-0.37391 q -0.467387,-1.589115 -0.373909,-3.17823 0.09348,-1.121728 0.280432,-1.77607 l 0.09348,-0.373909 q 0.09348,-0.747819 0.280432,-1.40216 0.186955,-0.654342 0.467387,-1.121728 0.280432,-0.467387 0.280432,-0.934774 l -0.934774,0.841296 q -1.308683,1.215206 -2.617366,2.897798 -1.589115,1.963025 -2.243456,3.458662 -0.654341,1.495638 -0.747819,3.084753 -0.09348,3.458662 3.271708,6.730369 l 4.20648,4.113004 q -0.09348,1.028251 -0.09348,2.149979 0.09348,1.40216 0.467387,2.80432 0.747819,2.430411 0.747819,4.9543 0,1.682592 -0.280432,3.365185 -0.186955,1.40216 -0.327171,1.729331 -0.140216,0.32717 -0.140216,0.70108 h 0.747819 q 0.934773,0.09348 1.308683,0.280432 l 0.747818,0.373909 0.280432,0.09348 q 0.37391,0.09348 0.467387,0.186955 l 2.991275,3.552139 q 1.495638,1.682592 3.17823,3.084753 l 1.402161,1.121728 q -0.467387,0 -0.934774,-0.09348 -0.934773,-0.186953 -2.056502,-0.747817 -0.747818,-0.467388 -1.40216,-1.121728 -1.77607,0.467384 -2.710843,0.420646 -0.934774,-0.04674 -2.336934,-0.514126 -1.869547,-0.560862 -3.131491,-1.589113 -1.261944,-1.028251 -2.009763,-2.056502 -0.560864,-0.654341 -0.934774,-1.308683 L 29.15455,57.58724 29.341504,55.43726 q 0.280432,-2.149979 -0.186954,-5.421686 -0.186955,-1.215206 -1.168467,-3.926049 -0.981513,-2.710843 -1.77607,-3.972787 -0.794557,-1.261945 -2.383673,-2.056502 -1.589115,-0.794558 -3.084752,-0.794558 -2.897798,0 -4.299958,1.028251 2.617365,0.467387 4.393435,2.430411 1.40216,1.682593 3.084753,4.9543 0.934773,0.186955 1.589115,0.747819 2.056501,1.589115 2.710843,4.486913 0.09348,0.747819 0.186955,2.056501 l 0.09348,1.121729 q 0,0.280432 -0.186955,0.280432 l -0.280432,-0.09348 -0.373909,-0.280433 q -0.37391,-0.280432 -0.560864,-0.186954 -0.186955,0.09348 -0.186955,0.373909 l 0.280432,0.654342 q 0.280432,0.747819 0.09348,1.028251 -1.682592,0.09348 -3.17823,0.934773 -1.121728,0.747819 -2.991275,2.897798 -1.869547,2.149977 -2.523889,3.645617 -1.028251,2.336932 -0.654341,5.141252 0.09348,1.121729 1.215206,2.897797 l 1.028251,1.589116 0.280432,-1.682592 q 0.373909,-1.776069 0.654341,-2.477151 0.280432,-0.701078 1.308683,-2.196718 l 0.841296,-1.402159 v -2.336933 q 0.09348,-2.336933 0.140216,-2.617365 0.04674,-0.280432 0.747819,-1.355421 0.70108,-1.07499 1.261945,-1.542377 1.02825,-0.841296 2.336933,-0.841296 l 0.841296,1.028251 q 1.028251,1.215205 1.963025,2.243457 2.243456,2.430411 3.926049,3.552139 1.40216,0.841297 4.393435,2.336932 1.308683,0.65434 2.523889,1.869548 l 1.02825,1.028248 0.934774,-0.65434 q 1.028251,-0.74782 1.77607,-1.028252 0.747818,-0.280432 2.10324,-0.467384 1.355422,-0.186956 2.290195,-0.186956 1.589115,0 3.271708,0.841296 1.121728,0.560864 2.80432,1.963024 l 1.589115,1.495637 q 1.77607,1.776072 2.710843,3.271708 1.121729,2.056501 1.682593,3.552141 0.747819,1.776069 0.888035,3.552137 0.140217,1.776072 0.233693,3.458665 v 0.467384 l 0.186956,0.654344 q 0.65434,-0.654344 1.40216,-1.261946 0.747816,-0.607602 1.589113,-1.07499 1.40216,-1.963025 3.178231,-3.458661 2.617365,-2.056501 4.673865,-2.430413 0.934776,-0.186952 2.103242,-0.140214 1.168467,0.04674 1.776069,0.186956 0.607602,0.140214 1.07499,0.607602 0.467388,0.467385 0.560864,1.07499 0.09348,0.607603 0,0.981511 l -0.09348,0.373908 q 0.747817,-0.186952 1.028249,-0.841296 0.280432,-0.65434 0,-1.448899 -0.280432,-0.794558 -0.747817,-1.168466 v -0.09348 Q 78.791021,78.152258 78.323637,77.871826 77.482341,77.310962 76.267133,77.12401 74.58454,76.937054 73.27586,76.469666 L 69.910675,75.347938 Q 69.069379,75.067505 68.228083,74.693597 67.947651,74.506641 66.732444,73.011005 L 65.423763,71.421889 64.115079,70.113208 Q 63.273783,69.178432 63.086827,68.898 l -0.186952,-0.186952 q -0.841297,-1.215207 -1.074991,-2.103241 -0.233693,-0.888034 -0.140216,-1.963024 0.09348,-1.074991 0.37391,-1.682593 0.280432,-0.607601 1.215205,-0.981511 0.65434,-0.280432 1.495636,-0.373909 l 0.74782,-0.09348 q -0.09348,-0.841296 -0.841296,-1.308683 -0.373908,-0.280432 -1.40216,-0.514125 -1.028251,-0.233694 -1.495637,-0.514126 -1.308683,-0.747818 -2.430412,-2.430411 -1.308683,-1.963024 -1.308683,-4.206481 0,-2.243456 1.495638,-5.561902 1.495638,-3.318446 2.664105,-4.019526 1.168465,-0.70108 3.038013,-0.70108 0.186956,0 0.373909,-0.186955 l 0.186955,-0.09348 -0.280432,-0.747819 q -0.373908,-1.121728 -0.09348,-2.243457 0.09348,-0.841296 0.607602,-1.963024 0.514126,-1.121728 1.074991,-1.682593 0.747815,-0.747818 1.682591,-1.308682 l 1.589113,0.467386 q 1.869548,0.467387 3.271708,0.560864 2.617365,0.280432 4.580389,-0.09348 0.74782,-0.186955 1.635855,-0.70108 0.888034,-0.514125 1.49564,-1.074989 0.607602,-0.560865 1.30868,-2.056502 0.701082,-1.495638 0.888034,-2.430411 z M 69.256331,47.678644 q -1.121728,0 -1.963023,0.934774 -0.841296,0.934773 -0.841296,2.196717 0,1.261945 0.841296,2.196718 0.841295,0.934774 2.009765,0.934774 1.168466,0 1.963024,-0.934774 0.794555,-0.934773 0.794555,-2.196718 0,-1.261944 -0.794555,-2.196717 -0.794558,-0.934774 -2.009766,-0.934774 z m 0.09348,7.104279 q -1.121728,0 -1.916285,0.841296 -0.794558,0.841296 -0.794558,2.056502 0,1.215205 0.794558,2.056501 0.794557,0.841297 1.916285,0.841297 1.121728,0 1.916286,-0.841297 0.794555,-0.841296 0.794555,-2.056501 0,-1.215206 -0.794555,-2.056502 -0.794558,-0.841296 -1.916286,-0.841296 z m -5.889072,-3.365185 q -1.308684,0 -2.243457,1.028251 -0.934774,1.028251 -0.934774,2.430411 0,1.402161 0.934774,2.383673 0.934773,0.981512 2.196719,0.981512 1.261942,0 2.196715,-0.981512 0.934775,-0.981512 0.934775,-2.383673 0,-1.40216 -0.934775,-2.430411 -0.934773,-1.028251 -2.149977,-1.028251 z"
       id="path1"
       style="fill:#ffffff;fill-opacity:1;stroke-width:6;font-variation-settings:normal;opacity:1;vector-effect:none;stroke:#6baf35;stroke-linecap:butt;stroke-linejoin:round;stroke-miterlimit:15;stroke-dasharray:none;stroke-dashoffset:0;stroke-opacity:1;-inkscape-stroke:none;paint-order:stroke markers fill;filter:url(#filter17);stop-color:#000000;stop-opacity:1" />
  </g>
</svg>
