<?xml version="1.0" encoding="UTF-8" standalone="no"?>
<!-- Created with Inkscape (http://www.inkscape.org/) -->

<svg
   width="100mm"
   height="100mm"
   viewBox="0 0 100 100"
   version="1.1"
   id="svg1"
   inkscape:version="1.3.2 (091e20ef0f, 2023-11-25, custom)"
   sodipodi:docname="062413.svg"
   inkscape:export-xdpi="16.256001"
   inkscape:export-ydpi="16.256001"
   xmlns:inkscape="http://www.inkscape.org/namespaces/inkscape"
   xmlns:sodipodi="http://sodipodi.sourceforge.net/DTD/sodipodi-0.dtd"
   xmlns="http://www.w3.org/2000/svg"
   xmlns:svg="http://www.w3.org/2000/svg">
  <sodipodi:namedview
     id="namedview1"
     pagecolor="#000000"
     bordercolor="#000000"
     borderopacity="0.25"
     inkscape:showpageshadow="2"
     inkscape:pageopacity="0.0"
     inkscape:pagecheckerboard="0"
     inkscape:deskcolor="#d1d1d1"
     inkscape:document-units="mm"
     showguides="true"
     inkscape:zoom="2.2621875"
     inkscape:cx="188.97638"
     inkscape:cy="188.97638"
     inkscape:window-width="1920"
     inkscape:window-height="1022"
     inkscape:window-x="0"
     inkscape:window-y="0"
     inkscape:window-maximized="1"
     inkscape:current-layer="layer1">
    <sodipodi:guide
       position="0,99.999999"
       orientation="0,377.95276"
       id="guide4"
       inkscape:locked="false" />
    <sodipodi:guide
       position="99.999999,99.999999"
       orientation="377.95276,0"
       id="guide5"
       inkscape:locked="false" />
    <sodipodi:guide
       position="99.999999,0"
       orientation="0,-377.95276"
       id="guide6"
       inkscape:locked="false" />
    <sodipodi:guide
       position="0,0"
       orientation="-377.95276,0"
       id="guide7"
       inkscape:locked="false" />
    <sodipodi:guide
       position="0,0"
       orientation="0.70710678,-0.70710678"
       id="guide8"
       inkscape:locked="false" />
    <sodipodi:guide
       position="0,99.999999"
       orientation="0.70710678,0.70710678"
       id="guide9"
       inkscape:locked="false"
       inkscape:label=""
       inkscape:color="rgb(0,134,229)" />
    <sodipodi:guide
       position="0,87.499999"
       orientation="0,1"
       id="guide10"
       inkscape:locked="false"
       inkscape:label=""
       inkscape:color="rgb(0,134,229)" />
    <sodipodi:guide
       position="0,12.5"
       orientation="0,1"
       id="guide11"
       inkscape:locked="false"
       inkscape:label=""
       inkscape:color="rgb(0,134,229)" />
    <sodipodi:guide
       position="12.5,99.999999"
       orientation="-1,0"
       id="guide12"
       inkscape:locked="false"
       inkscape:label=""
       inkscape:color="rgb(0,134,229)" />
    <sodipodi:guide
       position="87.499999,99.999999"
       orientation="-1,0"
       id="guide13"
       inkscape:locked="false"
       inkscape:label=""
       inkscape:color="rgb(0,134,229)" />
  </sodipodi:namedview>
  <defs
     id="defs1">
    <filter
       style="color-interpolation-filters:sRGB"
       inkscape:label="Drop Shadow"
       id="filter17"
       x="-0.25400248"
       y="-0.30197074"
       width="1.508003"
       height="1.6039312">
      <feFlood
         result="flood"
         in="SourceGraphic"
         flood-opacity="0.75"
         flood-color="rgb(107,175,53)"
         id="feFlood16" />
      <feGaussianBlur
         result="blur"
         stdDeviation="7.500000"
         id="feGaussianBlur16"
         in="SourceGraphic" />
      <feOffset
         result="offset"
         in="blur"
         dx="0.000000"
         dy="0.000000"
         id="feOffset16" />
      <feComposite
         result="comp1"
         operator="in"
         in="flood"
         in2="offset"
         id="feComposite16" />
      <feComposite
         result="comp2"
         operator="over"
         in="SourceGraphic"
         in2="comp1"
         id="feComposite17" />
    </filter>
  </defs>
  <g
     inkscape:label="Layer 1"
     inkscape:groupmode="layer"
     id="layer1">
    <path
       d="m 52.169654,31.307163 q -13.132123,0 -26.150054,0.114192 l -1.370308,-0.114192 q -1.370309,0 -1.941271,0.114192 -0.799346,0.228385 -1.19902,1.199021 -0.399673,0.970634 -0.399673,3.140289 -0.228384,6.851543 0.114192,19.526897 0,1.370309 0.970636,2.226751 0.970635,0.856443 2.39804,0.799347 1.427404,-0.05709 2.39804,-0.913539 0.970635,-0.856443 0.970635,-2.226752 0.228385,-3.311578 0.342577,-10.048929 v -0.114192 q 0,-3.197386 0.513865,-4.567695 0.513867,-1.370309 1.541598,-1.712885 0.570962,-0.114193 2.398039,0 h 0.342578 q 5.481233,0.342576 10.962468,0.228384 1.941269,-0.114192 2.854809,0.342577 1.256117,0.45677 1.827078,1.998367 0.570962,1.541597 0.570962,4.738984 0,2.398039 0.171289,7.251215 0.171288,4.853177 0.171288,7.251216 v 5.709619 q 0.114193,4.796078 -0.114192,6.052196 -0.342577,1.712885 -1.94127,2.055463 -1.027732,0.342576 -5.252849,0.228385 -3.76835,-0.228385 -6.280581,-0.228385 H 34.241451 Q 30.701488,74.47188 29.787949,74.243498 28.531833,73.90092 28.189256,72.758993 28.075063,71.959648 28.075063,68.990645 l 0.114193,-3.768347 q 0,-0.228384 -0.570963,-0.685154 L 26.933139,63.737797 Q 12.659092,72.644802 8.6623594,87.946585 14.828747,81.666001 19.396443,77.897652 l 0.799346,-0.685154 q 1.256116,-1.370308 1.712886,-1.4845 0.913539,-0.114191 0.342577,2.512231 -0.45677,2.398041 2.283848,3.197389 1.598693,0.456769 5.252849,0.456769 h 1.027732 q 4.796079,0.114191 14.502431,0 h 3.654156 q 3.768348,-0.114191 5.367041,-0.628059 1.598693,-0.513864 2.169655,-2.112558 0.570963,-1.598695 0.685155,-5.138659 0.114192,-10.734082 0.342578,-31.973865 V 41.2419 q 0,-1.941271 -0.342578,-5.024465 -0.45677,-5.024465 -5.024465,-4.910272 z m 18.955933,2.512233 q -0.799345,-1.027732 -0.913536,-2.740618 -0.114196,-1.027731 0.114191,-3.083194 0.114191,-1.370308 0.114191,-2.055462 -0.228382,-3.882542 -0.685154,-5.138657 -0.456768,-1.598694 -2.169653,-2.055463 -1.256117,-0.342578 -5.367043,-0.342578 l -16.443702,0.114192 h -6.052195 q -1.827079,0.114194 -2.740618,1.027732 -0.913538,0.913539 -0.913538,2.626424 0.114192,2.969003 3.311578,3.197387 1.370308,0.114193 3.996734,0.228385 l 15.644355,0.342578 q 2.39804,0 3.539963,1.256115 1.141924,1.256116 1.027732,3.768349 -0.114192,5.823811 0,17.585626 v 14.388239 q 0,1.370309 0.342577,2.055463 0.570962,0.913539 1.827078,1.027732 3.197387,0.456769 4.110927,-2.283849 0.456768,-1.712885 0.456768,-3.539963 l 0.114191,-2.169655 q 0.114195,-4.453503 -0.228382,-6.623158 0.456768,-5.481235 1.484498,-8.221851 1.256118,-3.197387 4.453503,-5.367042 2.169654,-1.370309 6.737352,-3.88254 5.481233,-2.969002 8.450233,-5.024465 -5.709616,-1.256116 -11.305046,0.228385 -5.252848,1.370308 -8.907004,4.681888 z"
       id="path1"
       style="fill:#ffffff;fill-opacity:1;stroke-width:6;font-variation-settings:normal;opacity:1;vector-effect:none;stroke:#6baf35;stroke-linecap:butt;stroke-linejoin:round;stroke-miterlimit:15;stroke-dasharray:none;stroke-dashoffset:0;stroke-opacity:1;-inkscape-stroke:none;paint-order:stroke markers fill;filter:url(#filter17);stop-color:#000000;stop-opacity:1" />
  </g>
</svg>
