<?xml version="1.0" encoding="UTF-8" standalone="no"?>
<!-- Created with Inkscape (http://www.inkscape.org/) -->

<svg
   width="100mm"
   height="100mm"
   viewBox="0 0 100 100"
   version="1.1"
   id="svg1"
   inkscape:version="1.3.2 (091e20ef0f, 2023-11-25, custom)"
   sodipodi:docname="062409.svg"
   inkscape:export-filename="062409.png"
   inkscape:export-xdpi="16.256001"
   inkscape:export-ydpi="16.256001"
   xmlns:inkscape="http://www.inkscape.org/namespaces/inkscape"
   xmlns:sodipodi="http://sodipodi.sourceforge.net/DTD/sodipodi-0.dtd"
   xmlns="http://www.w3.org/2000/svg"
   xmlns:svg="http://www.w3.org/2000/svg">
  <sodipodi:namedview
     id="namedview1"
     pagecolor="#000000"
     bordercolor="#000000"
     borderopacity="0.25"
     inkscape:showpageshadow="2"
     inkscape:pageopacity="0.0"
     inkscape:pagecheckerboard="0"
     inkscape:deskcolor="#d1d1d1"
     inkscape:document-units="mm"
     showguides="true"
     inkscape:zoom="2.2621875"
     inkscape:cx="188.97638"
     inkscape:cy="188.97638"
     inkscape:window-width="1920"
     inkscape:window-height="1022"
     inkscape:window-x="0"
     inkscape:window-y="0"
     inkscape:window-maximized="1"
     inkscape:current-layer="layer1">
    <sodipodi:guide
       position="0,99.999999"
       orientation="0,377.95276"
       id="guide4"
       inkscape:locked="false" />
    <sodipodi:guide
       position="99.999999,99.999999"
       orientation="377.95276,0"
       id="guide5"
       inkscape:locked="false" />
    <sodipodi:guide
       position="99.999999,0"
       orientation="0,-377.95276"
       id="guide6"
       inkscape:locked="false" />
    <sodipodi:guide
       position="0,0"
       orientation="-377.95276,0"
       id="guide7"
       inkscape:locked="false" />
    <sodipodi:guide
       position="0,0"
       orientation="0.70710678,-0.70710678"
       id="guide8"
       inkscape:locked="false" />
    <sodipodi:guide
       position="0,99.999999"
       orientation="0.70710678,0.70710678"
       id="guide9"
       inkscape:locked="false"
       inkscape:label=""
       inkscape:color="rgb(0,134,229)" />
    <sodipodi:guide
       position="0,87.499999"
       orientation="0,1"
       id="guide10"
       inkscape:locked="false"
       inkscape:label=""
       inkscape:color="rgb(0,134,229)" />
    <sodipodi:guide
       position="0,12.5"
       orientation="0,1"
       id="guide11"
       inkscape:locked="false"
       inkscape:label=""
       inkscape:color="rgb(0,134,229)" />
    <sodipodi:guide
       position="12.5,99.999999"
       orientation="-1,0"
       id="guide12"
       inkscape:locked="false"
       inkscape:label=""
       inkscape:color="rgb(0,134,229)" />
    <sodipodi:guide
       position="87.499999,99.999999"
       orientation="-1,0"
       id="guide13"
       inkscape:locked="false"
       inkscape:label=""
       inkscape:color="rgb(0,134,229)" />
  </sodipodi:namedview>
  <defs
     id="defs1">
    <filter
       style="color-interpolation-filters:sRGB"
       inkscape:label="Drop Shadow"
       id="filter16"
       x="-0.28"
       y="-0.52080104"
       width="1.56"
       height="2.0413394">
      <feFlood
         result="flood"
         flood-opacity="0.75"
         flood-color="rgb(107,175,53)"
         id="feFlood15" />
      <feGaussianBlur
         result="blur"
         stdDeviation="75.000000"
         id="feGaussianBlur15"
         in="SourceGraphic" />
      <feOffset
         result="offset"
         in="blur"
         dx="0.000000"
         dy="0.000000"
         id="feOffset15" />
      <feComposite
         result="comp1"
         operator="in"
         id="feComposite15"
         in="flood"
         in2="offset" />
      <feComposite
         result="comp2"
         operator="over"
         in="SourceGraphic"
         in2="comp1"
         id="feComposite16" />
    </filter>
  </defs>
  <g
     inkscape:label="Layer 1"
     inkscape:groupmode="layer"
     id="layer1">
    <path
       d="m 839.00002,422.44047 q -6,-9 -15,-18 -36,-11 -49,17 -6,13 -7,34 -1,18 2,24 13,30 13,48 0,33 -24,57 -24,24 -57.5,24 -33.5,0 -57.5,-24 -24,-24 -24,-57 0,-36 15,-64 13,-22 38,-42 15,-13 49,-33 24,-15 36,-23 l -4,-3 q -25,-19 -43,-29 -32,-16 -76,-24 -55,-11 -135,-11 -80,0 -135,11 -44,8 -76,24 -18,10 -43,29 l -4,3 q 12,8 36,23 34,20 49,33 25,20 38,42 15,28 15,64 0,34 -24,57.5 -24,23.5 -57.5,23.5 -33.5,0 -57.5,-23.5 -24,-23.5 -24,-57.5 0,-18 13,-48 3,-6 2,-24 -1,-21 -7,-34 -13,-28 -49,-17 -9,9 -15,18 -15,22 -25,49 -11,30 -11,56 0,61 38,109 38,48 98,61 60,13 114.5,-14 54.5,-27 80.5,-82.5 26,-55.5 11,-115 -15,-59.5 -63,-96.5 23,-9 49,-13 17,-3 47,-4 30,1 47,4 26,4 49,13 -49,37 -63.5,96.5 -14.5,59.5 11.5,115 26,55.5 80.5,82.5 54.5,27 114.5,13.5 60,-13.5 98,-61 38,-47.5 38,-108.5 0,-26 -11,-56 -10,-27 -25,-49 z"
       id="path1"
       style="display:inline;fill:#ffffff;fill-opacity:1;stroke:#6baf35;stroke-width:60;stroke-linecap:butt;stroke-linejoin:round;stroke-dasharray:none;stroke-dashoffset:0;stroke-opacity:1;paint-order:stroke markers fill;filter:url(#filter16)"
       transform="matrix(0.09999999,0,0,0.09999999,4.5401029e-6,3.7430429e-6)" />
  </g>
</svg>
