<?xml version="1.0" encoding="UTF-8" standalone="no"?>
<!-- Created with Inkscape (http://www.inkscape.org/) -->

<svg
   width="100mm"
   height="100mm"
   viewBox="0 0 100 100"
   version="1.1"
   id="svg1"
   inkscape:version="1.3.2 (091e20ef0f, 2023-11-25, custom)"
   sodipodi:docname="062406.svg"
   inkscape:export-xdpi="16.256001"
   inkscape:export-ydpi="16.256001"
   xmlns:inkscape="http://www.inkscape.org/namespaces/inkscape"
   xmlns:sodipodi="http://sodipodi.sourceforge.net/DTD/sodipodi-0.dtd"
   xmlns="http://www.w3.org/2000/svg"
   xmlns:svg="http://www.w3.org/2000/svg">
  <sodipodi:namedview
     id="namedview1"
     pagecolor="#000000"
     bordercolor="#000000"
     borderopacity="0.25"
     inkscape:showpageshadow="2"
     inkscape:pageopacity="0.0"
     inkscape:pagecheckerboard="0"
     inkscape:deskcolor="#d1d1d1"
     inkscape:document-units="mm"
     showguides="true"
     inkscape:zoom="2.2621875"
     inkscape:cx="188.97638"
     inkscape:cy="188.97638"
     inkscape:window-width="1920"
     inkscape:window-height="1022"
     inkscape:window-x="0"
     inkscape:window-y="0"
     inkscape:window-maximized="1"
     inkscape:current-layer="layer1">
    <sodipodi:guide
       position="0,99.999999"
       orientation="0,377.95276"
       id="guide4"
       inkscape:locked="false" />
    <sodipodi:guide
       position="99.999999,99.999999"
       orientation="377.95276,0"
       id="guide5"
       inkscape:locked="false" />
    <sodipodi:guide
       position="99.999999,0"
       orientation="0,-377.95276"
       id="guide6"
       inkscape:locked="false" />
    <sodipodi:guide
       position="0,0"
       orientation="-377.95276,0"
       id="guide7"
       inkscape:locked="false" />
    <sodipodi:guide
       position="0,0"
       orientation="0.70710678,-0.70710678"
       id="guide8"
       inkscape:locked="false" />
    <sodipodi:guide
       position="0,99.999999"
       orientation="0.70710678,0.70710678"
       id="guide9"
       inkscape:locked="false"
       inkscape:label=""
       inkscape:color="rgb(0,134,229)" />
    <sodipodi:guide
       position="0,87.499999"
       orientation="0,1"
       id="guide10"
       inkscape:locked="false"
       inkscape:label=""
       inkscape:color="rgb(0,134,229)" />
    <sodipodi:guide
       position="0,12.5"
       orientation="0,1"
       id="guide11"
       inkscape:locked="false"
       inkscape:label=""
       inkscape:color="rgb(0,134,229)" />
    <sodipodi:guide
       position="12.5,99.999999"
       orientation="-1,0"
       id="guide12"
       inkscape:locked="false"
       inkscape:label=""
       inkscape:color="rgb(0,134,229)" />
    <sodipodi:guide
       position="87.499999,99.999999"
       orientation="-1,0"
       id="guide13"
       inkscape:locked="false"
       inkscape:label=""
       inkscape:color="rgb(0,134,229)" />
  </sodipodi:namedview>
  <defs
     id="defs1">
    <filter
       style="color-interpolation-filters:sRGB"
       inkscape:label="Drop Shadow"
       id="filter17"
       x="-0.6059007"
       y="-0.28000075"
       width="2.2118792"
       height="1.5600007">
      <feFlood
         result="flood"
         in="SourceGraphic"
         flood-opacity="0.75"
         flood-color="rgb(107,175,53)"
         id="feFlood16" />
      <feGaussianBlur
         result="blur"
         stdDeviation="7.500000"
         id="feGaussianBlur16"
         in="SourceGraphic" />
      <feOffset
         result="offset"
         in="blur"
         dx="0.000000"
         dy="0.000000"
         id="feOffset16" />
      <feComposite
         result="comp1"
         operator="in"
         in="flood"
         in2="offset"
         id="feComposite16" />
      <feComposite
         result="comp2"
         operator="over"
         in="SourceGraphic"
         in2="comp1"
         id="feComposite17" />
    </filter>
  </defs>
  <g
     inkscape:label="Layer 1"
     inkscape:groupmode="layer"
     id="layer1">
    <path
       d="m 46.421774,36.486396 q 2.70072,0 4.601227,-1.900507 1.900507,-1.900507 1.900507,-4.601227 0,-2.70072 -1.900507,-4.651241 -1.900507,-1.95052 -4.601227,-1.95052 -2.70072,0 -4.65124,1.95052 -1.950521,1.950521 -1.950521,4.651241 0,2.70072 1.950521,4.601227 1.95052,1.900507 4.65124,1.900507 z m 5.801547,-23.906375 q -1.300347,-0.200054 -2.300613,0.100026 -1.000267,0.30008 -1.20032,1.05028 -0.200054,0.7502 0.15004,1.5004 0.350093,0.7502 1.05028,1.250334 l 0.800213,0.400107 q 3.400907,1.5004 5.40144,3.60096 3.700987,3.801013 3.700987,9.702587 0,3.500934 -1.65044,6.701788 -1.65044,3.200853 -4.451187,5.10136 -3.0008,2.10056 -6.501733,2.10056 -3.901041,0 -6.901841,-1.20032 -1.80048,-0.800213 -4.101094,-2.500667 L 35.71892,39.987329 q -1.000267,-0.700186 -1.80048,-0.60016 -0.500134,0.100027 -0.800214,0.500134 -0.700187,0.700186 -0.30008,2.40064 0.30008,1.400373 1.000267,2.10056 3.200854,3.90104 10.302748,6.701787 l 0.30008,0.100027 q 1.100293,0.400106 1.600426,0.800213 1.000267,0.700187 1.000267,1.700454 v 26.607095 q 0,2.600691 1.000267,4.901306 Q 49.022468,87.5 49.972721,87.5 q 0.950253,0 2.000533,-2.300615 1.050281,-2.300615 1.050281,-4.901306 V 53.991064 q 0,-0.90024 0.7502,-2.2506 0.7502,-1.350361 1.750466,-1.750467 1.700454,-0.90024 3.901041,-2.800747 3.30088,-2.900774 5.301414,-6.601761 2.600691,-4.901307 2.600691,-10.702854 0,-4.401174 -2.10056,-8.202187 -2.000531,-3.700987 -5.501465,-6.101627 -3.500934,-2.40064 -7.502001,-3.0008 z"
       id="path1"
       style="fill:#ffffff;fill-opacity:1;stroke-width:6;font-variation-settings:normal;opacity:1;vector-effect:none;stroke:#6baf35;stroke-linecap:butt;stroke-linejoin:round;stroke-miterlimit:15;stroke-dasharray:none;stroke-dashoffset:0;stroke-opacity:1;-inkscape-stroke:none;paint-order:stroke markers fill;filter:url(#filter17);stop-color:#000000;stop-opacity:1" />
  </g>
</svg>
