<?xml version="1.0" encoding="UTF-8" standalone="no"?>
<!-- Created with Inkscape (http://www.inkscape.org/) -->

<svg
   width="100mm"
   height="100mm"
   viewBox="0 0 100 100"
   version="1.1"
   id="svg1"
   inkscape:version="1.3.2 (091e20ef0f, 2023-11-25, custom)"
   sodipodi:docname="062420.svg"
   inkscape:export-xdpi="16.256001"
   inkscape:export-ydpi="16.256001"
   xmlns:inkscape="http://www.inkscape.org/namespaces/inkscape"
   xmlns:sodipodi="http://sodipodi.sourceforge.net/DTD/sodipodi-0.dtd"
   xmlns="http://www.w3.org/2000/svg"
   xmlns:svg="http://www.w3.org/2000/svg">
  <sodipodi:namedview
     id="namedview1"
     pagecolor="#000000"
     bordercolor="#000000"
     borderopacity="0.25"
     inkscape:showpageshadow="2"
     inkscape:pageopacity="0.0"
     inkscape:pagecheckerboard="0"
     inkscape:deskcolor="#d1d1d1"
     inkscape:document-units="mm"
     showguides="true"
     inkscape:zoom="2.2621875"
     inkscape:cx="188.97638"
     inkscape:cy="188.97638"
     inkscape:window-width="1920"
     inkscape:window-height="1022"
     inkscape:window-x="0"
     inkscape:window-y="0"
     inkscape:window-maximized="1"
     inkscape:current-layer="layer1">
    <sodipodi:guide
       position="0,99.999999"
       orientation="0,377.95276"
       id="guide4"
       inkscape:locked="false" />
    <sodipodi:guide
       position="99.999999,99.999999"
       orientation="377.95276,0"
       id="guide5"
       inkscape:locked="false" />
    <sodipodi:guide
       position="99.999999,0"
       orientation="0,-377.95276"
       id="guide6"
       inkscape:locked="false" />
    <sodipodi:guide
       position="0,0"
       orientation="-377.95276,0"
       id="guide7"
       inkscape:locked="false" />
    <sodipodi:guide
       position="0,0"
       orientation="0.70710678,-0.70710678"
       id="guide8"
       inkscape:locked="false" />
    <sodipodi:guide
       position="0,99.999999"
       orientation="0.70710678,0.70710678"
       id="guide9"
       inkscape:locked="false"
       inkscape:label=""
       inkscape:color="rgb(0,134,229)" />
    <sodipodi:guide
       position="0,87.499999"
       orientation="0,1"
       id="guide10"
       inkscape:locked="false"
       inkscape:label=""
       inkscape:color="rgb(0,134,229)" />
    <sodipodi:guide
       position="0,12.5"
       orientation="0,1"
       id="guide11"
       inkscape:locked="false"
       inkscape:label=""
       inkscape:color="rgb(0,134,229)" />
    <sodipodi:guide
       position="12.5,99.999999"
       orientation="-1,0"
       id="guide12"
       inkscape:locked="false"
       inkscape:label=""
       inkscape:color="rgb(0,134,229)" />
    <sodipodi:guide
       position="87.499999,99.999999"
       orientation="-1,0"
       id="guide13"
       inkscape:locked="false"
       inkscape:label=""
       inkscape:color="rgb(0,134,229)" />
  </sodipodi:namedview>
  <defs
     id="defs1">
    <filter
       style="color-interpolation-filters:sRGB"
       inkscape:label="Drop Shadow"
       id="filter17"
       x="-0.33136503"
       y="-0.28000001"
       width="1.6627301"
       height="1.56">
      <feFlood
         result="flood"
         in="SourceGraphic"
         flood-opacity="0.75"
         flood-color="rgb(107,175,53)"
         id="feFlood16" />
      <feGaussianBlur
         result="blur"
         stdDeviation="7.500000"
         id="feGaussianBlur16"
         in="SourceGraphic" />
      <feOffset
         result="offset"
         in="blur"
         dx="0.000000"
         dy="0.000000"
         id="feOffset16" />
      <feComposite
         result="comp1"
         operator="in"
         in="flood"
         in2="offset"
         id="feComposite16" />
      <feComposite
         result="comp2"
         operator="over"
         in="SourceGraphic"
         in2="comp1"
         id="feComposite17" />
    </filter>
  </defs>
  <g
     inkscape:label="Layer 1"
     inkscape:groupmode="layer"
     id="layer1">
    <path
       d="m 44.191577,34.103261 q 1.019022,1.42663 1.83424,2.955163 0.815217,1.528532 1.019021,2.445652 0.203805,1.222826 0.203805,2.955163 0,2.445652 0.203804,9.578804 l 0.101902,4.177989 q 0,2.139946 0.662364,3.311821 0.662364,1.171875 1.681386,1.171875 h 0.203804 q 1.019022,0 1.681386,-1.171875 0.662365,-1.171875 0.662365,-3.311821 l 0.101902,-4.177989 q 0.203804,-7.133152 0.203804,-9.578804 0,-1.732337 0.203805,-2.955163 0.203804,-0.91712 1.019021,-2.445652 0.815218,-1.528533 1.834239,-2.955163 1.732337,-2.139946 4.279892,-4.483696 l 2.343749,-1.732337 q 0.611413,-0.713315 0.611413,-1.630435 0,-0.917119 -0.611413,-1.528532 l -2.241847,-1.324728 q -2.547555,-1.630435 -4.381794,-3.158968 -1.019021,-0.815217 -1.936141,-2.241848 -0.713315,-1.019021 -1.324728,-2.343749 l -0.407609,-1.120924 q 0,-0.815218 -0.611413,-1.426631 Q 50.917121,12.5 50.050953,12.5 q -0.866169,0 -1.477582,0.611413 -0.611413,0.611413 -0.611413,1.426631 l -0.509511,1.120924 q -0.611413,1.324728 -1.222826,2.343749 -1.019022,1.426631 -2.038044,2.241848 -2.955162,2.34375 -6.521739,4.483696 -0.713315,0.611413 -0.713315,1.528532 0,0.91712 0.713315,1.630435 -0.101902,0 0.101902,0.101902 4.076088,3.057066 6.419837,6.114131 z m -6.216032,6.216033 q 0.407608,-0.611414 0.203804,-1.273778 -0.203804,-0.662364 -0.815217,-1.069973 L 35.427991,37.466032 Q 33.186143,36.752717 31.453806,35.9375 30.129078,35.427989 28.702447,33.797554 l -1.222826,-1.42663 Q 27.275817,31.759511 26.715355,31.402853 26.154893,31.046196 25.492529,31.25 q -0.662365,0.203804 -1.019022,0.764266 -0.356658,0.560462 -0.152853,1.273777 l -0.305707,1.83424 q -0.509511,2.038043 -1.324728,3.260869 -1.732337,2.34375 -4.076087,4.585598 -0.407609,0.713315 -0.203804,1.375679 0.203804,0.662364 0.815217,1.069973 l 2.139946,0.91712 q 2.445652,1.120924 4.076086,2.445652 1.120925,0.815217 2.038044,1.834239 0.91712,1.019022 1.273777,1.783288 0.356658,0.764266 0.764266,2.088995 0.407609,1.834239 2.038044,7.031249 l 1.019022,3.464674 q 0.509511,1.732337 1.222826,2.547555 0.713315,0.815217 1.528532,0.611413 h 0.101903 q 0.815217,-0.203805 1.019021,-1.273778 0.203805,-1.069972 -0.203804,-2.802309 l -0.713315,-2.955163 q -1.324729,-5.808424 -1.83424,-7.744565 -0.407608,-1.324729 -0.407608,-2.241848 -0.101902,-0.713316 0.203804,-2.088995 0.305707,-1.375679 0.815218,-2.598505 0.815217,-1.936142 2.34375,-4.177989 z m 43.410327,2.649456 q -0.713314,-0.713315 -1.324727,-1.42663 -1.630437,-1.732337 -2.751358,-3.158968 -0.815219,-1.222826 -1.324731,-3.260869 l -0.305707,-1.83424 Q 75.883155,32.574728 75.526498,32.014266 75.169841,31.453804 74.507474,31.25 q -0.662364,-0.203804 -1.273777,0.152853 -0.611413,0.356658 -0.713314,0.968071 l -1.222826,1.42663 q -1.528533,1.630435 -2.75136,2.139946 -1.732337,0.815217 -3.974185,1.528532 l -1.936141,0.509511 q -0.611413,0.305707 -0.815218,1.019022 -0.203804,0.713315 0.203805,1.324729 l 1.324728,1.936141 q 1.528533,2.241847 2.34375,4.177989 0.509511,1.222826 0.815217,2.598505 0.305707,1.375679 0.254756,2.190897 -0.05095,0.815217 -0.45856,2.139946 -0.509511,1.936141 -1.834239,7.642663 L 63.756795,64.0625 q -0.407609,1.732337 -0.203805,2.802309 0.203805,1.069973 1.019022,1.273778 h 0.101902 q 0.815218,0.203804 1.528533,-0.560462 0.713315,-0.764267 1.222826,-2.496603 l 0.917118,-3.26087 q 1.73234,-5.502717 2.241852,-7.336956 0.305707,-1.324729 0.662364,-2.088995 0.356657,-0.764266 1.273776,-1.783288 0.91712,-1.019022 2.038045,-1.834239 1.732334,-1.324728 4.177987,-2.445652 l 2.038044,-0.91712 q 0.611413,-0.407609 0.815219,-1.069973 0.203802,-0.662364 -0.203806,-1.375679 z M 55.298914,57.438858 q -0.407608,-0.305706 -0.96807,-0.305706 -0.560462,0 -0.91712,0.305706 -0.356657,0.305707 -0.407609,0.968071 -0.05095,0.662364 0.45856,1.273777 l 1.426631,1.120924 q 0.203804,0.203805 0.203804,0.45856 0,0.254755 -0.203804,0.45856 l -4.483696,4.076087 q -0.203804,0.203804 -0.45856,0.203804 -0.254755,0 -0.356657,-0.203804 l -4.483696,-4.177989 q -0.203804,-0.101903 -0.203804,-0.356658 0,-0.254755 0.203804,-0.45856 l 1.324728,-1.120924 q 0.611413,-0.611413 0.560462,-1.273777 -0.05095,-0.662364 -0.407609,-0.968071 -0.356657,-0.305706 -0.917119,-0.305706 -0.560462,0 -0.968071,0.203804 l -4.076086,2.751359 q -0.407609,0.509511 -0.407609,1.171875 0,0.662364 0.407609,1.171875 l 1.732336,1.324728 q 2.038044,1.732337 3.26087,3.362772 0.815217,1.019022 1.42663,2.190895 0.611413,1.171876 0.713316,1.936141 0.101902,0.764268 0.101902,2.088995 0,1.93614 0.203804,7.235055 l 0.101902,3.158967 q 0,1.630433 0.509511,2.700408 0.509511,1.069971 1.222826,1.069971 h 0.101902 q 0.815218,0 1.324729,-1.069971 0.509511,-1.069975 0.509511,-2.700408 v -3.158967 q 0.203804,-5.298915 0.203804,-7.235055 0,-1.222826 0.203804,-2.139946 0.101903,-0.713314 0.713316,-1.88519 0.611413,-1.171873 1.42663,-2.190895 1.936141,-2.547554 4.891304,-4.6875 0.509511,-0.509511 0.509511,-1.171875 0,-0.662364 -0.509511,-1.171875 -3.464674,-2.34375 -3.974185,-2.649457 z"
       id="path1"
       style="fill:#ffffff;fill-opacity:1;stroke-width:6;font-variation-settings:normal;opacity:1;vector-effect:none;stroke:#6baf35;stroke-linecap:butt;stroke-linejoin:round;stroke-miterlimit:15;stroke-dasharray:none;stroke-dashoffset:0;stroke-opacity:1;-inkscape-stroke:none;paint-order:stroke markers fill;filter:url(#filter17);stop-color:#000000;stop-opacity:1" />
  </g>
</svg>
